SplineFontDB: 3.0
FontName: LinBiolinumOKb
FullName: Linux Biolinum Keyboard O
FamilyName: Linux Biolinum Keyboard O
Weight: Book
Copyright: Linux Libertine by Philipp H. Poll,\nOpen Font under Terms of following Free Software Licenses:\nGPL (General Public License) with font-exception and OFL (Open Font License).\nCreated with FontForge (http://fontforge.sf.net)\nSept 2003, 2004, 2005, 2006, 2007, 2008, 2009, 2010, 2011,2012
UComments: "2003-08-29: Created.+AAoA-2004-07-25: v(1.0) release candidate+AAoA-2005-12-28: v(1.1.0) stable+AAoA-2006-01-01: v(2.0.0) stable+AAoA-2006-09-05: v(2.2.0) stable+AAoA-2006-12-04: v(2.3.0) stable+AAoA-2007-03-11: v(2.4.0) stable+AAoA-2007-12-00: v(2.7.0) stable+AAoA-2008-06-00: v(2.8.14) stable+AAoA" 
Version: 0.6.1
ItalicAngle: 0
UnderlinePosition: -98
UnderlineWidth: 40
Ascent: 754
Descent: 246
LayerCount: 3
Layer: 0 0 "Back"  1
Layer: 1 0 "Fore"  0
Layer: 2 0 "Frame"  0
XUID: [1021 993 1524925707 2876416]
FSType: 0
OS2Version: 0
OS2_WeightWidthSlopeOnly: 0
OS2_UseTypoMetrics: 0
CreationTime: 1156455862
ModificationTime: 1341180388
PfmFamily: 33
TTFWeight: 700
TTFWidth: 5
LineGap: 0
VLineGap: 0
OS2TypoAscent: 894
OS2TypoAOffset: 0
OS2TypoDescent: -246
OS2TypoDOffset: 0
OS2TypoLinegap: 0
OS2WinAscent: 894
OS2WinAOffset: 0
OS2WinDescent: 246
OS2WinDOffset: 0
HheadAscent: 894
HheadAOffset: 0
HheadDescent: -246
HheadDOffset: 0
OS2FamilyClass: 2063
OS2Vendor: 'PfEd'
Lookup: 3 0 0 "'aalt' Alle Alternativen zeigen"  {"'aalt' Alle Alternativen zeigen 1"  } ['aalt' ('DFLT' <'dflt' > 'cyrl' <'dflt' > 'grek' <'dflt' > 'latn' <'AZE ' 'CRT ' 'DEU ' 'MOL ' 'ROM ' 'TRK ' 'dflt' > ) ]
Lookup: 1 0 0 "'locl' Localized Forms Romaenisch"  {"'locl' Localized Forms Romaenisch 1"  } ['locl' ('latn' <'MOL ' 'ROM ' > ) ]
Lookup: 1 0 0 "'smcp' Gemeine nach Kapitaelchen i > i.sc"  {"'smcp' Gemeine nach Kapitaelchen i > i.sc 1"  } ['smcp' ('DFLT' <'dflt' > 'cyrl' <'dflt' > 'grek' <'dflt' > 'latn' <'DEU ' 'MOL ' 'ROM ' 'dflt' > ) ]

StartChar: exclam
Encoding: 33 33 0
Width: 1100
VWidth: 999
Flags: HW
HStem: -212 76<179.2 885.174> 35 93<506.932 573.77> 514 20G<533 553> 718 36<188.821 875.472>
VStem: 120 36<-107.953 686.051> 493 94<46.4731 113.925 358.006 523.249> 904 96<-118.923 694.8>
LayerCount: 3
Fore
SplineSet
542 534 m 0
 564 534 588 517 588 480 c 0
 588 431 575 399 567 335 c 0
 556 254 555 209 554 198 c 0
 553 190 550 183 542 183 c 0
 533 183 531 189 531 193 c 0
 529 209 525 276 518 335 c 0
 510 401 497 427 497 480 c 0
 497 520 524 534 542 534 c 0
493 80 m 1
 493 83 l 1
 502 105 514 118 539 128 c 1
 541 128 l 1
 565 119 578 107 587 83 c 1
 587 80 l 1
 577 53 565 41 541 35 c 1
 539 35 l 1
 512 41 501 53 493 80 c 1
249 718 m 2
 189 718 156 685 156 625 c 2
 156 -53 l 2
 156 -113 189 -136 249 -136 c 2
 821 -136 l 2
 881 -136 904 -113 904 -53 c 2
 904 625 l 2
 904 685 881 718 821 718 c 2
 249 718 l 2
1000 -84 m 2
 1000 -174 971 -212 881 -212 c 2
 249 -212 l 2
 159 -212 120 -174 120 -84 c 2
 120 625 l 2
 120 708 168 754 249 754 c 2
 851 754 l 2
 941 754 1000 715 1000 625 c 2
 1000 -84 l 2
EndSplineSet
Colour: ff80cc
EndChar

StartChar: quotedbl
Encoding: 34 34 1
Width: 1100
VWidth: 999
Flags: HW
HStem: -212 76<179.2 885.174> 402 165<452.962 491.166 566.962 605.166> 718 36<188.821 875.472>
VStem: 120 36<-107.953 686.051> 433 82<428.153 560.133> 547 82<429.153 561.133> 904 96<-118.923 694.8>
LayerCount: 3
Fore
SplineSet
582 400 m 1
 571 403 l 1
 571 403 547 523 547 527 c 0
 547 545 563 568 596 568 c 0
 627 568 629 554 629 540 c 0
 629 529 602 405 602 405 c 1
 582 400 l 1
468 399 m 1
 457 402 l 1
 457 402 433 522 433 526 c 0
 433 544 449 567 482 567 c 0
 513 567 515 553 515 539 c 0
 515 528 488 404 488 404 c 1
 468 399 l 1
249 718 m 2
 189 718 156 685 156 625 c 2
 156 -53 l 2
 156 -113 189 -136 249 -136 c 2
 821 -136 l 2
 881 -136 904 -113 904 -53 c 2
 904 625 l 2
 904 685 881 718 821 718 c 2
 249 718 l 2
1000 -84 m 2
 1000 -174 971 -212 881 -212 c 2
 249 -212 l 2
 159 -212 120 -174 120 -84 c 2
 120 625 l 2
 120 708 168 754 249 754 c 2
 851 754 l 2
 941 754 1000 715 1000 625 c 2
 1000 -84 l 2
EndSplineSet
Colour: ff00ff
EndChar

StartChar: numbersign
Encoding: 35 35 2
Width: 1100
Flags: HW
HStem: -212 76<179.2 885.174> 188 42<386 446 506 554 611 678> 304 43<405 465 524 572 630 696> 452 20G<489 546 594.5 649> 718 36<188.821 875.472>
VStem: 120 36<-107.953 686.051> 904 96<-118.923 694.8>
LayerCount: 3
Fore
SplineSet
560 230 m 1
 572 304 l 1
 519 304 l 1
 515 278 511 256 506 230 c 1
 560 230 l 1
623 304 m 1
 611 230 l 1
 684 230 l 1
 678 188 l 1
 605 188 l 1
 598 146 591 102 584 62 c 1
 534 62 l 1
 554 188 l 1
 500 188 l 1
 493 146 487 102 480 62 c 1
 427 62 l 1
 446 188 l 1
 380 188 l 1
 386 230 l 1
 453 230 l 1
 458 256 462 278 465 304 c 1
 398 304 l 1
 405 347 l 1
 472 347 l 1
 479 388 486 432 492 472 c 1
 546 472 l 1
 524 347 l 1
 578 347 l 1
 585 388 591 432 598 472 c 1
 649 472 l 1
 630 347 l 1
 702 347 l 1
 696 304 l 1
 623 304 l 1
249 718 m 2
 189 718 156 685 156 625 c 2
 156 -53 l 2
 156 -113 189 -136 249 -136 c 2
 821 -136 l 2
 881 -136 904 -113 904 -53 c 2
 904 625 l 2
 904 685 881 718 821 718 c 2
 249 718 l 2
1000 -84 m 2
 1000 -174 971 -212 881 -212 c 2
 249 -212 l 2
 159 -212 120 -174 120 -84 c 2
 120 625 l 2
 120 708 168 754 249 754 c 2
 851 754 l 2
 941 754 1000 715 1000 625 c 2
 1000 -84 l 2
EndSplineSet
EndChar

StartChar: dollar
Encoding: 36 36 3
Width: 1100
VWidth: 999
Flags: HW
HStem: -212 76<179.2 885.174> 48 35<475.138 592.257> 375 21G<645 662> 451 33<494.413 598.567> 505 20G<530 562> 718 36<188.821 875.472>
VStem: 120 36<-107.953 686.051> 397 78<337.788 430.023> 530 32<-5 525> 615 84<114.208 212.929> 904 96<-118.923 694.8>
LayerCount: 3
Fore
SplineSet
249 718 m 2
 189 718 156 685 156 625 c 2
 156 -53 l 2
 156 -113 189 -136 249 -136 c 2
 821 -136 l 2
 881 -136 904 -113 904 -53 c 2
 904 625 l 2
 904 685 881 718 821 718 c 2
 249 718 l 2
1000 -84 m 2
 1000 -174 971 -212 881 -212 c 2
 249 -212 l 2
 159 -212 120 -174 120 -84 c 2
 120 625 l 2
 120 708 168 754 249 754 c 2
 851 754 l 2
 941 754 1000 715 1000 625 c 2
 1000 -84 l 2
530 83.1 m 1
 530 245.9 l 1
 472 269 397 304 397 372 c 0
 397 440.3 466.5 476.3 530 482.9 c 1
 530 525 l 1
 562 525 l 1
 562 483.8 l 1
 634.8 481.3 672 455 672 455 c 2
 674 453 l 1
 668 433 663 399 661 375 c 1
 654 375 l 1
 638.2 410.1 602.3 442.2 562 449.5 c 1
 562 302.5 l 1
 617.2 282.3 699 249.9 699 177 c 0
 699 109.3 635.6 61.9 562 50.6 c 1
 562 -5 l 1
 530 -5 l 1
 530 48 l 2
 529.3 48 528.7 48 528 48 c 0
 454 48 394 78 394 78 c 1
 393 80 l 1
 398 99 404 135 406 159 c 1
 412 159 l 1
 430.4 120.2 486.5 85.2 530 83.1 c 1
530 315.1 m 1
 530 450 l 1
 495.8 445.3 475 424.1 475 389 c 0
 475 348.9 503.7 327.5 530 315.1 c 1
562 233 m 1
 562 85.9 l 1
 593.5 93 615 113.8 615 153 c 0
 615 202.4 593.2 219.2 562 233 c 1
EndSplineSet
EndChar

StartChar: percent
Encoding: 37 37 4
Width: 1100
VWidth: 999
Flags: HW
HStem: -212 76<179.2 885.174> 34 25<644.398 689.209> 209 27<670.23 720.158> 272 24<403.598 445.962> 404 34<514.729 647.685> 446 26<427.466 477.977> 718 36<188.821 875.472>
VStem: 120 36<-107.953 686.051> 344 52<296.329 421.297> 484 32<339.817 419.245> 585 51<59.7876 178.907> 726 31<101.27 205.124> 904 96<-118.923 694.8>
LayerCount: 3
Fore
SplineSet
636 106 m 0
 636 77 648 59 662 59 c 0
 701 59 726 125 726 166 c 0
 726 206 707 209 696 209 c 0
 664 209 636 149 636 106 c 0
585 117 m 0
 585 177 621 236 688 236 c 0
 724 236 757 222 757 168 c 0
 757 94 717 34 657 34 c 0
 611 34 585 68 585 117 c 0
577 438 m 0
 609 438 659 442 690 476 c 1
 725 460 l 1
 417 37 l 1
 376 46 l 1
 651 422 l 1
 621 410 592 404 570 404 c 0
 552 404 528 412 514 420 c 1
 516 414 516 410 516 404 c 0
 516 341 477 272 412 272 c 0
 366 272 344 303 344 353 c 0
 344 417 385 472 447 472 c 0
 468 472 489 466 497 457 c 1
 537 438 564 438 577 438 c 0
396 343 m 0
 396 314 407 296 420 296 c 0
 455 296 484 360 484 404 c 0
 484 440 468 446 455 446 c 0
 418 446 396 386 396 343 c 0
249 718 m 2
 189 718 156 685 156 625 c 2
 156 -53 l 2
 156 -113 189 -136 249 -136 c 2
 821 -136 l 2
 881 -136 904 -113 904 -53 c 2
 904 625 l 2
 904 685 881 718 821 718 c 2
 249 718 l 2
1000 -84 m 2
 1000 -174 971 -212 881 -212 c 2
 249 -212 l 2
 159 -212 120 -174 120 -84 c 2
 120 625 l 2
 120 708 168 754 249 754 c 2
 851 754 l 2
 941 754 1000 715 1000 625 c 2
 1000 -84 l 2
EndSplineSet
EndChar

StartChar: parenleft
Encoding: 40 40 5
Width: 1100
VWidth: 999
Flags: HW
HStem: -212 76<179.2 885.174> 718 36<188.821 875.472>
VStem: 120 36<-107.953 686.051> 437 91<136.597 366.612> 904 96<-118.923 694.8>
LayerCount: 3
Fore
SplineSet
437 252 m 0
 437 379 521 517 610 593 c 1
 634 572 l 1
 610 545 528 449 528 252 c 0
 528 55 609 -41 634 -70 c 1
 610 -90 l 1
 467 33 437 186 437 252 c 0
249 718 m 2
 189 718 156 685 156 625 c 2
 156 -53 l 2
 156 -113 189 -136 249 -136 c 2
 821 -136 l 2
 881 -136 904 -113 904 -53 c 2
 904 625 l 2
 904 685 881 718 821 718 c 2
 249 718 l 2
1000 -84 m 2
 1000 -174 971 -212 881 -212 c 2
 249 -212 l 2
 159 -212 120 -174 120 -84 c 2
 120 625 l 2
 120 708 168 754 249 754 c 2
 851 754 l 2
 941 754 1000 715 1000 625 c 2
 1000 -84 l 2
EndSplineSet
Substitution2: "'c2sc' Versale nach Kapitaelchen 1" parenleft.sc
AlternateSubs2: "'aalt' Alle Alternativen zeigen 1" parenleft.sc
Substitution2: "'sinf' Wissenschaftliche Indices 1" parenleft.inferior
Substitution2: "'sups' Hochgestellte 1" parenleft.superior
Substitution2: "'case' Versalformen 1" parenleft.sc
EndChar

StartChar: parenright
Encoding: 41 41 6
Width: 1100
VWidth: 999
Flags: HW
HStem: -212 76<179.2 885.174> 718 36<188.821 875.472>
VStem: 120 36<-107.953 686.051> 572 91<136.597 366.612> 904 96<-118.923 694.8>
LayerCount: 3
Fore
SplineSet
663 252 m 0
 663 186 633 33 490 -90 c 1
 466 -70 l 1
 491 -41 572 55 572 252 c 0
 572 449 490 545 466 572 c 1
 490 593 l 1
 579 517 663 379 663 252 c 0
249 718 m 2
 189 718 156 685 156 625 c 2
 156 -53 l 2
 156 -113 189 -136 249 -136 c 2
 821 -136 l 2
 881 -136 904 -113 904 -53 c 2
 904 625 l 2
 904 685 881 718 821 718 c 2
 249 718 l 2
1000 -84 m 2
 1000 -174 971 -212 881 -212 c 2
 249 -212 l 2
 159 -212 120 -174 120 -84 c 2
 120 625 l 2
 120 708 168 754 249 754 c 2
 851 754 l 2
 941 754 1000 715 1000 625 c 2
 1000 -84 l 2
EndSplineSet
Substitution2: "'c2sc' Versale nach Kapitaelchen 1" parenright.sc
AlternateSubs2: "'aalt' Alle Alternativen zeigen 1" parenright.sc
Substitution2: "'sinf' Wissenschaftliche Indices 1" parenright.inferior
Substitution2: "'sups' Hochgestellte 1" parenright.superior
Substitution2: "'case' Versalformen 1" parenright.sc
Colour: ff00ff
EndChar

StartChar: asterisk
Encoding: 42 42 7
Width: 1100
VWidth: 999
Flags: HMW
HStem: 574 52<482 531 619 675>
VStem: 543 58<613 681>
LayerCount: 3
Fore
SplineSet
521 441 m 1
 512 442 502 446 491 444 c 0
 457 438 430 438 430 472 c 0
 430 483 437 496 455 496 c 0
 480 496 493 471 526 457 c 1
 523 487 503 506 503 525 c 0
 503 541 518 555 532 555 c 0
 545 555 562 546 562 528 c 0
 562 508 545 480 543 457 c 1
 577 471 585 498 610 498 c 0
 633 498 639 480 639 472 c 0
 639 450 614 442 587 442 c 0
 573 442 560 442 547 440 c 1
 572 413 611 414 611 376 c 0
 611 363 597 354 587 354 c 0
 550 354 552 401 533 430 c 1
 515 396 525 354 481 354 c 0
 468 354 459 364 459 375 c 0
 459 416 497 412 521 441 c 1
249 718 m 2
 189 718 156 685 156 625 c 2
 156 -53 l 2
 156 -113 189 -136 249 -136 c 2
 821 -136 l 2
 881 -136 904 -113 904 -53 c 2
 904 625 l 2
 904 685 881 718 821 718 c 2
 249 718 l 2
1000 -84 m 2
 1000 -174 971 -212 881 -212 c 2
 249 -212 l 2
 159 -212 120 -174 120 -84 c 2
 120 625 l 2
 120 708 168 754 249 754 c 2
 851 754 l 2
 941 754 1000 715 1000 625 c 2
 1000 -84 l 2
EndSplineSet
EndChar

StartChar: plus
Encoding: 43 43 8
Width: 1100
Flags: HW
HStem: -212 76<179.2 885.174> 204 56<385 513 569 697> 718 36<188.821 875.472>
VStem: 120 36<-107.953 686.051> 513 56<82 204 260 383> 904 96<-118.923 694.8>
LayerCount: 3
Fore
SplineSet
569 260 m 1
 697 260 l 1
 697 204 l 1
 569 204 l 1
 569 82 l 1
 513 82 l 1
 513 204 l 1
 385 204 l 1
 385 260 l 1
 513 260 l 1
 513 383 l 1
 569 383 l 1
 569 260 l 1
249 718 m 2
 189 718 156 685 156 625 c 2
 156 -53 l 2
 156 -113 189 -136 249 -136 c 2
 821 -136 l 2
 881 -136 904 -113 904 -53 c 2
 904 625 l 2
 904 685 881 718 821 718 c 2
 249 718 l 2
1000 -84 m 2
 1000 -174 971 -212 881 -212 c 2
 249 -212 l 2
 159 -212 120 -174 120 -84 c 2
 120 625 l 2
 120 708 168 754 249 754 c 2
 851 754 l 2
 941 754 1000 715 1000 625 c 2
 1000 -84 l 2
EndSplineSet
AlternateSubs2: "'aalt' Alle Alternativen zeigen 1" plus.superior plus.inferior uni2098
Substitution2: "'sinf' Wissenschaftliche Indices 1" plus.inferior
Substitution2: "'sups' Hochgestellte 1" plus.superior
EndChar

StartChar: slash
Encoding: 47 47 9
Width: 1100
VWidth: 999
Flags: HW
HStem: -212 76<179.2 885.174> 29 21G<422 473.73> 538 20G<593.27 645> 718 36<188.821 875.472>
VStem: 120 36<-107.953 686.051> 904 96<-118.923 694.8>
LayerCount: 3
Fore
SplineSet
645 558 m 1
 467 29 l 1
 422 29 l 1
 600 558 l 1
 645 558 l 1
249 718 m 2
 189 718 156 685 156 625 c 2
 156 -53 l 2
 156 -113 189 -136 249 -136 c 2
 821 -136 l 2
 881 -136 904 -113 904 -53 c 2
 904 625 l 2
 904 685 881 718 821 718 c 2
 249 718 l 2
1000 -84 m 2
 1000 -174 971 -212 881 -212 c 2
 249 -212 l 2
 159 -212 120 -174 120 -84 c 2
 120 625 l 2
 120 708 168 754 249 754 c 2
 851 754 l 2
 941 754 1000 715 1000 625 c 2
 1000 -84 l 2
EndSplineSet
Ligature2: "'frac' Brueche 1" uni2215
AlternateSubs2: "'aalt' Alle Alternativen zeigen 1" uni2215
EndChar

StartChar: one
Encoding: 49 49 10
Width: 1100
VWidth: 999
Flags: HW
HStem: -212 76<179.2 885.174> 408 32<405 464.93> 718 36<188.821 875.472>
VStem: 120 36<-107.953 686.051> 500 88<43.1036 411.48> 904 96<-118.923 694.8>
LayerCount: 3
Fore
SplineSet
249 718 m 2
 189 718 156 685 156 625 c 2
 156 -53 l 2
 156 -113 189 -136 249 -136 c 2
 821 -136 l 2
 881 -136 904 -113 904 -53 c 2
 904 625 l 2
 904 685 881 718 821 718 c 2
 249 718 l 2
1000 -84 m 2
 1000 -174 971 -212 881 -212 c 2
 249 -212 l 2
 159 -212 120 -174 120 -84 c 2
 120 625 l 2
 120 708 168 754 249 754 c 2
 851 754 l 2
 941 754 1000 715 1000 625 c 2
 1000 -84 l 2
588 182 m 2
 588 123 590 86 597 41 c 1
 595 39 l 1
 595 39 570 41 543 41 c 0
 515 41 492 39 492 39 c 1
 492 41 l 1
 499 83 500 124 500 182 c 2
 500 364 l 2
 500 391 499 413 486 413 c 0
 471 413 438 412 405 408 c 1
 404 440 l 1
 473 456 542 480 591 496 c 0
 594 496 596 497 596 493 c 0
 595 483 588 452 588 371 c 2
 588 182 l 2
EndSplineSet
AlternateSubs2: "'aalt' Alle Alternativen zeigen 1" one.oldstyle one.superior one.fitted
Substitution2: "'sups' Hochgestellte 1" one.superior
Substitution2: "'sinf' Wissenschaftliche Indices 1" one.inferior
Substitution2: "'pnum' Proportionalziffern 1" one.fitted
Substitution2: "'onum' Minuskelziffern 1" one.taboldstyle
EndChar

StartChar: two
Encoding: 50 50 11
Width: 1100
VWidth: 487
Flags: HW
HStem: -212 76<179.2 885.174> 41 75<467 661.097> 456 40<441.888 538.658> 718 36<188.821 875.472>
VStem: 120 36<-107.953 686.051> 563 101<307.56 434.72> 904 96<-118.923 694.8>
DStem2: 461 194 517 180 0.721387 0.692532<-48.8965 153.33>
LayerCount: 3
Fore
SplineSet
249 718 m 2
 189 718 156 685 156 625 c 2
 156 -53 l 2
 156 -113 189 -136 249 -136 c 2
 821 -136 l 2
 881 -136 904 -113 904 -53 c 2
 904 625 l 2
 904 685 881 718 821 718 c 2
 249 718 l 2
1000 -84 m 2
 1000 -174 971 -212 881 -212 c 2
 249 -212 l 2
 159 -212 120 -174 120 -84 c 2
 120 625 l 2
 120 708 168 754 249 754 c 2
 851 754 l 2
 941 754 1000 715 1000 625 c 2
 1000 -84 l 2
499 456 m 0
 462 456 430 437 405 393 c 1
 387 393 l 1
 371 452 l 1
 373 455 l 1
 392 471 451 496 505 496 c 0
 594 496 664 460 664 379 c 0
 664 322 635 293 592 252 c 2
 517 180 l 2
 501 165 467 128 467 116 c 1
 529 116 l 2
 604 116 624 119 667 122 c 1
 665 112 663 83 663 73 c 0
 663 63 665 48 667 38 c 1
 611 40 594 41 538 41 c 0
 481 41 428 39 359 38 c 1
 358 41 l 1
 358 85 388 119 461 194 c 1
 517 249 l 1
 561 294 563 332 563 380 c 0
 563 426 526 456 499 456 c 0
EndSplineSet
AlternateSubs2: "'aalt' Alle Alternativen zeigen 1" two.oldstyle two.superior two.fitted
Substitution2: "'sups' Hochgestellte 1" two.superior
Substitution2: "'sinf' Wissenschaftliche Indices 1" two.inferior
Substitution2: "'pnum' Proportionalziffern 1" two.fitted
Substitution2: "'onum' Minuskelziffern 1" two.taboldstyle
EndChar

StartChar: three
Encoding: 51 51 12
Width: 1100
VWidth: 487
Flags: HW
HStem: -212 76<179.2 885.174> 33 39<429.887 539.571> 259 34<459 487.668> 458 38<448.201 544.347> 718 36<188.821 875.472>
VStem: 120 36<-107.953 686.051> 562 88<329.057 443.464> 570 101<101.618 239.538> 904 96<-118.923 694.8>
LayerCount: 3
Fore
SplineSet
249 718 m 2
 189 718 156 685 156 625 c 2
 156 -53 l 2
 156 -113 189 -136 249 -136 c 2
 821 -136 l 2
 881 -136 904 -113 904 -53 c 2
 904 625 l 2
 904 685 881 718 821 718 c 2
 249 718 l 2
1000 -84 m 2
 1000 -174 971 -212 881 -212 c 2
 249 -212 l 2
 159 -212 120 -174 120 -84 c 2
 120 625 l 2
 120 708 168 754 249 754 c 2
 851 754 l 2
 941 754 1000 715 1000 625 c 2
 1000 -84 l 2
489 72 m 0
 515 72 570 86 570 173 c 0
 570 244 531 260 488 260 c 0
 481 260 468 260 459 259 c 1
 459 293 l 1
 531 297 562 327 562 389 c 0
 562 429 537 458 508 458 c 0
 455 458 439 436 414 392 c 1
 396 393 l 1
 381 452 l 1
 383 455 l 1
 402 471 458 496 515 496 c 0
 584 496 650 471 650 401 c 0
 650 338 615 301 561 287 c 1
 561 284 l 1
 616 279 671 247 671 175 c 0
 671 71 578 33 488 33 c 0
 431 33 386 59 367 75 c 1
 364 78 l 1
 381 137 l 1
 399 138 l 1
 424 94 433 72 489 72 c 0
EndSplineSet
AlternateSubs2: "'aalt' Alle Alternativen zeigen 1" three.oldstyle three.superior three.fitted
Substitution2: "'sups' Hochgestellte 1" three.superior
Substitution2: "'sinf' Wissenschaftliche Indices 1" three.inferior
Substitution2: "'pnum' Proportionalziffern 1" three.fitted
Substitution2: "'onum' Minuskelziffern 1" three.taboldstyle
EndChar

StartChar: four
Encoding: 52 52 13
Width: 1100
VWidth: 487
Flags: HW
HStem: -212 76<179.2 885.174> 151 49<384 520 607 667.871> 718 36<188.821 875.472>
VStem: 120 36<-107.953 686.051> 520 87<43.0819 151 200 414.062> 904 96<-118.923 694.8>
DStem2: 334 196 384 200 0.534584 0.845115<30.1097 284.513>
LayerCount: 3
Fore
SplineSet
249 718 m 2
 189 718 156 685 156 625 c 2
 156 -53 l 2
 156 -113 189 -136 249 -136 c 2
 821 -136 l 2
 881 -136 904 -113 904 -53 c 2
 904 625 l 2
 904 685 881 718 821 718 c 2
 249 718 l 2
1000 -84 m 2
 1000 -174 971 -212 881 -212 c 2
 249 -212 l 2
 159 -212 120 -174 120 -84 c 2
 120 625 l 2
 120 708 168 754 249 754 c 2
 851 754 l 2
 941 754 1000 715 1000 625 c 2
 1000 -84 l 2
520 151 m 1
 367 151 l 2
 340 151 327 150 326 161 c 0
 326 162 321 178 334 196 c 0
 380 257 486 422 526 490 c 1
 526 492 l 1
 526 492 535 490 563 490 c 0
 590 490 613 492 613 492 c 1
 615 490 l 1
 609 445 607 437 607 378 c 2
 607 200 l 1
 661 200 l 2
 669 200 671 192 671 185 c 0
 671 176 660 151 650 151 c 2
 607 151 l 1
 607 93 609 86 615 41 c 1
 613 39 l 1
 613 39 590 41 563 41 c 0
 535 41 512 39 512 39 c 1
 511 41 l 1
 517 84 520 94 520 151 c 1
520 415 m 1
 384 200 l 1
 520 200 l 1
 520 415 l 1
EndSplineSet
AlternateSubs2: "'aalt' Alle Alternativen zeigen 1" four.oldstyle four.superior four.fitted
Substitution2: "'sups' Hochgestellte 1" four.superior
Substitution2: "'sinf' Wissenschaftliche Indices 1" four.inferior
Substitution2: "'pnum' Proportionalziffern 1" four.fitted
Substitution2: "'onum' Minuskelziffern 1" four.taboldstyle
EndChar

StartChar: five
Encoding: 53 53 14
Width: 1100
VWidth: 487
Flags: HW
HStem: -212 76<179.2 885.174> 33 37<434.318 527.679> 281 44<437.766 532.855> 416 72<447.893 627.709> 718 36<188.821 875.472>
VStem: 120 36<-107.953 686.051> 558 91<105.062 256.154> 904 96<-118.923 694.8>
LayerCount: 3
Fore
SplineSet
249 718 m 2
 189 718 156 685 156 625 c 2
 156 -53 l 2
 156 -113 189 -136 249 -136 c 2
 821 -136 l 2
 881 -136 904 -113 904 -53 c 2
 904 625 l 2
 904 685 881 718 821 718 c 2
 249 718 l 2
1000 -84 m 2
 1000 -174 971 -212 881 -212 c 2
 249 -212 l 2
 159 -212 120 -174 120 -84 c 2
 120 625 l 2
 120 708 168 754 249 754 c 2
 851 754 l 2
 941 754 1000 715 1000 625 c 2
 1000 -84 l 2
486 33 m 0
 429 33 384 59 365 75 c 1
 363 78 l 1
 378 137 l 1
 396 138 l 1
 421 94 443 70 487 70 c 0
 521 70 558 101 558 174 c 0
 558 240 532 281 486 281 c 0
 449 281 436 276 405 263 c 1
 389 268 l 1
 413 493 l 1
 439 491 469 488 497 488 c 0
 537 488 592 492 635 496 c 1
 640 494 l 1
 628 420 l 1
 597 417 557 416 535 416 c 0
 501 416 473 419 448 422 c 1
 437 313 l 1
 453 319 475 325 506 325 c 0
 590 325 649 259 649 187 c 0
 649 90 576 33 486 33 c 0
EndSplineSet
AlternateSubs2: "'aalt' Alle Alternativen zeigen 1" five.oldstyle five.superior five.fitted
Substitution2: "'sups' Hochgestellte 1" five.superior
Substitution2: "'sinf' Wissenschaftliche Indices 1" five.inferior
Substitution2: "'pnum' Proportionalziffern 1" five.fitted
Substitution2: "'onum' Minuskelziffern 1" five.taboldstyle
EndChar

StartChar: six
Encoding: 54 54 15
Width: 1100
VWidth: 487
Flags: HW
HStem: -212 76<179.2 885.174> 34 33<481.175 556.908> 275 35<460.114 557.482> 469 27<590.424 652> 718 36<188.821 875.472>
VStem: 120 36<-107.953 686.051> 358 91<113.287 285.931> 582 93<99.9382 252.93> 904 96<-118.923 694.8>
LayerCount: 3
Fore
SplineSet
249 718 m 2
 189 718 156 685 156 625 c 2
 156 -53 l 2
 156 -113 189 -136 249 -136 c 2
 821 -136 l 2
 881 -136 904 -113 904 -53 c 2
 904 625 l 2
 904 685 881 718 821 718 c 2
 249 718 l 2
1000 -84 m 2
 1000 -174 971 -212 881 -212 c 2
 249 -212 l 2
 159 -212 120 -174 120 -84 c 2
 120 625 l 2
 120 708 168 754 249 754 c 2
 851 754 l 2
 941 754 1000 715 1000 625 c 2
 1000 -84 l 2
456 290 m 1
 477 304 504 310 526 310 c 0
 642 310 675 236 675 175 c 0
 675 113 632 34 523 34 c 0
 498 34 460 37 429 57 c 0
 389 82 358 133 358 222 c 0
 358 335 453 496 652 496 c 1
 654 469 l 1
 607 465 486 454 456 290 c 1
451 254 m 1
 450 245 449 227 449 220 c 0
 449 88 486 67 526 67 c 0
 552 67 582 97 582 170 c 0
 582 207 581 275 511 275 c 0
 498 275 476 274 451 254 c 1
EndSplineSet
AlternateSubs2: "'aalt' Alle Alternativen zeigen 1" six.oldstyle six.superior six.fitted
Substitution2: "'sups' Hochgestellte 1" six.superior
Substitution2: "'sinf' Wissenschaftliche Indices 1" six.inferior
Substitution2: "'pnum' Proportionalziffern 1" six.fitted
Substitution2: "'onum' Minuskelziffern 1" six.taboldstyle
EndChar

StartChar: seven
Encoding: 55 55 16
Width: 1100
VWidth: 487
Flags: HW
HStem: -212 76<179.2 885.174> 422 66<383.693 585> 718 36<188.821 875.472>
VStem: 120 36<-107.953 686.051> 904 96<-118.923 694.8>
LayerCount: 3
Fore
SplineSet
249 718 m 2
 189 718 156 685 156 625 c 2
 156 -53 l 2
 156 -113 189 -136 249 -136 c 2
 821 -136 l 2
 881 -136 904 -113 904 -53 c 2
 904 625 l 2
 904 685 881 718 821 718 c 2
 249 718 l 2
1000 -84 m 2
 1000 -174 971 -212 881 -212 c 2
 249 -212 l 2
 159 -212 120 -174 120 -84 c 2
 120 625 l 2
 120 708 168 754 249 754 c 2
 851 754 l 2
 941 754 1000 715 1000 625 c 2
 1000 -84 l 2
585 422 m 1
 541 422 475 420 379 415 c 1
 380 426 383 444 383 455 c 0
 383 466 380 482 379 493 c 1
 410 489 492 488 603 488 c 0
 626 488 640 491 651 494 c 1
 661 479 l 1
 577 276 535 161 492 34 c 1
 427 31 l 1
 425 37 l 1
 473 145 529 283 585 422 c 1
EndSplineSet
AlternateSubs2: "'aalt' Alle Alternativen zeigen 1" seven.oldstyle seven.superior seven.fitted
Substitution2: "'sups' Hochgestellte 1" seven.superior
Substitution2: "'sinf' Wissenschaftliche Indices 1" seven.inferior
Substitution2: "'pnum' Proportionalziffern 1" seven.fitted
Substitution2: "'onum' Minuskelziffern 1" seven.taboldstyle
EndChar

StartChar: nine
Encoding: 57 57 17
Width: 1100
VWidth: 487
Flags: HW
HStem: -212 76<179.2 885.174> 33.2 27<390.208 451.784> 219.2 35<484.726 582.094> 462.2 33<485.3 561.033> 718 36<188.821 875.472>
VStem: 120 36<-107.953 686.051> 367.2 93<276.223 429.215> 593.2 91<243.222 415.866> 904 96<-118.923 694.8>
LayerCount: 3
Fore
SplineSet
249 718 m 2
 189 718 156 685 156 625 c 2
 156 -53 l 2
 156 -113 189 -136 249 -136 c 2
 821 -136 l 2
 881 -136 904 -113 904 -53 c 2
 904 625 l 2
 904 685 881 718 821 718 c 2
 249 718 l 2
1000 -84 m 2
 1000 -174 971 -212 881 -212 c 2
 249 -212 l 2
 159 -212 120 -174 120 -84 c 2
 120 625 l 2
 120 708 168 754 249 754 c 2
 851 754 l 2
 941 754 1000 715 1000 625 c 2
 1000 -84 l 2
586.2 239.2 m 1
 565.2 225.2 538.2 219.2 516.2 219.2 c 0
 400.2 219.2 367.2 293.2 367.2 354.2 c 0
 367.2 416.2 410.2 495.2 519.2 495.2 c 0
 544.2 495.2 582.2 492.2 613.2 472.2 c 0
 653.2 447.2 684.2 396.2 684.2 307.2 c 0
 684.2 194.2 589.2 33.2 390.2 33.2 c 1
 388.2 60.2 l 1
 435.2 64.2 556.2 75.2 586.2 239.2 c 1
591.2 275.2 m 1
 592.2 284.2 593.2 302.2 593.2 309.2 c 0
 593.2 441.2 556.2 462.2 516.2 462.2 c 0
 490.2 462.2 460.2 432.2 460.2 359.2 c 0
 460.2 322.2 461.2 254.2 531.2 254.2 c 0
 544.2 254.2 566.2 255.2 591.2 275.2 c 1
EndSplineSet
AlternateSubs2: "'aalt' Alle Alternativen zeigen 1" nine.oldstyle nine.superior nine.fitted
Substitution2: "'sups' Hochgestellte 1" nine.superior
Substitution2: "'sinf' Wissenschaftliche Indices 1" nine.inferior
Substitution2: "'pnum' Proportionalziffern 1" nine.fitted
Substitution2: "'onum' Minuskelziffern 1" nine.taboldstyle
Colour: ff00ff
EndChar

StartChar: colon
Encoding: 58 58 18
Width: 1100
VWidth: 999
Flags: HW
HStem: -212 76<179.2 885.174> 34 97<502.123 570.724> 246 97<502.123 570.724> 718 36<188.821 875.472>
VStem: 120 36<-107.953 686.051> 487 98<46.5645 115.833 258.564 327.833> 904 96<-118.923 694.8>
LayerCount: 3
Fore
SplineSet
487 293 m 1
 487 296 l 1
 496 319 509 333 535 343 c 1
 537 343 l 1
 562 334 576 321 585 296 c 1
 585 293 l 1
 575 265 562 252 537 246 c 1
 535 246 l 1
 507 252 495 265 487 293 c 1
487 81 m 1
 487 84 l 1
 496 107 509 121 535 131 c 1
 537 131 l 1
 562 122 576 109 585 84 c 1
 585 81 l 1
 575 53 562 40 537 34 c 1
 535 34 l 1
 507 40 495 53 487 81 c 1
249 718 m 2
 189 718 156 685 156 625 c 2
 156 -53 l 2
 156 -113 189 -136 249 -136 c 2
 821 -136 l 2
 881 -136 904 -113 904 -53 c 2
 904 625 l 2
 904 685 881 718 821 718 c 2
 249 718 l 2
1000 -84 m 2
 1000 -174 971 -212 881 -212 c 2
 249 -212 l 2
 159 -212 120 -174 120 -84 c 2
 120 625 l 2
 120 708 168 754 249 754 c 2
 851 754 l 2
 941 754 1000 715 1000 625 c 2
 1000 -84 l 2
EndSplineSet
Colour: ff00ff
EndChar

StartChar: less
Encoding: 60 60 19
Width: 1100
Flags: HW
HStem: -212 76<179.2 885.174> 354 20G<622.593 677> 718 36<188.821 875.472>
VStem: 120 36<-107.953 686.051> 904 96<-118.923 694.8>
LayerCount: 3
Fore
SplineSet
439 240 m 1
 677 153 l 1
 677 106 l 1
 356 224 l 1
 356 256 l 1
 677 374 l 1
 677 327 l 1
 439 240 l 1
249 718 m 2
 189 718 156 685 156 625 c 2
 156 -53 l 2
 156 -113 189 -136 249 -136 c 2
 821 -136 l 2
 881 -136 904 -113 904 -53 c 2
 904 625 l 2
 904 685 881 718 821 718 c 2
 249 718 l 2
1000 -84 m 2
 1000 -174 971 -212 881 -212 c 2
 249 -212 l 2
 159 -212 120 -174 120 -84 c 2
 120 625 l 2
 120 708 168 754 249 754 c 2
 851 754 l 2
 941 754 1000 715 1000 625 c 2
 1000 -84 l 2
EndSplineSet
EndChar

StartChar: equal
Encoding: 61 61 20
Width: 1100
Flags: HW
HStem: -212 76<179.2 885.174> 165 42<375 701> 258 42<375 701> 718 36<188.821 875.472>
VStem: 120 36<-107.953 686.051> 904 96<-118.923 694.8>
LayerCount: 3
Fore
SplineSet
701 207 m 1
 701 165 l 1
 375 165 l 1
 375 207 l 1
 701 207 l 1
701 300 m 1
 701 258 l 1
 375 258 l 1
 375 300 l 1
 701 300 l 1
249 718 m 2
 189 718 156 685 156 625 c 2
 156 -53 l 2
 156 -113 189 -136 249 -136 c 2
 821 -136 l 2
 881 -136 904 -113 904 -53 c 2
 904 625 l 2
 904 685 881 718 821 718 c 2
 249 718 l 2
1000 -84 m 2
 1000 -174 971 -212 881 -212 c 2
 249 -212 l 2
 159 -212 120 -174 120 -84 c 2
 120 625 l 2
 120 708 168 754 249 754 c 2
 851 754 l 2
 941 754 1000 715 1000 625 c 2
 1000 -84 l 2
EndSplineSet
AlternateSubs2: "'aalt' Alle Alternativen zeigen 1" equal.superior
Substitution2: "'sinf' Wissenschaftliche Indices 1" equal.inferior
Substitution2: "'sups' Hochgestellte 1" equal.superior
EndChar

StartChar: greater
Encoding: 62 62 21
Width: 1100
Flags: HW
HStem: -212 76<179.2 885.174> 352 20G<396 450.407> 718 36<188.821 875.472>
VStem: 120 36<-107.953 686.051> 904 96<-118.923 694.8>
LayerCount: 3
Fore
SplineSet
633 238 m 1
 396 325 l 1
 396 372 l 1
 717 254 l 1
 717 221 l 1
 396 104 l 1
 396 151 l 1
 633 238 l 1
249 718 m 2
 189 718 156 685 156 625 c 2
 156 -53 l 2
 156 -113 189 -136 249 -136 c 2
 821 -136 l 2
 881 -136 904 -113 904 -53 c 2
 904 625 l 2
 904 685 881 718 821 718 c 2
 249 718 l 2
1000 -84 m 2
 1000 -174 971 -212 881 -212 c 2
 249 -212 l 2
 159 -212 120 -174 120 -84 c 2
 120 625 l 2
 120 708 168 754 249 754 c 2
 851 754 l 2
 941 754 1000 715 1000 625 c 2
 1000 -84 l 2
EndSplineSet
Colour: ff00ff
EndChar

StartChar: question
Encoding: 63 63 22
Width: 1100
VWidth: 487
Flags: HW
HStem: -212 76<179.2 885.174> 36 93<490.932 557.77> 500 37<480.731 572.346> 718 36<188.821 875.472>
VStem: 120 36<-107.953 686.051> 477 94<47.4731 114.925> 502 34<173.004 277.211> 590 85<366.781 487.151> 904 96<-118.923 694.8>
LayerCount: 3
Fore
SplineSet
530 500 m 0
 488 500 457 464 438 430 c 1
 428 431 l 1
 416 488 l 1
 418 491 l 1
 437 506 482 537 537 537 c 0
 613 537 675 492 675 424 c 0
 675 365 616 332 581 306 c 0
 559 290 536 269 536 214 c 2
 536 185 l 2
 536 179 525 173 519 173 c 0
 513 173 502 179 502 185 c 2
 502 215 l 2
 502 248 511 292 559 336 c 0
 589 364 590 386 590 421 c 0
 590 470 573 500 530 500 c 0
477 81 m 1
 477 84 l 1
 486 106 498 119 523 129 c 1
 525 129 l 1
 549 120 562 108 571 84 c 1
 571 81 l 1
 561 54 549 42 525 36 c 1
 523 36 l 1
 496 42 485 54 477 81 c 1
249 718 m 2
 189 718 156 685 156 625 c 2
 156 -53 l 2
 156 -113 189 -136 249 -136 c 2
 821 -136 l 2
 881 -136 904 -113 904 -53 c 2
 904 625 l 2
 904 685 881 718 821 718 c 2
 249 718 l 2
1000 -84 m 2
 1000 -174 971 -212 881 -212 c 2
 249 -212 l 2
 159 -212 120 -174 120 -84 c 2
 120 625 l 2
 120 708 168 754 249 754 c 2
 851 754 l 2
 941 754 1000 715 1000 625 c 2
 1000 -84 l 2
EndSplineSet
Colour: ff80cc
EndChar

StartChar: at
Encoding: 64 64 23
Width: 1100
Flags: HW
HStem: -212 76<179.2 885.174> -52 29<473.254 640.961> 82 31<620 697.733> 90 32<489.175 554.329> 354 25<545.853 609.396> 506 27<473.322 615.749> 718 36<188.821 875.472>
VStem: 120 36<-107.953 686.051> 237 70<129.304 340.022> 405 73<127.662 274.948> 771 64<194.204 374.622> 904 96<-118.923 694.8>
LayerCount: 3
Fore
SplineSet
622 308 m 0
 622 334 604 354 585 354 c 0
 575 354 551 353 525 325 c 0
 491 289 478 238 478 191 c 0
 478 155 485 122 520 122 c 0
 543 122 580 148 601 212 c 1
 608 237 622 290 622 308 c 0
648 124 m 0
 648 114 653 113 661 113 c 0
 689 113 771 164 771 272 c 0
 771 438 633 506 546 506 c 0
 429 506 307 412 307 239 c 0
 307 128 375 -23 559 -23 c 0
 616 -23 669 -5 716 33 c 1
 725 30 730 21 732 11 c 1
 684 -25 637 -52 544 -52 c 0
 367 -52 237 62 237 233 c 0
 237 389 363 533 553 533 c 0
 722 533 835 425 835 283 c 0
 835 178 747 82 646 82 c 0
 594 82 580 109 580 125 c 1
 549 96 519 90 501 90 c 0
 414 90 405 155 405 186 c 0
 405 295 497 379 583 379 c 0
 619 379 641 366 654 350 c 1
 681 375 l 1
 702 367 l 1
 657 173 l 2
 653 154 648 132 648 124 c 0
249 718 m 2
 189 718 156 685 156 625 c 2
 156 -53 l 2
 156 -113 189 -136 249 -136 c 2
 821 -136 l 2
 881 -136 904 -113 904 -53 c 2
 904 625 l 2
 904 685 881 718 821 718 c 2
 249 718 l 2
1000 -84 m 2
 1000 -174 971 -212 881 -212 c 2
 249 -212 l 2
 159 -212 120 -174 120 -84 c 2
 120 625 l 2
 120 708 168 754 249 754 c 2
 851 754 l 2
 941 754 1000 715 1000 625 c 2
 1000 -84 l 2
EndSplineSet
EndChar

StartChar: A
Encoding: 65 65 24
Width: 1100
Flags: HW
HStem: -212 76<179.2 885.174> 207 39<431.391 608> 412 20G<493 505 520 556> 718 36<188.821 875.472>
VStem: 120 36<-107.953 686.051> 653 114<39 86.3662> 904 96<-118.923 694.8>
LayerCount: 3
Fore
SplineSet
249 718 m 2
 189 718 156 685 156 625 c 2
 156 -53 l 2
 156 -113 189 -136 249 -136 c 2
 821 -136 l 2
 881 -136 904 -113 904 -53 c 2
 904 625 l 2
 904 685 881 718 821 718 c 2
 249 718 l 2
1000 -84 m 2
 1000 -174 971 -212 881 -212 c 2
 249 -212 l 2
 159 -212 120 -174 120 -84 c 2
 120 625 l 2
 120 708 168 754 249 754 c 2
 851 754 l 2
 941 754 1000 715 1000 625 c 2
 1000 -84 l 2
512.5 414.7 m 1
 490.1 363 464.7 304.9 440.9 248 c 1
 464.7 247.7 497.2 246 519 246 c 0
 536.3 246 560 246.5 581.5 247.1 c 1
 562.9 295.1 540.1 351 512.5 414.7 c 1
423.2 205.1 m 1
 397.7 142.2 375.7 83.3 364 39 c 1
 355 41 338 41 330 41 c 0
 322 41 297 41 288 39 c 1
 364 204 437 368 509 534 c 1
 562 534 l 1
 631 370 730 114 767 39 c 1
 754 41 719 41 706 41 c 0
 694 41 666 41 653 39 c 1
 648.7 54.9 632.5 111.1 597.2 205.6 c 1
 572.6 206.3 546.6 207 523 207 c 0
 496 207 452.3 206.1 423.2 205.1 c 1
EndSplineSet
Position2: "'cpsp' Versalabstaende 1" dx=2 dy=0 dh=4 dv=0
Substitution2: "'c2sc' Versale nach Kapitaelchen 1" a.sc
EndChar

StartChar: B
Encoding: 66 66 25
Width: 1100
VWidth: 999
Flags: HW
HStem: -212 76<179.2 885.174> 38 40<428.22 600.129> 282 40<450 572.201> 487 40<427.486 572.051> 718 36<188.821 875.472>
VStem: 120 36<-107.953 686.051> 354 96<82.0339 282 322 482.08> 589 97<350.844 472.34> 624 106<111.494 247.948> 904 96<-118.923 694.8>
LayerCount: 3
Fore
SplineSet
450 453 m 2
 450 322 l 1
 504 322 l 2
 567 322 589 338 589 401 c 0
 589 478 556 487 514 487 c 0
 453 487 450 478 450 453 c 2
450 282 m 1
 450 113 l 2
 450 89 459 78 511 78 c 0
 612 78 624 110 624 164 c 0
 624 232 603 282 516 282 c 2
 450 282 l 1
402 524 m 0
 444 524 483 527 509 527 c 0
 648 527 686 461 686 410 c 0
 686 369 654 329 616 311 c 1
 681 292 730 251 730 179 c 0
 730 114 675 38 525 38 c 0
 459 38 450 41 402 41 c 0
 376 41 348 38 348 38 c 1
 347 41 l 1
 353 81 354 134 354 191 c 2
 354 374 l 2
 354 431 353 482 347 524 c 1
 348 527 l 1
 348 527 377 524 402 524 c 0
249 718 m 2
 189 718 156 685 156 625 c 2
 156 -53 l 2
 156 -113 189 -136 249 -136 c 2
 821 -136 l 2
 881 -136 904 -113 904 -53 c 2
 904 625 l 2
 904 685 881 718 821 718 c 2
 249 718 l 2
1000 -84 m 2
 1000 -174 971 -212 881 -212 c 2
 249 -212 l 2
 159 -212 120 -174 120 -84 c 2
 120 625 l 2
 120 708 168 754 249 754 c 2
 851 754 l 2
 941 754 1000 715 1000 625 c 2
 1000 -84 l 2
EndSplineSet
Position2: "'cpsp' Versalabstaende 1" dx=2 dy=0 dh=4 dv=0
Substitution2: "'c2sc' Versale nach Kapitaelchen 1" b.sc
EndChar

StartChar: C
Encoding: 67 67 26
Width: 1100
VWidth: 999
Flags: HW
HStem: -212 76<179.2 885.174> 34 54<477.019 637.148> 490 44<473.213 628.354> 718 36<188.821 875.472>
VStem: 120 36<-107.953 686.051> 292 109<175.289 390.555> 904 96<-118.923 694.8>
LayerCount: 3
Fore
SplineSet
551 534 m 0
 642 534 722 501 722 501 c 1
 724 498 l 1
 715 462 711 439 709 401 c 1
 691 400 l 1
 660 462 608 490 540 490 c 0
 479 490 401 444 401 292 c 0
 401 182 443.9 88 550 88 c 0
 620 88 671 104 724 163 c 1
 741 135 l 1
 690 68 608 34 536 34 c 0
 374 34 292 144 292 286 c 0
 292 439 409 534 551 534 c 0
249 718 m 2
 189 718 156 685 156 625 c 2
 156 -53 l 2
 156 -113 189 -136 249 -136 c 2
 821 -136 l 2
 881 -136 904 -113 904 -53 c 2
 904 625 l 2
 904 685 881 718 821 718 c 2
 249 718 l 2
1000 -84 m 2
 1000 -174 971 -212 881 -212 c 2
 249 -212 l 2
 159 -212 120 -174 120 -84 c 2
 120 625 l 2
 120 708 168 754 249 754 c 2
 851 754 l 2
 941 754 1000 715 1000 625 c 2
 1000 -84 l 2
EndSplineSet
Position2: "'cpsp' Versalabstaende 1" dx=2 dy=0 dh=4 dv=0
Substitution2: "'c2sc' Versale nach Kapitaelchen 1" c.sc
EndChar

StartChar: D
Encoding: 68 68 27
Width: 1100
VWidth: 999
Flags: HW
HStem: -212 76<179.2 885.174> 39 40<390.892 603.655> 487 40<391.204 570.023> 718 36<188.821 875.472>
VStem: 120 36<-107.953 686.051> 317 96<84.256 482.08> 671 109<168.174 364.322> 904 96<-118.923 694.8>
LayerCount: 3
Fore
SplineSet
413 109 m 2
 413 85 421 79 495 79 c 0
 600 79 671 102 671 254 c 0
 671 369 638 487 476 487 c 0
 439 487 413 483 413 457 c 2
 413 109 l 2
365 524 m 0
 420 524 450 527 504 527 c 0
 648 527 780 411 780 272 c 0
 780 87 624 39 518 39 c 0
 441 39 425 41 365 41 c 0
 339 41 310 38 310 38 c 1
 309 41 l 1
 315 81 317 134 317 191 c 2
 317 374 l 2
 317 431 315 482 309 524 c 1
 311 527 l 1
 311 527 339 524 365 524 c 0
249 718 m 2
 189 718 156 685 156 625 c 2
 156 -53 l 2
 156 -113 189 -136 249 -136 c 2
 821 -136 l 2
 881 -136 904 -113 904 -53 c 2
 904 625 l 2
 904 685 881 718 821 718 c 2
 249 718 l 2
1000 -84 m 2
 1000 -174 971 -212 881 -212 c 2
 249 -212 l 2
 159 -212 120 -174 120 -84 c 2
 120 625 l 2
 120 708 168 754 249 754 c 2
 851 754 l 2
 941 754 1000 715 1000 625 c 2
 1000 -84 l 2
EndSplineSet
Position2: "'cpsp' Versalabstaende 1" dx=2 dy=0 dh=4 dv=0
Substitution2: "'c2sc' Versale nach Kapitaelchen 1" d.sc
EndChar

StartChar: E
Encoding: 69 69 28
Width: 1100
VWidth: 999
Flags: HW
HStem: -212 76<179.2 885.174> 41 47<455.953 670.434> 278 38<453 617.588> 472 21G<459 665> 481 43<456.105 662.434> 718 36<188.821 875.472>
VStem: 120 36<-107.953 686.051> 357 96<88.8829 278 316 479.855> 904 96<-118.923 694.8>
LayerCount: 3
Fore
SplineSet
453 191 m 2
 453 178 454 106 459 88 c 1
 560 88 671 97 671 97 c 1
 672 94 l 1
 672 88 671 75 671 68 c 0
 671 60 672 51 672 41 c 1
 671 38 l 1
 659 40 642 41 626 41 c 2
 405 41 l 2
 379 41 350 38 350 38 c 1
 350 41 l 1
 356 81 357 134 357 191 c 2
 357 374 l 2
 357 431 356 482 350 524 c 1
 351 527 l 1
 351 527 380 524 405 524 c 0
 428 524 618 524 618 524 c 2
 634 524 651 525 663 527 c 1
 665 524 l 1
 664 514 663 504 663 498 c 0
 663 491 664 481 665 475 c 1
 663 472 l 1
 663 472 560 481 459 481 c 1
 454 463 453 387 453 374 c 2
 453 316 l 1
 542 316 576 320 620 323 c 1
 623 321 l 1
 621 314 620 304 620 297 c 0
 620 290 621 279 623 272 c 1
 620 270 l 1
 569 275 489 278 453 278 c 1
 453 191 l 2
249 718 m 2
 189 718 156 685 156 625 c 2
 156 -53 l 2
 156 -113 189 -136 249 -136 c 2
 821 -136 l 2
 881 -136 904 -113 904 -53 c 2
 904 625 l 2
 904 685 881 718 821 718 c 2
 249 718 l 2
1000 -84 m 2
 1000 -174 971 -212 881 -212 c 2
 249 -212 l 2
 159 -212 120 -174 120 -84 c 2
 120 625 l 2
 120 708 168 754 249 754 c 2
 851 754 l 2
 941 754 1000 715 1000 625 c 2
 1000 -84 l 2
EndSplineSet
Position2: "'cpsp' Versalabstaende 1" dx=2 dy=0 dh=4 dv=0
Substitution2: "'c2sc' Versale nach Kapitaelchen 1" e.sc
EndChar

StartChar: F
Encoding: 70 70 29
Width: 1100
VWidth: 999
Flags: HW
HStem: -212 76<179.2 885.174> 278 38<464 628.588> 472 21G<470 676> 481 43<467.105 673.434> 718 36<188.821 875.472>
VStem: 120 36<-107.953 686.051> 368 96<42.9753 278 316 479.855> 904 96<-118.923 694.8>
LayerCount: 3
Fore
SplineSet
627 524 m 2
 645 524 662 525 674 527 c 1
 676 524 l 1
 675 514 674 504 674 498 c 0
 674 491 675 481 676 475 c 1
 674 472 l 1
 674 472 570 481 470 481 c 1
 465 463 464 387 464 374 c 2
 464 316 l 1
 552 316 587 320 631 323 c 1
 634 321 l 1
 632 314 631 304 631 297 c 0
 631 290 632 279 634 272 c 1
 631 270 l 1
 580 275 500 278 464 278 c 1
 464 191 l 2
 464 134 466 83 472 41 c 1
 470 38 l 1
 470 38 442 41 416 41 c 0
 390 41 361 38 361 38 c 1
 360 41 l 1
 366 81 368 134 368 191 c 2
 368 374 l 2
 368 431 366 482 360 524 c 1
 362 527 l 1
 362 527 390 524 416 524 c 2
 627 524 l 2
249 718 m 2
 189 718 156 685 156 625 c 2
 156 -53 l 2
 156 -113 189 -136 249 -136 c 2
 821 -136 l 2
 881 -136 904 -113 904 -53 c 2
 904 625 l 2
 904 685 881 718 821 718 c 2
 249 718 l 2
1000 -84 m 2
 1000 -174 971 -212 881 -212 c 2
 249 -212 l 2
 159 -212 120 -174 120 -84 c 2
 120 625 l 2
 120 708 168 754 249 754 c 2
 851 754 l 2
 941 754 1000 715 1000 625 c 2
 1000 -84 l 2
EndSplineSet
Position2: "'cpsp' Versalabstaende 1" dx=2 dy=0 dh=4 dv=0
Substitution2: "'c2sc' Versale nach Kapitaelchen 1" f.sc
EndChar

StartChar: G
Encoding: 71 71 30
Width: 1100
VWidth: 999
Flags: HW
HStem: -212 76<179.2 885.174> 34 41<484.508 653.713> 493 41<477.706 636.457> 718 36<188.821 875.472>
VStem: 120 36<-107.953 686.051> 294 108<171.651 394.241> 664 96<103.284 268.984> 904 96<-118.923 694.8>
LayerCount: 3
Fore
SplineSet
664 129 m 2
 664 185 663 228 657 271 c 1
 658 274 l 1
 658 274 687 271 712 271 c 0
 738 271 767 274 767 274 c 1
 767 271 l 1
 761 232 760 200 760 144 c 0
 760 119 763 109 767 103 c 1
 767 101 l 1
 717 59 635 34 547 34 c 0
 373.9 34 294 152 294 281 c 0
 294 446 402 534 561 534 c 0
 652 534 740 501 740 501 c 1
 742 498 l 1
 733 462 729 439 727 401 c 1
 708 400 l 1
 677 462 618 493 550 493 c 0
 458 493 402 418 402 286 c 0
 402 187 431 75 564 75 c 0
 605 75 639 79 664 103 c 1
 664 129 l 2
249 718 m 2
 189 718 156 685 156 625 c 2
 156 -53 l 2
 156 -113 189 -136 249 -136 c 2
 821 -136 l 2
 881 -136 904 -113 904 -53 c 2
 904 625 l 2
 904 685 881 718 821 718 c 2
 249 718 l 2
1000 -84 m 2
 1000 -174 971 -212 881 -212 c 2
 249 -212 l 2
 159 -212 120 -174 120 -84 c 2
 120 625 l 2
 120 708 168 754 249 754 c 2
 851 754 l 2
 941 754 1000 715 1000 625 c 2
 1000 -84 l 2
EndSplineSet
Position2: "'cpsp' Versalabstaende 1" dx=2 dy=0 dh=4 dv=0
Substitution2: "'c2sc' Versale nach Kapitaelchen 1" g.sc
EndChar

StartChar: grave
Encoding: 96 96 31
Width: 1100
VWidth: 999
Flags: HW
HStem: -212 76<179.2 885.174> 718 36<188.821 875.472>
VStem: 120 36<-107.953 686.051> 904 96<-118.923 694.8>
LayerCount: 3
Fore
SplineSet
532 513 m 1
 584 421 l 2
 587 415 590 407 590 401 c 0
 590 394 584 389 578 389 c 0
 572 389 564 393 551 404 c 2
 461 483 l 1
 462 491 l 1
 468 498 490 515 517 515 c 0
 521 515 529 514 532 513 c 1
249 718 m 2
 189 718 156 685 156 625 c 2
 156 -53 l 2
 156 -113 189 -136 249 -136 c 2
 821 -136 l 2
 881 -136 904 -113 904 -53 c 2
 904 625 l 2
 904 685 881 718 821 718 c 2
 249 718 l 2
1000 -84 m 2
 1000 -174 971 -212 881 -212 c 2
 249 -212 l 2
 159 -212 120 -174 120 -84 c 2
 120 625 l 2
 120 708 168 754 249 754 c 2
 851 754 l 2
 941 754 1000 715 1000 625 c 2
 1000 -84 l 2
EndSplineSet
Substitution2: "'case' Versalformen 1" grave.cap
Colour: ff00ff
EndChar

StartChar: ograve
Encoding: 242 242 32
Width: 1100
VWidth: 999
Flags: HW
HStem: -212 76<179.2 885.174> 36 38<494.054 584.681> 335 38<483.205 580.515> 718 36<188.821 875.472>
VStem: 120 36<-107.953 686.051> 363 96<115.833 287.865> 609 96<119.743 292.728> 904 96<-118.923 694.8>
LayerCount: 3
Fore
SplineSet
544.7 588.1 m 1
 601.8 486.9 l 2
 605.1 480.3 608.5 471.5 608.5 464.9 c 0
 608.5 457.2 601.8 451.7 595.2 451.7 c 0
 588.6 451.7 579.8 456.1 565.5 468.2 c 2
 466.5 555.1 l 1
 467.7 563.9 l 1
 474.3 571.6 498.5 590.3 528.2 590.3 c 0
 532.6 590.3 541.4 589.2 544.7 588.1 c 1
363 197 m 0
 363 300 428 373 536 373 c 0
 662 373 705 282 705 204 c 0
 705 124 649 36 534 36 c 0
 422 36 363 115 363 197 c 0
530 335 m 0
 466 335 459 280 459 215 c 0
 459 157 466 74 544 74 c 0
 578 74 609 98 609 184 c 0
 609 288 594 335 530 335 c 0
249 718 m 2
 189 718 156 685 156 625 c 2
 156 -53 l 2
 156 -113 189 -136 249 -136 c 2
 821 -136 l 2
 881 -136 904 -113 904 -53 c 2
 904 625 l 2
 904 685 881 718 821 718 c 2
 249 718 l 2
1000 -84 m 2
 1000 -174 971 -212 881 -212 c 2
 249 -212 l 2
 159 -212 120 -174 120 -84 c 2
 120 625 l 2
 120 708 168 754 249 754 c 2
 851 754 l 2
 941 754 1000 715 1000 625 c 2
 1000 -84 l 2
EndSplineSet
Substitution2: "'smcp' Gemeine nach Kapitaelchen 1" ograve.sc
AlternateSubs2: "'aalt' Alle Alternativen zeigen 1" ograve.sc
Colour: ff00ff
EndChar

StartChar: oacute
Encoding: 243 243 33
Width: 1100
VWidth: 999
Flags: HW
HStem: -212 76<179.2 885.174> 36 38<494.054 584.681> 335 38<483.205 580.515> 718 36<188.821 875.472>
VStem: 120 36<-107.953 686.051> 363 96<115.833 287.865> 609 96<119.743 292.728> 904 96<-118.923 694.8>
LayerCount: 3
Fore
SplineSet
533.3 578.2 m 1
 535.5 579.3 542.1 580.5 546.5 580.5 c 0
 571.8 580.5 587.2 568.4 593.8 560.7 c 1
 601.5 540.8 l 1
 502.5 451.8 l 2
 491.5 441.9 479.4 438.5 471.7 438.5 c 0
 465.1 438.5 458.5 445.2 458.5 450.7 c 0
 458.5 455.1 459.6 462.8 465.1 470.5 c 2
 533.3 578.2 l 1
363 197 m 0
 363 300 428 373 536 373 c 0
 662 373 705 282 705 204 c 0
 705 124 649 36 534 36 c 0
 422 36 363 115 363 197 c 0
530 335 m 0
 466 335 459 280 459 215 c 0
 459 157 466 74 544 74 c 0
 578 74 609 98 609 184 c 0
 609 288 594 335 530 335 c 0
249 718 m 2
 189 718 156 685 156 625 c 2
 156 -53 l 2
 156 -113 189 -136 249 -136 c 2
 821 -136 l 2
 881 -136 904 -113 904 -53 c 2
 904 625 l 2
 904 685 881 718 821 718 c 2
 249 718 l 2
1000 -84 m 2
 1000 -174 971 -212 881 -212 c 2
 249 -212 l 2
 159 -212 120 -174 120 -84 c 2
 120 625 l 2
 120 708 168 754 249 754 c 2
 851 754 l 2
 941 754 1000 715 1000 625 c 2
 1000 -84 l 2
EndSplineSet
Substitution2: "'smcp' Gemeine nach Kapitaelchen 1" oacute.sc
AlternateSubs2: "'aalt' Alle Alternativen zeigen 1" oacute.sc
Colour: ff00ff
EndChar

StartChar: ocircumflex
Encoding: 244 244 34
Width: 1100
VWidth: 999
Flags: HW
HStem: -212 76<179.2 885.174> 36 38<494.054 584.681> 335 38<483.205 580.515> 718 36<188.821 875.472>
VStem: 120 36<-107.953 686.051> 363 96<115.833 287.865> 412 190<537 537> 609 96<119.743 292.728> 904 96<-118.923 694.8>
LayerCount: 3
Fore
SplineSet
548 548.8 m 1
 573.3 508.1 604 471.8 634.8 437.7 c 1
 614 422.2 l 1
 578.8 444.2 554.6 460.8 526 490.5 c 1
 495.2 458.6 472 444.2 439 422.2 c 1
 418.2 437.7 l 1
 447.9 471.8 480.8 509.2 505 548.8 c 1
 548 548.8 l 1
363 197 m 0
 363 300 428 373 536 373 c 0
 662 373 705 282 705 204 c 0
 705 124 649 36 534 36 c 0
 422 36 363 115 363 197 c 0
530 335 m 0
 466 335 459 280 459 215 c 0
 459 157 466 74 544 74 c 0
 578 74 609 98 609 184 c 0
 609 288 594 335 530 335 c 0
249 718 m 2
 189 718 156 685 156 625 c 2
 156 -53 l 2
 156 -113 189 -136 249 -136 c 2
 821 -136 l 2
 881 -136 904 -113 904 -53 c 2
 904 625 l 2
 904 685 881 718 821 718 c 2
 249 718 l 2
1000 -84 m 2
 1000 -174 971 -212 881 -212 c 2
 249 -212 l 2
 159 -212 120 -174 120 -84 c 2
 120 625 l 2
 120 708 168 754 249 754 c 2
 851 754 l 2
 941 754 1000 715 1000 625 c 2
 1000 -84 l 2
EndSplineSet
Substitution2: "'smcp' Gemeine nach Kapitaelchen 1" ocircumflex.sc
AlternateSubs2: "'aalt' Alle Alternativen zeigen 1" ocircumflex.sc
Colour: ff00ff
EndChar

StartChar: otilde
Encoding: 245 245 35
Width: 1100
VWidth: 999
Flags: HW
HStem: -212 76<179.2 885.174> 36 38<494.054 584.681> 335 38<483.205 580.515> 441 45<535 600> 483 46<443 510> 718 36<188.821 875.472>
VStem: 120 36<-107.953 686.051> 363 96<115.833 287.865> 414 20<448 467> 609 96<119.743 292.728> 610 20<504 524> 904 96<-118.923 694.8>
LayerCount: 3
Fore
SplineSet
578 486.1 m 0
 596.7 486.1 606.7 492.7 618.8 533.4 c 1
 641.8 525.7 l 1
 630.8 469.6 606.6 436.6 567 436.6 c 0
 547.2 436.6 529.7 448.7 513.2 460.8 c 0
 496.7 471.8 480.2 482.8 464.8 482.8 c 0
 442.8 482.8 434 470.7 425.2 438.8 c 1
 403.2 445.4 l 1
 415.3 501.5 435 532.3 471.3 532.3 c 0
 497.7 532.3 516.5 519.1 533 505.9 c 0
 547.3 494.9 561.5 486.1 578 486.1 c 0
363 197 m 0
 363 300 428 373 536 373 c 0
 662 373 705 282 705 204 c 0
 705 124 649 36 534 36 c 0
 422 36 363 115 363 197 c 0
530 335 m 0
 466 335 459 280 459 215 c 0
 459 157 466 74 544 74 c 0
 578 74 609 98 609 184 c 0
 609 288 594 335 530 335 c 0
249 718 m 2
 189 718 156 685 156 625 c 2
 156 -53 l 2
 156 -113 189 -136 249 -136 c 2
 821 -136 l 2
 881 -136 904 -113 904 -53 c 2
 904 625 l 2
 904 685 881 718 821 718 c 2
 249 718 l 2
1000 -84 m 2
 1000 -174 971 -212 881 -212 c 2
 249 -212 l 2
 159 -212 120 -174 120 -84 c 2
 120 625 l 2
 120 708 168 754 249 754 c 2
 851 754 l 2
 941 754 1000 715 1000 625 c 2
 1000 -84 l 2
EndSplineSet
Substitution2: "'smcp' Gemeine nach Kapitaelchen 1" otilde.sc
AlternateSubs2: "'aalt' Alle Alternativen zeigen 1" otilde.sc
Colour: ff00ff
EndChar

StartChar: odieresis
Encoding: 246 246 36
Width: 1100
VWidth: 999
Flags: HW
HStem: -212 76<179.2 885.174> 36 38<494.054 584.681> 335 38<483.205 580.515> 427 89.1<419.844 495.857 569.143 645.156> 718 36<188.821 875.472>
VStem: 120 36<-107.953 686.051> 363 96<115.833 287.865> 413.2 89.1<433.907 509.042> 562.8 89.1<433.907 509.042> 609 96<119.743 292.728> 904 96<-118.923 694.8>
LayerCount: 3
Fore
SplineSet
562.8 471 m 0
 562.8 496.3 582.6 516.1 606.8 516.1 c 0
 631 516.1 651.9 496.3 651.9 471 c 0
 651.9 446.8 631 427 606.8 427 c 0
 582.6 427 562.8 446.8 562.8 471 c 0
413.2 471 m 0
 413.2 496.3 434 516.1 458.2 516.1 c 0
 482.4 516.1 502.3 496.3 502.3 471 c 0
 502.3 446.8 482.4 427 458.2 427 c 0
 434 427 413.2 446.8 413.2 471 c 0
363 197 m 0
 363 300 428 373 536 373 c 0
 662 373 705 282 705 204 c 0
 705 124 649 36 534 36 c 0
 422 36 363 115 363 197 c 0
530 335 m 0
 466 335 459 280 459 215 c 0
 459 157 466 74 544 74 c 0
 578 74 609 98 609 184 c 0
 609 288 594 335 530 335 c 0
249 718 m 2
 189 718 156 685 156 625 c 2
 156 -53 l 2
 156 -113 189 -136 249 -136 c 2
 821 -136 l 2
 881 -136 904 -113 904 -53 c 2
 904 625 l 2
 904 685 881 718 821 718 c 2
 249 718 l 2
1000 -84 m 2
 1000 -174 971 -212 881 -212 c 2
 249 -212 l 2
 159 -212 120 -174 120 -84 c 2
 120 625 l 2
 120 708 168 754 249 754 c 2
 851 754 l 2
 941 754 1000 715 1000 625 c 2
 1000 -84 l 2
EndSplineSet
Substitution2: "'smcp' Gemeine nach Kapitaelchen 1" odieresis.sc
AlternateSubs2: "'aalt' Alle Alternativen zeigen 1" odieresis.sc
Colour: ff00ff
EndChar

StartChar: divide
Encoding: 247 247 37
Width: 527
VWidth: 999
Flags: HW
HStem: -212 76<-60.7998 645.174> 60 86<238.182 303.644> 191 57<100 427> 285 86<238.746 303.104> 718 36<-51.179 635.472>
VStem: -120 36<-107.953 686.051> 227 87<69.334 134.346 294.018 359.029> 664 96<-118.923 694.8>
LayerCount: 3
Fore
SplineSet
227 326 m 1
 227 329 l 1
 235 349 247 362 270 371 c 1
 272 371 l 1
 294 363 306 351 314 329 c 1
 314 326 l 1
 305 301 294 291 272 285 c 1
 270 285 l 1
 245 291 234 301 227 326 c 1
227 102 m 1
 227 105 l 1
 235 125 247 137 270 146 c 1
 272 146 l 1
 294 138 306 127 314 105 c 1
 314 102 l 1
 305 77 294 66 272 60 c 1
 270 60 l 1
 245 66 234 77 227 102 c 1
427 248 m 1
 427 191 l 1
 100 191 l 1
 100 248 l 1
 427 248 l 1
9 718 m 2
 -51 718 -84 685 -84 625 c 2
 -84 -53 l 2
 -84 -113 -51 -136 9 -136 c 2
 581 -136 l 2
 641 -136 664 -113 664 -53 c 2
 664 625 l 2
 664 685 641 718 581 718 c 2
 9 718 l 2
760 -84 m 2
 760 -174 731 -212 641 -212 c 2
 9 -212 l 2
 -81 -212 -120 -174 -120 -84 c 2
 -120 625 l 2
 -120 708 -72 754 9 754 c 2
 611 754 l 2
 701 754 760 715 760 625 c 2
 760 -84 l 2
EndSplineSet
Colour: ff00ff
EndChar

StartChar: ugrave
Encoding: 249 249 38
Width: 1100
VWidth: 999
Flags: HW
HStem: -212 76<179.2 885.174> 35 48<474.899 551.764> 718 36<188.821 875.472>
VStem: 120 36<-107.953 686.051> 375 89<92.9125 362.036> 588 89<115.094 362.036> 904 96<-118.923 694.8>
LayerCount: 3
Fore
SplineSet
510.7 588.1 m 1
 567.8 486.9 l 2
 571.1 480.3 574.5 471.5 574.5 464.9 c 0
 574.5 457.2 567.8 451.7 561.2 451.7 c 0
 554.6 451.7 545.8 456.1 531.5 468.2 c 2
 432.5 555.1 l 1
 433.7 563.9 l 1
 440.3 571.6 464.5 590.3 494.2 590.3 c 0
 498.6 590.3 507.4 589.2 510.7 588.1 c 1
588 91 m 1
 546 46 523 35 492 35 c 0
 418 35 375 86 375 137 c 2
 375 230 l 2
 375 286 374 322 368 364 c 1
 369 367 l 1
 369 367 394 364 419 364 c 0
 446 364 470 367 470 367 c 1
 471 364 l 1
 464 325 464 286 464 230 c 2
 464 162 l 2
 464 95 489 83 512 83 c 0
 545 83 569 116 588 139 c 1
 588 230 l 2
 588 286 587 322 581 364 c 1
 582 367 l 1
 582 367 607 364 632 364 c 0
 659 364 683 367 683 367 c 1
 684 364 l 1
 677 325 677 286 677 230 c 2
 677 187 l 2
 677 130 683 75 689 43 c 1
 688 40 l 1
 678 42 650 43 640 43 c 0
 629 43 610 42 600 40 c 0
 596 40 593 41 593 43 c 2
 590 91 l 1
 588 91 l 1
249 718 m 2
 189 718 156 685 156 625 c 2
 156 -53 l 2
 156 -113 189 -136 249 -136 c 2
 821 -136 l 2
 881 -136 904 -113 904 -53 c 2
 904 625 l 2
 904 685 881 718 821 718 c 2
 249 718 l 2
1000 -84 m 2
 1000 -174 971 -212 881 -212 c 2
 249 -212 l 2
 159 -212 120 -174 120 -84 c 2
 120 625 l 2
 120 708 168 754 249 754 c 2
 851 754 l 2
 941 754 1000 715 1000 625 c 2
 1000 -84 l 2
EndSplineSet
Substitution2: "'smcp' Gemeine nach Kapitaelchen 1" ugrave.sc
AlternateSubs2: "'aalt' Alle Alternativen zeigen 1" ugrave.sc
Colour: ff00ff
EndChar

StartChar: uacute
Encoding: 250 250 39
Width: 1100
VWidth: 999
Flags: HW
HStem: -212 76<179.2 885.174> 35 48<474.899 551.764> 718 36<188.821 875.472>
VStem: 120 36<-107.953 686.051> 375 89<92.9125 362.036> 588 89<115.094 362.036> 904 96<-118.923 694.8>
LayerCount: 3
Fore
SplineSet
543.3 578.2 m 1
 545.5 579.3 552.1 580.5 556.5 580.5 c 0
 581.8 580.5 597.2 568.4 603.8 560.7 c 1
 611.5 540.8 l 1
 512.5 451.8 l 2
 501.5 441.9 489.4 438.5 481.7 438.5 c 0
 475.1 438.5 468.5 445.2 468.5 450.7 c 0
 468.5 455.1 469.6 462.8 475.1 470.5 c 2
 543.3 578.2 l 1
588 91 m 1
 546 46 523 35 492 35 c 0
 418 35 375 86 375 137 c 2
 375 230 l 2
 375 286 374 322 368 364 c 1
 369 367 l 1
 369 367 394 364 419 364 c 0
 446 364 470 367 470 367 c 1
 471 364 l 1
 464 325 464 286 464 230 c 2
 464 162 l 2
 464 95 489 83 512 83 c 0
 545 83 569 116 588 139 c 1
 588 230 l 2
 588 286 587 322 581 364 c 1
 582 367 l 1
 582 367 607 364 632 364 c 0
 659 364 683 367 683 367 c 1
 684 364 l 1
 677 325 677 286 677 230 c 2
 677 187 l 2
 677 130 683 75 689 43 c 1
 688 40 l 1
 678 42 650 43 640 43 c 0
 629 43 610 42 600 40 c 0
 596 40 593 41 593 43 c 2
 590 91 l 1
 588 91 l 1
249 718 m 2
 189 718 156 685 156 625 c 2
 156 -53 l 2
 156 -113 189 -136 249 -136 c 2
 821 -136 l 2
 881 -136 904 -113 904 -53 c 2
 904 625 l 2
 904 685 881 718 821 718 c 2
 249 718 l 2
1000 -84 m 2
 1000 -174 971 -212 881 -212 c 2
 249 -212 l 2
 159 -212 120 -174 120 -84 c 2
 120 625 l 2
 120 708 168 754 249 754 c 2
 851 754 l 2
 941 754 1000 715 1000 625 c 2
 1000 -84 l 2
EndSplineSet
Substitution2: "'smcp' Gemeine nach Kapitaelchen 1" uacute.sc
AlternateSubs2: "'aalt' Alle Alternativen zeigen 1" uacute.sc
Colour: ff00ff
EndChar

StartChar: ucircumflex
Encoding: 251 251 40
Width: 1100
VWidth: 999
Flags: HW
HStem: -212 76<179.2 885.174> 35 48<474.899 551.764> 718 36<188.821 875.472>
VStem: 120 36<-107.953 686.051> 375 89<92.9125 362.036> 407 190<537 537> 588 89<115.094 362.036> 904 96<-118.923 694.8>
LayerCount: 3
Fore
SplineSet
543 548.8 m 1
 568.3 508.1 599 471.8 629.8 437.7 c 1
 609 422.2 l 1
 573.8 444.2 549.6 460.8 521 490.5 c 1
 490.2 458.6 467 444.2 434 422.2 c 1
 413.2 437.7 l 1
 442.9 471.8 475.8 509.2 500 548.8 c 1
 543 548.8 l 1
588 91 m 1
 546 46 523 35 492 35 c 0
 418 35 375 86 375 137 c 2
 375 230 l 2
 375 286 374 322 368 364 c 1
 369 367 l 1
 369 367 394 364 419 364 c 0
 446 364 470 367 470 367 c 1
 471 364 l 1
 464 325 464 286 464 230 c 2
 464 162 l 2
 464 95 489 83 512 83 c 0
 545 83 569 116 588 139 c 1
 588 230 l 2
 588 286 587 322 581 364 c 1
 582 367 l 1
 582 367 607 364 632 364 c 0
 659 364 683 367 683 367 c 1
 684 364 l 1
 677 325 677 286 677 230 c 2
 677 187 l 2
 677 130 683 75 689 43 c 1
 688 40 l 1
 678 42 650 43 640 43 c 0
 629 43 610 42 600 40 c 0
 596 40 593 41 593 43 c 2
 590 91 l 1
 588 91 l 1
249 718 m 2
 189 718 156 685 156 625 c 2
 156 -53 l 2
 156 -113 189 -136 249 -136 c 2
 821 -136 l 2
 881 -136 904 -113 904 -53 c 2
 904 625 l 2
 904 685 881 718 821 718 c 2
 249 718 l 2
1000 -84 m 2
 1000 -174 971 -212 881 -212 c 2
 249 -212 l 2
 159 -212 120 -174 120 -84 c 2
 120 625 l 2
 120 708 168 754 249 754 c 2
 851 754 l 2
 941 754 1000 715 1000 625 c 2
 1000 -84 l 2
EndSplineSet
Substitution2: "'smcp' Gemeine nach Kapitaelchen 1" ucircumflex.sc
AlternateSubs2: "'aalt' Alle Alternativen zeigen 1" ucircumflex.sc
Colour: ff00ff
EndChar

StartChar: ebreve
Encoding: 277 277 41
Width: 1100
VWidth: 999
Flags: HW
HStem: -212 76<179.2 885.174> 36 51<502.912 627.15> 226 33<463 580.998> 336 37<491.543 570.209> 422 58<474.77 591.699> 718 36<188.821 875.472>
VStem: 120 36<-107.953 686.051> 366 95<132.814 226 259 277.396> 428 25<512.265 534.88> 581 95<234.5 314.188> 614 24<514.78 535.125> 904 96<-118.923 694.8>
LayerCount: 3
Fore
SplineSet
453 550 m 1
 454 510 486 480 534 480 c 0
 569 480 612 502 614 550 c 1
 638 529 l 1
 630 450 572 422 534 422 c 0
 473 422 433 468 428 529 c 1
 453 550 l 1
463 259 m 1
 570 259 l 2
 578 259 581 263 581 269 c 0
 581 323 562 336 534 336 c 0
 517 336 474 326 463 259 c 1
666 129 m 1
 677 123 682 114 682 103 c 1
 653 64 597 36 543 36 c 0
 431 36 366 107 366 193 c 0
 366 307 463 373 534 373 c 0
 634 373 676 302 676 239 c 0
 676 230 671 226 663 226 c 2
 461 226 l 1
 461 120 515 87 558 87 c 0
 599 87 640 101 666 129 c 1
249 718 m 2
 189 718 156 685 156 625 c 2
 156 -53 l 2
 156 -113 189 -136 249 -136 c 2
 821 -136 l 2
 881 -136 904 -113 904 -53 c 2
 904 625 l 2
 904 685 881 718 821 718 c 2
 249 718 l 2
1000 -84 m 2
 1000 -174 971 -212 881 -212 c 2
 249 -212 l 2
 159 -212 120 -174 120 -84 c 2
 120 625 l 2
 120 708 168 754 249 754 c 2
 851 754 l 2
 941 754 1000 715 1000 625 c 2
 1000 -84 l 2
EndSplineSet
Colour: ff00ff
EndChar

StartChar: Edotaccent
Encoding: 278 278 42
Width: 1100
VWidth: 999
Flags: HW
HStem: -212 76<179.2 885.174> 41 47<455.953 670.434> 278 38<453 617.588> 472 21<459 665> 481 43<456.105 662.434> 574 104<471.248 554.752> 718 36<188.821 875.472>
VStem: 120 36<-107.953 686.051> 357 96<88.8829 278 316 479.855> 461 104<583.794 668.206> 904 96<-118.923 694.8>
LayerCount: 3
Fore
SplineSet
461 626 m 0
 461 654 484 678 513 678 c 0
 542 678 565 654 565 626 c 0
 565 598 542 574 513 574 c 0
 484 574 461 598 461 626 c 0
453 191 m 2
 453 178 454 106 459 88 c 1
 560 88 671 97 671 97 c 1
 672 94 l 1
 672 88 671 75 671 68 c 0
 671 60 672 51 672 41 c 1
 671 38 l 1
 659 40 642 41 626 41 c 2
 405 41 l 2
 379 41 350 38 350 38 c 1
 350 41 l 1
 356 81 357 134 357 191 c 2
 357 374 l 2
 357 431 356 482 350 524 c 1
 351 527 l 1
 351 527 380 524 405 524 c 0
 428 524 618 524 618 524 c 2
 634 524 651 525 663 527 c 1
 665 524 l 1
 664 514 663 504 663 498 c 0
 663 491 664 481 665 475 c 1
 663 472 l 1
 663 472 560 481 459 481 c 1
 454 463 453 387 453 374 c 2
 453 316 l 1
 542 316 576 320 620 323 c 1
 623 321 l 1
 621 314 620 304 620 297 c 0
 620 290 621 279 623 272 c 1
 620 270 l 1
 569 275 489 278 453 278 c 1
 453 191 l 2
249 718 m 2
 189 718 156 685 156 625 c 2
 156 -53 l 2
 156 -113 189 -136 249 -136 c 2
 821 -136 l 2
 881 -136 904 -113 904 -53 c 2
 904 625 l 2
 904 685 881 718 821 718 c 2
 249 718 l 2
1000 -84 m 2
 1000 -174 971 -212 881 -212 c 2
 249 -212 l 2
 159 -212 120 -174 120 -84 c 2
 120 625 l 2
 120 708 168 754 249 754 c 2
 851 754 l 2
 941 754 1000 715 1000 625 c 2
 1000 -84 l 2
EndSplineSet
Position2: "'cpsp' Versalabstaende 1" dx=2 dy=0 dh=4 dv=0
Colour: ff00ff
EndChar

StartChar: edotaccent
Encoding: 279 279 43
Width: 1100
VWidth: 999
Flags: HW
HStem: -212 76<179.2 885.174> 36 51<502.912 627.15> 226 33<463 580.998> 336 37<491.543 570.209> 437 104<484.248 567.752> 718 36<188.821 875.472>
VStem: 120 36<-107.953 686.051> 366 95<132.814 226 259 277.396> 474 104<446.794 531.206> 581 95<234.5 314.188> 904 96<-118.923 694.8>
LayerCount: 3
Fore
SplineSet
474 489 m 0
 474 517 497 541 526 541 c 0
 555 541 578 517 578 489 c 0
 578 461 555 437 526 437 c 0
 497 437 474 461 474 489 c 0
463 259 m 1
 570 259 l 2
 578 259 581 263 581 269 c 0
 581 323 562 336 534 336 c 0
 517 336 474 326 463 259 c 1
666 129 m 1
 677 123 682 114 682 103 c 1
 653 64 597 36 543 36 c 0
 431 36 366 107 366 193 c 0
 366 307 463 373 534 373 c 0
 634 373 676 302 676 239 c 0
 676 230 671 226 663 226 c 2
 461 226 l 1
 461 120 515 87 558 87 c 0
 599 87 640 101 666 129 c 1
249 718 m 2
 189 718 156 685 156 625 c 2
 156 -53 l 2
 156 -113 189 -136 249 -136 c 2
 821 -136 l 2
 881 -136 904 -113 904 -53 c 2
 904 625 l 2
 904 685 881 718 821 718 c 2
 249 718 l 2
1000 -84 m 2
 1000 -174 971 -212 881 -212 c 2
 249 -212 l 2
 159 -212 120 -174 120 -84 c 2
 120 625 l 2
 120 708 168 754 249 754 c 2
 851 754 l 2
 941 754 1000 715 1000 625 c 2
 1000 -84 l 2
EndSplineSet
Colour: ff00ff
EndChar

StartChar: Eogonek
Encoding: 280 280 44
Width: 1100
VWidth: 999
Flags: HW
HStem: -212 76<179.2 885.174> -125 29<529.004 591.945> 41 47<455.953 670.434> 43 19<580.414 609.895> 278 38<453 617.588> 472 21<459 665> 481 43<456.105 662.434> 718 36<188.821 875.472>
VStem: 120 36<-107.953 686.051> 357 96<88.8829 278 316 479.855> 474 44<-90.1985 -4.3457> 904 96<-118.923 694.8>
LayerCount: 3
Fore
SplineSet
543 -125 m 0
 504 -125 474 -102 474 -61 c 0
 474 -26.8 502.4 15.5 545.5 41 c 1
 405 41 l 2
 379 41 350 38 350 38 c 1
 350 41 l 1
 356 81 357 134 357 191 c 2
 357 374 l 2
 357 431 356 482 350 524 c 1
 351 527 l 1
 351 527 380 524 405 524 c 0
 428 524 618 524 618 524 c 2
 634 524 651 525 663 527 c 1
 665 524 l 1
 664 514 663 504 663 498 c 0
 663 491 664 481 665 475 c 1
 663 472 l 1
 663 472 560 481 459 481 c 1
 454 463 453 387 453 374 c 2
 453 316 l 1
 542 316 576 320 620 323 c 1
 623 321 l 1
 621 314 620 304 620 297 c 0
 620 290 621 279 623 272 c 1
 620 270 l 1
 569 275 489 278 453 278 c 1
 453 191 l 2
 453 178 454 106 459 88 c 1
 560 88 671 97 671 97 c 1
 672 94 l 1
 672 88 671 75 671 68 c 0
 671 60 672 51 672 41 c 1
 671 38 l 1
 659 40 642 41 626 41 c 2
 600.6 41 l 1
 551.2 30.7 518 -17.4 518 -52 c 0
 518 -76 535 -96 562 -96 c 0
 584 -96 600 -85 614 -69 c 1
 626 -75 l 1
 608 -110 570 -125 543 -125 c 0
249 718 m 2
 189 718 156 685 156 625 c 2
 156 -53 l 2
 156 -113 189 -136 249 -136 c 2
 821 -136 l 2
 881 -136 904 -113 904 -53 c 2
 904 625 l 2
 904 685 881 718 821 718 c 2
 249 718 l 2
1000 -84 m 2
 1000 -174 971 -212 881 -212 c 2
 249 -212 l 2
 159 -212 120 -174 120 -84 c 2
 120 625 l 2
 120 708 168 754 249 754 c 2
 851 754 l 2
 941 754 1000 715 1000 625 c 2
 1000 -84 l 2
EndSplineSet
Position2: "'cpsp' Versalabstaende 1" dx=2 dy=0 dh=4 dv=0
Substitution2: "'c2sc' Versale nach Kapitaelchen 1" eogonek.sc
Colour: ff80cc
EndChar

StartChar: eogonek
Encoding: 281 281 45
Width: 1100
VWidth: 999
Flags: HW
HStem: -212 76<179.2 885.174> -90 33<595.47 647.169> 36 51<502.912 627.15> 226 33<463 580.998> 336 37<491.543 570.209> 718 36<188.821 875.472>
VStem: 120 36<-107.953 686.051> 366 95<132.814 226 259 277.396> 541 50<-55.5072 25.8657> 581 95<234.5 314.188> 904 96<-118.923 694.8>
LayerCount: 3
Fore
SplineSet
463 259 m 1
 570 259 l 2
 578 259 581 263 581 269 c 0
 581 323 562 336 534 336 c 0
 517 336 474 326 463 259 c 1
666 129 m 1
 677 123 682 114 682 103 c 1
 670.2 87.1 653.9 73.1 635.1 62 c 1
 606.7 32.1 591 8 591 -25 c 0
 591 -41 603 -57 622 -57 c 0
 635 -57 651 -46 662 -35 c 1
 664 -36 l 1
 675 -48 l 1
 655 -73 626 -90 601 -90 c 0
 564 -90 541 -68 541 -33 c 0
 541 -7 554 17.2 572.7 38.7 c 1
 562.8 36.9 552.9 36 543 36 c 0
 431 36 366 107 366 193 c 0
 366 307 463 373 534 373 c 0
 634 373 676 302 676 239 c 0
 676 230 671 226 663 226 c 2
 461 226 l 1
 461 120 515 87 558 87 c 0
 599 87 640 101 666 129 c 1
249 718 m 2
 189 718 156 685 156 625 c 2
 156 -53 l 2
 156 -113 189 -136 249 -136 c 2
 821 -136 l 2
 881 -136 904 -113 904 -53 c 2
 904 625 l 2
 904 685 881 718 821 718 c 2
 249 718 l 2
1000 -84 m 2
 1000 -174 971 -212 881 -212 c 2
 249 -212 l 2
 159 -212 120 -174 120 -84 c 2
 120 625 l 2
 120 708 168 754 249 754 c 2
 851 754 l 2
 941 754 1000 715 1000 625 c 2
 1000 -84 l 2
EndSplineSet
AlternateSubs2: "'aalt' Alle Alternativen zeigen 1" eogonek.sc
Substitution2: "'smcp' Gemeine nach Kapitaelchen 1" eogonek.sc
Colour: ff00ff
EndChar

StartChar: Ecaron
Encoding: 282 282 46
Width: 1100
VWidth: 999
Flags: HW
HStem: -212 76<179.2 885.174> 41 47<455.953 670.434> 278 38<453 617.588> 472 21<459 665> 481 43<456.105 662.434> 718 36<188.821 875.472>
VStem: 120 36<-107.953 686.051> 357 96<88.8829 278 316 479.855> 904 96<-118.923 694.8>
LayerCount: 3
Fore
SplineSet
495 568 m 1
 473 596 447 619 419 640 c 1
 431 655 l 1
 461 642 486 628 511 609 c 1
 539 628 563 643 591 655 c 1
 603 640 l 1
 574 618 550 594 527 568 c 1
 495 568 l 1
453 191 m 2
 453 178 454 106 459 88 c 1
 560 88 671 97 671 97 c 1
 672 94 l 1
 672 88 671 75 671 68 c 0
 671 60 672 51 672 41 c 1
 671 38 l 1
 659 40 642 41 626 41 c 2
 405 41 l 2
 379 41 350 38 350 38 c 1
 350 41 l 1
 356 81 357 134 357 191 c 2
 357 374 l 2
 357 431 356 482 350 524 c 1
 351 527 l 1
 351 527 380 524 405 524 c 0
 428 524 618 524 618 524 c 2
 634 524 651 525 663 527 c 1
 665 524 l 1
 664 514 663 504 663 498 c 0
 663 491 664 481 665 475 c 1
 663 472 l 1
 663 472 560 481 459 481 c 1
 454 463 453 387 453 374 c 2
 453 316 l 1
 542 316 576 320 620 323 c 1
 623 321 l 1
 621 314 620 304 620 297 c 0
 620 290 621 279 623 272 c 1
 620 270 l 1
 569 275 489 278 453 278 c 1
 453 191 l 2
249 718 m 2
 189 718 156 685 156 625 c 2
 156 -53 l 2
 156 -113 189 -136 249 -136 c 2
 821 -136 l 2
 881 -136 904 -113 904 -53 c 2
 904 625 l 2
 904 685 881 718 821 718 c 2
 249 718 l 2
1000 -84 m 2
 1000 -174 971 -212 881 -212 c 2
 249 -212 l 2
 159 -212 120 -174 120 -84 c 2
 120 625 l 2
 120 708 168 754 249 754 c 2
 851 754 l 2
 941 754 1000 715 1000 625 c 2
 1000 -84 l 2
EndSplineSet
Position2: "'cpsp' Versalabstaende 1" dx=2 dy=0 dh=4 dv=0
Substitution2: "'c2sc' Versale nach Kapitaelchen 1" ecaron.sc
Colour: ff00ff
EndChar

StartChar: ecaron
Encoding: 283 283 47
Width: 1100
VWidth: 999
Flags: HW
HStem: -212 76<179.2 885.174> 36 51<502.912 627.15> 226 33<463 580.998> 336 37<491.543 570.209> 718 36<188.821 875.472>
VStem: 120 36<-107.953 686.051> 366 95<132.814 226 259 277.396> 581 95<234.5 314.188> 904 96<-118.923 694.8>
LayerCount: 3
Fore
SplineSet
545 431 m 1
 507 431 l 1
 485 466 457 498 431 528 c 1
 449 542 l 1
 478 521 497 507 525 479 c 1
 551 506 573 521 602 542 c 1
 620 528 l 1
 593 498 566 467 545 431 c 1
463 259 m 1
 570 259 l 2
 578 259 581 263 581 269 c 0
 581 323 562 336 534 336 c 0
 517 336 474 326 463 259 c 1
666 129 m 1
 677 123 682 114 682 103 c 1
 653 64 597 36 543 36 c 0
 431 36 366 107 366 193 c 0
 366 307 463 373 534 373 c 0
 634 373 676 302 676 239 c 0
 676 230 671 226 663 226 c 2
 461 226 l 1
 461 120 515 87 558 87 c 0
 599 87 640 101 666 129 c 1
249 718 m 2
 189 718 156 685 156 625 c 2
 156 -53 l 2
 156 -113 189 -136 249 -136 c 2
 821 -136 l 2
 881 -136 904 -113 904 -53 c 2
 904 625 l 2
 904 685 881 718 821 718 c 2
 249 718 l 2
1000 -84 m 2
 1000 -174 971 -212 881 -212 c 2
 249 -212 l 2
 159 -212 120 -174 120 -84 c 2
 120 625 l 2
 120 708 168 754 249 754 c 2
 851 754 l 2
 941 754 1000 715 1000 625 c 2
 1000 -84 l 2
EndSplineSet
AlternateSubs2: "'aalt' Alle Alternativen zeigen 1" ecaron.sc
Substitution2: "'smcp' Gemeine nach Kapitaelchen 1" ecaron.sc
Colour: ff00ff
EndChar

StartChar: Gcircumflex
Encoding: 284 284 48
Width: 1100
VWidth: 999
Flags: HW
HStem: -212 76<179.2 885.174> 34 41<484.508 653.713> 493 41<477.706 636.457> 718 36<188.821 875.472>
VStem: 120 36<-107.953 686.051> 294 108<171.651 394.241> 664 96<103.284 268.984> 904 96<-118.923 694.8>
LayerCount: 3
Fore
SplineSet
557.5 663.3 m 1
 581.7 633.6 611.5 607.2 641.2 585.2 c 1
 628 567.7 l 1
 595 583.1 567.5 598.4 540 619.3 c 1
 509.2 597.3 482.8 582 452 567.7 c 1
 439.8 585.2 l 1
 470.6 608.3 495.9 634.7 522.3 663.3 c 1
 557.5 663.3 l 1
664 129 m 2
 664 185 663 228 657 271 c 1
 658 274 l 1
 658 274 687 271 712 271 c 0
 738 271 767 274 767 274 c 1
 767 271 l 1
 761 232 760 200 760 144 c 0
 760 119 763 109 767 103 c 1
 767 101 l 1
 717 59 635 34 547 34 c 0
 373.9 34 294 152 294 281 c 0
 294 446 402 534 561 534 c 0
 652 534 740 501 740 501 c 1
 742 498 l 1
 733 462 729 439 727 401 c 1
 708 400 l 1
 677 462 618 493 550 493 c 0
 458 493 402 418 402 286 c 0
 402 187 431 75 564 75 c 0
 605 75 639 79 664 103 c 1
 664 129 l 2
249 718 m 2
 189 718 156 685 156 625 c 2
 156 -53 l 2
 156 -113 189 -136 249 -136 c 2
 821 -136 l 2
 881 -136 904 -113 904 -53 c 2
 904 625 l 2
 904 685 881 718 821 718 c 2
 249 718 l 2
1000 -84 m 2
 1000 -174 971 -212 881 -212 c 2
 249 -212 l 2
 159 -212 120 -174 120 -84 c 2
 120 625 l 2
 120 708 168 754 249 754 c 2
 851 754 l 2
 941 754 1000 715 1000 625 c 2
 1000 -84 l 2
EndSplineSet
Position2: "'cpsp' Versalabstaende 1" dx=2 dy=0 dh=4 dv=0
Colour: ff00ff
EndChar

StartChar: gcircumflex
Encoding: 285 285 49
Width: 1100
VWidth: 999
Flags: HW
HStem: -212 76<179.2 885.174> -109 31<467.437 579.875> 57 60<457.178 475.823 477.03 616.503> 175 32<479.917 556.258> 366 33<475.704 554.01> 718 36<188.821 875.472>
VStem: 120 36<-107.953 686.051> 360 81<-58.8228 28.3205> 380 81<220.21 347.133> 384 58<112.953 188.27> 400 190<552 552> 573 80<221.795 345.025> 630 77<-36.8608 41.4526> 904 96<-118.923 694.8>
LayerCount: 3
Fore
SplineSet
536 563.8 m 1
 561.3 523.1 592 486.8 622.8 452.7 c 1
 602 437.2 l 1
 566.8 459.2 542.6 475.8 514 505.5 c 1
 483.2 473.6 460 459.2 427 437.2 c 1
 406.2 452.7 l 1
 435.9 486.8 468.8 524.2 493 563.8 c 1
 536 563.8 l 1
653 286 m 0
 653 225 605 175 518 175 c 0
 493 175 475 177 460 186 c 0
 458 187 456 188 454 189 c 1
 446 176 442 159 442 144 c 0
 442 111 464 111 485 111 c 0
 489 111 496 112 507 113 c 0
 524 115 541 117 554 117 c 0
 623 117 707 95 707 18 c 0
 707 -63 586 -109 490 -109 c 0
 435 -109 360 -89 360 -24 c 0
 360 9 388 43 426 67 c 1
 404 73 384 93 384 125 c 0
 384 150 395 184 415 202 c 1
 411 207 l 1
 394 220 380 247 380 285 c 0
 380 349 438 399 519 399 c 0
 535 399 550 396 563 392 c 1
 619 395 661 403 697 406 c 1
 700 404 l 1
 698 397 697 387 697 380 c 0
 697 373 698 365 700 358 c 1
 697 356 l 1
 669.9 358.6 636.1 361.2 612.6 363.2 c 1
 636.3 345.8 653 315 653 286 c 0
573 279 m 0
 573 335 556 366 511 366 c 0
 472 366 461 330 461 296 c 0
 461 248 471 207 520 207 c 0
 547 207 573 225 573 279 c 0
249 718 m 2
 189 718 156 685 156 625 c 2
 156 -53 l 2
 156 -113 189 -136 249 -136 c 2
 821 -136 l 2
 881 -136 904 -113 904 -53 c 2
 904 625 l 2
 904 685 881 718 821 718 c 2
 249 718 l 2
1000 -84 m 2
 1000 -174 971 -212 881 -212 c 2
 249 -212 l 2
 159 -212 120 -174 120 -84 c 2
 120 625 l 2
 120 708 168 754 249 754 c 2
 851 754 l 2
 941 754 1000 715 1000 625 c 2
 1000 -84 l 2
476.7 54 m 1
 449.7 32.5 441 15.6 441 -9 c 0
 441 -60 485 -78 511 -78 c 0
 575 -78 630 -45 630 1 c 0
 630 53 570 57 528 57 c 0
 518.1 57 498.4 54.1 476.7 54 c 1
477.4 54.5 m 1
 479 54.8 480.5 55 478 55 c 0
 477.8 54.8 477.6 54.7 477.4 54.5 c 1
EndSplineSet
Colour: ff00ff
EndChar

StartChar: Gbreve
Encoding: 286 286 50
Width: 1100
VWidth: 999
Flags: HW
HStem: -212 76<179.2 885.174> 34 41<484.508 653.713> 493 41<477.706 636.457> 670 39<400 517> 718 36<188.821 875.472>
VStem: 120 36<-107.953 686.051> 294 108<171.651 394.241> 357 21<725 753> 540 20<726 755> 664 96<103.284 268.984> 904 96<-118.923 694.8>
LayerCount: 3
Fore
SplineSet
650 675 m 1
 639 606 598 580 549 580 c 0
 494 580 450 613 447 675 c 1
 472 675 l 1
 478 646 509 629 549 629 c 0
 586 629 621 646 626 675 c 1
 650 675 l 1
664 129 m 2
 664 185 663 228 657 271 c 1
 658 274 l 1
 658 274 687 271 712 271 c 0
 738 271 767 274 767 274 c 1
 767 271 l 1
 761 232 760 200 760 144 c 0
 760 119 763 109 767 103 c 1
 767 101 l 1
 717 59 635 34 547 34 c 0
 373.9 34 294 152 294 281 c 0
 294 446 402 534 561 534 c 0
 652 534 740 501 740 501 c 1
 742 498 l 1
 733 462 729 439 727 401 c 1
 708 400 l 1
 677 462 618 493 550 493 c 0
 458 493 402 418 402 286 c 0
 402 187 431 75 564 75 c 0
 605 75 639 79 664 103 c 1
 664 129 l 2
249 718 m 2
 189 718 156 685 156 625 c 2
 156 -53 l 2
 156 -113 189 -136 249 -136 c 2
 821 -136 l 2
 881 -136 904 -113 904 -53 c 2
 904 625 l 2
 904 685 881 718 821 718 c 2
 249 718 l 2
1000 -84 m 2
 1000 -174 971 -212 881 -212 c 2
 249 -212 l 2
 159 -212 120 -174 120 -84 c 2
 120 625 l 2
 120 708 168 754 249 754 c 2
 851 754 l 2
 941 754 1000 715 1000 625 c 2
 1000 -84 l 2
EndSplineSet
Position2: "'cpsp' Versalabstaende 1" dx=2 dy=0 dh=4 dv=0
Substitution2: "'c2sc' Versale nach Kapitaelchen 1" gbreve.sc
Colour: ff00ff
EndChar

StartChar: gbreve
Encoding: 287 287 51
Width: 1100
VWidth: 999
Flags: HW
HStem: -212 76<179.2 885.174> -109 31<467.437 579.875> 57 60<457.178 475.823 477.03 616.503> 175 32<479.917 556.258> 366 33<475.704 554.01> 439 58<448.77 565.699> 718 36<188.821 875.472>
VStem: 120 36<-107.953 686.051> 360 81<-58.8228 28.3205> 380 81<220.21 347.133> 384 58<112.953 188.27> 402 25<529.265 551.88> 573 80<221.795 345.025> 588 24<531.78 552.125> 630 77<-36.8608 41.4526> 904 96<-118.923 694.8>
LayerCount: 3
Fore
SplineSet
427 567 m 1
 428 527 460 497 508 497 c 0
 543 497 586 519 588 567 c 1
 612 546 l 1
 604 467 546 439 508 439 c 0
 447 439 407 485 402 546 c 1
 427 567 l 1
653 286 m 0
 653 225 605 175 518 175 c 0
 493 175 475 177 460 186 c 0
 458 187 456 188 454 189 c 1
 446 176 442 159 442 144 c 0
 442 111 464 111 485 111 c 0
 489 111 496 112 507 113 c 0
 524 115 541 117 554 117 c 0
 623 117 707 95 707 18 c 0
 707 -63 586 -109 490 -109 c 0
 435 -109 360 -89 360 -24 c 0
 360 9 388 43 426 67 c 1
 404 73 384 93 384 125 c 0
 384 150 395 184 415 202 c 1
 411 207 l 1
 394 220 380 247 380 285 c 0
 380 349 438 399 519 399 c 0
 535 399 550 396 563 392 c 1
 619 395 661 403 697 406 c 1
 700 404 l 1
 698 397 697 387 697 380 c 0
 697 373 698 365 700 358 c 1
 697 356 l 1
 669.9 358.6 636.1 361.2 612.6 363.2 c 1
 636.3 345.8 653 315 653 286 c 0
573 279 m 0
 573 335 556 366 511 366 c 0
 472 366 461 330 461 296 c 0
 461 248 471 207 520 207 c 0
 547 207 573 225 573 279 c 0
249 718 m 2
 189 718 156 685 156 625 c 2
 156 -53 l 2
 156 -113 189 -136 249 -136 c 2
 821 -136 l 2
 881 -136 904 -113 904 -53 c 2
 904 625 l 2
 904 685 881 718 821 718 c 2
 249 718 l 2
1000 -84 m 2
 1000 -174 971 -212 881 -212 c 2
 249 -212 l 2
 159 -212 120 -174 120 -84 c 2
 120 625 l 2
 120 708 168 754 249 754 c 2
 851 754 l 2
 941 754 1000 715 1000 625 c 2
 1000 -84 l 2
476.7 54 m 1
 449.7 32.5 441 15.6 441 -9 c 0
 441 -60 485 -78 511 -78 c 0
 575 -78 630 -45 630 1 c 0
 630 53 570 57 528 57 c 0
 518.1 57 498.4 54.1 476.7 54 c 1
477.4 54.5 m 1
 479 54.8 480.5 55 478 55 c 0
 477.8 54.8 477.6 54.7 477.4 54.5 c 1
EndSplineSet
AlternateSubs2: "'aalt' Alle Alternativen zeigen 1" gbreve.sc
Substitution2: "'smcp' Gemeine nach Kapitaelchen 1" gbreve.sc
Colour: ff00ff
EndChar

StartChar: Gdotaccent
Encoding: 288 288 52
Width: 1100
VWidth: 999
Flags: HW
HStem: -212 76<179.2 885.174> 34 41<484.508 653.713> 493 41<477.706 636.457> 574 104<503.248 586.752> 718 36<188.821 875.472>
VStem: 120 36<-107.953 686.051> 294 108<171.651 394.241> 493 104<583.794 668.206> 664 96<103.284 268.984> 904 96<-118.923 694.8>
LayerCount: 3
Fore
SplineSet
493 626 m 0
 493 654 516 678 545 678 c 0
 574 678 597 654 597 626 c 0
 597 598 574 574 545 574 c 0
 516 574 493 598 493 626 c 0
664 129 m 2
 664 185 663 228 657 271 c 1
 658 274 l 1
 658 274 687 271 712 271 c 0
 738 271 767 274 767 274 c 1
 767 271 l 1
 761 232 760 200 760 144 c 0
 760 119 763 109 767 103 c 1
 767 101 l 1
 717 59 635 34 547 34 c 0
 373.9 34 294 152 294 281 c 0
 294 446 402 534 561 534 c 0
 652 534 740 501 740 501 c 1
 742 498 l 1
 733 462 729 439 727 401 c 1
 708 400 l 1
 677 462 618 493 550 493 c 0
 458 493 402 418 402 286 c 0
 402 187 431 75 564 75 c 0
 605 75 639 79 664 103 c 1
 664 129 l 2
249 718 m 2
 189 718 156 685 156 625 c 2
 156 -53 l 2
 156 -113 189 -136 249 -136 c 2
 821 -136 l 2
 881 -136 904 -113 904 -53 c 2
 904 625 l 2
 904 685 881 718 821 718 c 2
 249 718 l 2
1000 -84 m 2
 1000 -174 971 -212 881 -212 c 2
 249 -212 l 2
 159 -212 120 -174 120 -84 c 2
 120 625 l 2
 120 708 168 754 249 754 c 2
 851 754 l 2
 941 754 1000 715 1000 625 c 2
 1000 -84 l 2
EndSplineSet
Position2: "'cpsp' Versalabstaende 1" dx=2 dy=0 dh=4 dv=0
Colour: ff00ff
EndChar

StartChar: gdotaccent
Encoding: 289 289 53
Width: 1100
VWidth: 999
Flags: HW
HStem: -212 76<179.2 885.174> -109 31<467.437 579.875> 57 60<457.178 475.823 477.03 616.503> 175 32<479.917 556.258> 366 33<475.704 554.01> 456 104<471.248 554.752> 718 36<188.821 875.472>
VStem: 120 36<-107.953 686.051> 360 81<-58.8228 28.3205> 380 81<220.21 347.133> 384 58<112.953 188.27> 461 104<465.794 550.206> 573 80<221.795 345.025> 630 77<-36.8608 41.4526> 904 96<-118.923 694.8>
LayerCount: 3
Fore
SplineSet
461 508 m 0
 461 536 484 560 513 560 c 0
 542 560 565 536 565 508 c 0
 565 480 542 456 513 456 c 0
 484 456 461 480 461 508 c 0
653 286 m 0
 653 225 605 175 518 175 c 0
 493 175 475 177 460 186 c 0
 458 187 456 188 454 189 c 1
 446 176 442 159 442 144 c 0
 442 111 464 111 485 111 c 0
 489 111 496 112 507 113 c 0
 524 115 541 117 554 117 c 0
 623 117 707 95 707 18 c 0
 707 -63 586 -109 490 -109 c 0
 435 -109 360 -89 360 -24 c 0
 360 9 388 43 426 67 c 1
 404 73 384 93 384 125 c 0
 384 150 395 184 415 202 c 1
 411 207 l 1
 394 220 380 247 380 285 c 0
 380 349 438 399 519 399 c 0
 535 399 550 396 563 392 c 1
 619 395 661 403 697 406 c 1
 700 404 l 1
 698 397 697 387 697 380 c 0
 697 373 698 365 700 358 c 1
 697 356 l 1
 669.9 358.6 636.1 361.2 612.6 363.2 c 1
 636.3 345.8 653 315 653 286 c 0
573 279 m 0
 573 335 556 366 511 366 c 0
 472 366 461 330 461 296 c 0
 461 248 471 207 520 207 c 0
 547 207 573 225 573 279 c 0
249 718 m 2
 189 718 156 685 156 625 c 2
 156 -53 l 2
 156 -113 189 -136 249 -136 c 2
 821 -136 l 2
 881 -136 904 -113 904 -53 c 2
 904 625 l 2
 904 685 881 718 821 718 c 2
 249 718 l 2
1000 -84 m 2
 1000 -174 971 -212 881 -212 c 2
 249 -212 l 2
 159 -212 120 -174 120 -84 c 2
 120 625 l 2
 120 708 168 754 249 754 c 2
 851 754 l 2
 941 754 1000 715 1000 625 c 2
 1000 -84 l 2
476.7 54 m 1
 449.7 32.5 441 15.6 441 -9 c 0
 441 -60 485 -78 511 -78 c 0
 575 -78 630 -45 630 1 c 0
 630 53 570 57 528 57 c 0
 518.1 57 498.4 54.1 476.7 54 c 1
477.4 54.5 m 1
 479 54.8 480.5 55 478 55 c 0
 477.8 54.8 477.6 54.7 477.4 54.5 c 1
EndSplineSet
Colour: ff00ff
EndChar

StartChar: Gcommaaccent
Encoding: 290 290 54
Width: 1100
VWidth: 999
Flags: HW
HStem: -212 76<179.2 885.174> -124 13<517 534.454> -51 61<513.631 570.626> 34 41<484.508 653.713> 493 41<477.706 636.457> 718 36<188.821 875.472>
VStem: 120 36<-107.953 686.051> 294 108<171.651 394.241> 573 24<-83.801 -31> 664 96<103.284 268.984> 904 96<-118.923 694.8>
LayerCount: 3
Fore
SplineSet
550 10 m 0
 580 10 597 -18 597 -44 c 0
 597 -64 584 -121 517 -124 c 1
 514 -111 l 1
 571 -100 573 -56 573 -52 c 0
 573 -49 572 -46 571 -44 c 1
 563 -49 556 -51 550 -51 c 0
 519 -51 512 -32 512 -20 c 0
 512 -8 523 10 550 10 c 0
664 129 m 2
 664 185 663 228 657 271 c 1
 658 274 l 1
 658 274 687 271 712 271 c 0
 738 271 767 274 767 274 c 1
 767 271 l 1
 761 232 760 200 760 144 c 0
 760 119 763 109 767 103 c 1
 767 101 l 1
 717 59 635 34 547 34 c 0
 373.9 34 294 152 294 281 c 0
 294 446 402 534 561 534 c 0
 652 534 740 501 740 501 c 1
 742 498 l 1
 733 462 729 439 727 401 c 1
 708 400 l 1
 677 462 618 493 550 493 c 0
 458 493 402 418 402 286 c 0
 402 187 431 75 564 75 c 0
 605 75 639 79 664 103 c 1
 664 129 l 2
249 718 m 2
 189 718 156 685 156 625 c 2
 156 -53 l 2
 156 -113 189 -136 249 -136 c 2
 821 -136 l 2
 881 -136 904 -113 904 -53 c 2
 904 625 l 2
 904 685 881 718 821 718 c 2
 249 718 l 2
1000 -84 m 2
 1000 -174 971 -212 881 -212 c 2
 249 -212 l 2
 159 -212 120 -174 120 -84 c 2
 120 625 l 2
 120 708 168 754 249 754 c 2
 851 754 l 2
 941 754 1000 715 1000 625 c 2
 1000 -84 l 2
EndSplineSet
Position2: "'cpsp' Versalabstaende 1" dx=2 dy=0 dh=4 dv=0
Colour: ff00ff
EndChar

StartChar: gcommaaccent
Encoding: 291 291 55
Width: 1100
VWidth: 999
Flags: HW
HStem: -212 76<179.2 885.174> -109 31<467.437 579.875> 57 60<457.178 475.823 477.03 616.503> 175 32<479.917 556.258> 366 33<475.704 554.01> 442 62<504.42 562.256> 564 13<541.546 559> 718 36<188.821 875.472>
VStem: 120 36<-107.953 686.051> 360 81<-58.8228 28.3205> 380 81<220.21 347.133> 384 58<112.953 188.27> 479 24<497 536.403> 573 80<221.795 345.025> 630 77<-36.8608 41.4526> 904 96<-118.923 694.8>
LayerCount: 3
Fore
SplineSet
526 442 m 0
 496 442 479 470 479 497 c 0
 479 517 492 574 559 577 c 1
 562 564 l 1
 505 553 503 508 503 505 c 0
 503 502 504 499 504 497 c 1
 513 502 520 504 526 504 c 0
 556 504 564 485 564 472 c 0
 564 460 552 442 526 442 c 0
653 286 m 0
 653 225 605 175 518 175 c 0
 493 175 475 177 460 186 c 0
 458 187 456 188 454 189 c 1
 446 176 442 159 442 144 c 0
 442 111 464 111 485 111 c 0
 489 111 496 112 507 113 c 0
 524 115 541 117 554 117 c 0
 623 117 707 95 707 18 c 0
 707 -63 586 -109 490 -109 c 0
 435 -109 360 -89 360 -24 c 0
 360 9 388 43 426 67 c 1
 404 73 384 93 384 125 c 0
 384 150 395 184 415 202 c 1
 411 207 l 1
 394 220 380 247 380 285 c 0
 380 349 438 399 519 399 c 0
 535 399 550 396 563 392 c 1
 619 395 661 403 697 406 c 1
 700 404 l 1
 698 397 697 387 697 380 c 0
 697 373 698 365 700 358 c 1
 697 356 l 1
 669.9 358.6 636.1 361.2 612.6 363.2 c 1
 636.3 345.8 653 315 653 286 c 0
573 279 m 0
 573 335 556 366 511 366 c 0
 472 366 461 330 461 296 c 0
 461 248 471 207 520 207 c 0
 547 207 573 225 573 279 c 0
249 718 m 2
 189 718 156 685 156 625 c 2
 156 -53 l 2
 156 -113 189 -136 249 -136 c 2
 821 -136 l 2
 881 -136 904 -113 904 -53 c 2
 904 625 l 2
 904 685 881 718 821 718 c 2
 249 718 l 2
1000 -84 m 2
 1000 -174 971 -212 881 -212 c 2
 249 -212 l 2
 159 -212 120 -174 120 -84 c 2
 120 625 l 2
 120 708 168 754 249 754 c 2
 851 754 l 2
 941 754 1000 715 1000 625 c 2
 1000 -84 l 2
476.7 54 m 1
 449.7 32.5 441 15.6 441 -9 c 0
 441 -60 485 -78 511 -78 c 0
 575 -78 630 -45 630 1 c 0
 630 53 570 57 528 57 c 0
 518.1 57 498.4 54.1 476.7 54 c 1
477.4 54.5 m 1
 479 54.8 480.5 55 478 55 c 0
 477.8 54.8 477.6 54.7 477.4 54.5 c 1
EndSplineSet
Colour: ff00ff
EndChar

StartChar: Hcircumflex
Encoding: 292 292 56
Width: 1100
VWidth: 999
Flags: HW
HStem: -212 76<179.2 885.174> 274 39<404 648> 718 36<188.821 875.472>
VStem: 120 36<-107.953 686.051> 328 96<42.9753 274 313 522.025> 404 20<274 313> 634 14<274 313> 634 96<42.9753 274 313 522.025> 904 96<-118.923 694.8>
LayerCount: 3
Fore
SplineSet
634 374 m 2
 634 431 632 482 626 524 c 1
 628 527 l 1
 628 527 656 524 682 524 c 0
 708 524 737 527 737 527 c 1
 738 524 l 1
 732 485 730 431 730 374 c 2
 730 191 l 2
 730 134 732 83 738 41 c 1
 736 38 l 1
 736 38 708 41 682 41 c 0
 656 41 627 38 627 38 c 1
 626 41 l 1
 632 81 634 134 634 191 c 2
 634 274 l 1
 424 274 l 1
 424 191 l 2
 424 134 426 83 432 41 c 1
 430 38 l 1
 430 38 402 41 376 41 c 0
 350 41 321 38 321 38 c 1
 320 41 l 1
 326 81 328 134 328 191 c 2
 328 374 l 2
 328 431 326 482 320 524 c 1
 322 527 l 1
 322 527 350 524 376 524 c 0
 402 524 431 527 431 527 c 1
 432 524 l 1
 426 485 424 431 424 374 c 2
 424 313 l 1
 634 313 l 1
 634 374 l 2
249 718 m 2
 189 718 156 685 156 625 c 2
 156 -53 l 2
 156 -113 189 -136 249 -136 c 2
 821 -136 l 2
 881 -136 904 -113 904 -53 c 2
 904 625 l 2
 904 685 881 718 821 718 c 2
 249 718 l 2
1000 -84 m 2
 1000 -174 971 -212 881 -212 c 2
 249 -212 l 2
 159 -212 120 -174 120 -84 c 2
 120 625 l 2
 120 708 168 754 249 754 c 2
 851 754 l 2
 941 754 1000 715 1000 625 c 2
 1000 -84 l 2
544.5 652.3 m 1
 568.7 622.6 598.5 596.2 628.2 574.2 c 1
 615 556.7 l 1
 582 572.1 554.5 587.4 527 608.3 c 1
 496.2 586.3 469.8 571 439 556.7 c 1
 426.8 574.2 l 1
 457.6 597.3 482.9 623.7 509.3 652.3 c 1
 544.5 652.3 l 1
EndSplineSet
Position2: "'cpsp' Versalabstaende 1" dx=2 dy=0 dh=4 dv=0
Colour: ff00ff
EndChar

StartChar: hcircumflex
Encoding: 293 293 57
Width: 1100
VWidth: 999
Flags: HW
HStem: -212 76<179.2 885.174> 39 21<367 419 419 470 587 638 638 690> 325 49<506.518 585.72> 548 20<454.5 466 454.5 466> 718 36<188.821 875.472>
VStem: 120 36<-107.953 686.051> 374 89<43.0128 290.763 315 545.485> 594 89<43.0128 318.633> 904 96<-118.923 694.8>
LayerCount: 3
Fore
SplineSet
553.5 704.3 m 1
 577.7 674.6 607.5 648.2 637.2 626.2 c 1
 624 608.7 l 1
 591 624.1 563.5 639.4 536 660.3 c 1
 505.2 638.3 478.8 623 448 608.7 c 1
 435.8 626.2 l 1
 466.6 649.3 491.9 675.7 518.3 704.3 c 1
 553.5 704.3 l 1
594 180 m 2
 594 252 l 2
 594 313 580 325 538 325 c 0
 516 325 499 305 463 270 c 1
 463 180 l 2
 463 123 464 84 470 41 c 1
 469 39 l 1
 469 39 444 41 419 41 c 0
 392 41 368 39 368 39 c 1
 367 41 l 1
 373 81 374 124 374 180 c 2
 374 406 l 2
 374 463 373 515 367 547 c 1
 368 550 l 1
 399 552 445 561 464 568 c 1
 468 568 470 566 470 561 c 0
 465 515 463 476 463 421 c 2
 463 315 l 1
 513 365 542 374 572 374 c 0
 626 374 683 335 683 258 c 2
 683 180 l 2
 683 123 684 84 690 41 c 1
 689 39 l 1
 689 39 664 41 638 41 c 0
 612 41 587 39 587 39 c 1
 587 41 l 1
 593 81 594 124 594 180 c 2
249 718 m 2
 189 718 156 685 156 625 c 2
 156 -53 l 2
 156 -113 189 -136 249 -136 c 2
 821 -136 l 2
 881 -136 904 -113 904 -53 c 2
 904 625 l 2
 904 685 881 718 821 718 c 2
 249 718 l 2
1000 -84 m 2
 1000 -174 971 -212 881 -212 c 2
 249 -212 l 2
 159 -212 120 -174 120 -84 c 2
 120 625 l 2
 120 708 168 754 249 754 c 2
 851 754 l 2
 941 754 1000 715 1000 625 c 2
 1000 -84 l 2
EndSplineSet
Colour: ff00ff
EndChar

StartChar: Hbar
Encoding: 294 294 58
Width: 1100
VWidth: 999
Flags: HW
HStem: -212 76<179.2 885.174> 274 39<404 648> 465 25<298 759> 718 36<188.821 875.472>
VStem: 120 36<-107.953 686.051> 328 96<42.9753 274 313 522.025> 404 20<274 313> 634 14<274 313> 634 96<42.9753 274 313 522.025> 904 96<-118.923 694.8>
LayerCount: 3
Fore
SplineSet
249 718 m 2
 189 718 156 685 156 625 c 2
 156 -53 l 2
 156 -113 189 -136 249 -136 c 2
 821 -136 l 2
 881 -136 904 -113 904 -53 c 2
 904 625 l 2
 904 685 881 718 821 718 c 2
 249 718 l 2
1000 -84 m 2
 1000 -174 971 -212 881 -212 c 2
 249 -212 l 2
 159 -212 120 -174 120 -84 c 2
 120 625 l 2
 120 708 168 754 249 754 c 2
 851 754 l 2
 941 754 1000 715 1000 625 c 2
 1000 -84 l 2
634 274 m 1
 424 274 l 1
 424 191 l 2
 424 134 426 83 432 41 c 1
 430 38 l 1
 430 38 402 41 376 41 c 0
 350 41 321 38 321 38 c 1
 320 41 l 1
 326 81 328 134 328 191 c 2
 328 374 l 2
 328 406.5 327.4 437 325.7 465 c 1
 298 465 l 1
 298 490 l 1
 323.9 490 l 1
 322.9 501.9 321.5 513.2 320 524 c 1
 322 527 l 1
 322 527 350 524 376 524 c 0
 402 524 431 527 431 527 c 1
 432 524 l 1
 430.4 513.6 429.1 502.2 428 490 c 1
 629.9 490 l 1
 628.9 501.9 627.5 513.2 626 524 c 1
 628 527 l 1
 628 527 656 524 682 524 c 0
 708 524 737 527 737 527 c 1
 738 524 l 1
 736.4 513.6 735.1 502.2 734 490 c 1
 759 490 l 1
 759 465 l 1
 732.2 465 l 1
 730.6 437 730 406 730 374 c 2
 730 191 l 2
 730 134 732 83 738 41 c 1
 736 38 l 1
 736 38 708 41 682 41 c 0
 656 41 627 38 627 38 c 1
 626 41 l 1
 632 81 634 134 634 191 c 2
 634 274 l 1
634 313 m 1
 634 374 l 2
 634 406.5 633.4 437 631.7 465 c 1
 426.2 465 l 1
 424.6 437 424 406 424 374 c 2
 424 313 l 1
 634 313 l 1
EndSplineSet
Position2: "'cpsp' Versalabstaende 1" dx=2 dy=0 dh=4 dv=0
Colour: ff80cc
EndChar

StartChar: hbar
Encoding: 295 295 59
Width: 1100
VWidth: 999
Flags: HW
HStem: -212 76<179.2 885.174> 39 21<367 419 419 470 587 638 638 690> 325 49<506.518 585.72> 484 30<319 555> 548 20<454.5 466 454.5 466> 718 36<188.821 875.472>
VStem: 120 36<-107.953 686.051> 374 89<43.0128 290.763 315 545.485> 594 89<43.0128 318.633> 904 96<-118.923 694.8>
LayerCount: 3
Fore
SplineSet
594 180 m 2
 594 252 l 2
 594 313 580 325 538 325 c 0
 516 325 499 305 463 270 c 1
 463 180 l 2
 463 123 464 84 470 41 c 1
 469 39 l 1
 469 39 444 41 419 41 c 0
 392 41 368 39 368 39 c 1
 367 41 l 1
 373 81 374 124 374 180 c 2
 374 406 l 2
 374 433.8 373.7 460.3 372.8 484 c 1
 319 484 l 1
 319 514 l 1
 371.1 514 l 1
 370.1 526.5 368.8 537.6 367 547 c 1
 368 550 l 1
 399 552 445 561 464 568 c 1
 468 568 470 566 470 561 c 0
 468.2 544.8 466.9 529.5 465.8 514 c 1
 555 514 l 1
 555 484 l 1
 464.2 484 l 1
 463.4 464.7 463 444.3 463 421 c 2
 463 315 l 1
 513 365 542 374 572 374 c 0
 626 374 683 335 683 258 c 2
 683 180 l 2
 683 123 684 84 690 41 c 1
 689 39 l 1
 689 39 664 41 638 41 c 0
 612 41 587 39 587 39 c 1
 587 41 l 1
 593 81 594 124 594 180 c 2
249 718 m 2
 189 718 156 685 156 625 c 2
 156 -53 l 2
 156 -113 189 -136 249 -136 c 2
 821 -136 l 2
 881 -136 904 -113 904 -53 c 2
 904 625 l 2
 904 685 881 718 821 718 c 2
 249 718 l 2
1000 -84 m 2
 1000 -174 971 -212 881 -212 c 2
 249 -212 l 2
 159 -212 120 -174 120 -84 c 2
 120 625 l 2
 120 708 168 754 249 754 c 2
 851 754 l 2
 941 754 1000 715 1000 625 c 2
 1000 -84 l 2
EndSplineSet
Colour: ff80cc
EndChar

StartChar: Itilde
Encoding: 296 296 60
Width: 1100
VWidth: 999
Flags: HW
HStem: -212 76<179.2 885.174> 569 45<539 604> 611 46<447 514> 718 36<188.821 875.472>
VStem: 120 36<-107.953 686.051> 418 20<576 595> 482 96<42.9753 522.025> 614 20<632 652> 904 96<-118.923 694.8>
LayerCount: 3
Fore
SplineSet
582 614.1 m 0
 600.7 614.1 610.7 620.7 622.8 661.4 c 1
 645.8 653.7 l 1
 634.8 597.6 610.6 564.6 571 564.6 c 0
 551.2 564.6 533.7 576.7 517.2 588.8 c 0
 500.7 599.8 484.2 610.8 468.8 610.8 c 0
 446.8 610.8 438 598.7 429.2 566.8 c 1
 407.2 573.4 l 1
 419.3 629.5 439 660.3 475.3 660.3 c 0
 501.7 660.3 520.5 647.1 537 633.9 c 0
 551.3 622.9 565.5 614.1 582 614.1 c 0
482 374 m 2
 482 431 480 482 474 524 c 1
 476 527 l 1
 476 527 504 524 530 524 c 0
 556 524 585 527 585 527 c 1
 586 524 l 1
 580 485 578 431 578 374 c 2
 578 191 l 2
 578 134 580 83 586 41 c 1
 584 38 l 1
 584 38 556 41 530 41 c 0
 504 41 475 38 475 38 c 1
 474 41 l 1
 480 81 482 134 482 191 c 2
 482 374 l 2
249 718 m 2
 189 718 156 685 156 625 c 2
 156 -53 l 2
 156 -113 189 -136 249 -136 c 2
 821 -136 l 2
 881 -136 904 -113 904 -53 c 2
 904 625 l 2
 904 685 881 718 821 718 c 2
 249 718 l 2
1000 -84 m 2
 1000 -174 971 -212 881 -212 c 2
 249 -212 l 2
 159 -212 120 -174 120 -84 c 2
 120 625 l 2
 120 708 168 754 249 754 c 2
 851 754 l 2
 941 754 1000 715 1000 625 c 2
 1000 -84 l 2
EndSplineSet
Position2: "'cpsp' Versalabstaende 1" dx=2 dy=0 dh=4 dv=0
Colour: ff00ff
EndChar

StartChar: itilde
Encoding: 297 297 61
Width: 1120
VWidth: 999
Flags: HW
HStem: -212 76<179.2 885.174> 35 21<481 533 533 585> 37 330<489.765 580> 441 45<552.4 610.9> 483 46<469.6 529.9> 718 36<188.821 875.472>
VStem: 120 36<-107.953 686.051> 443.5 18<448 467> 489 88<39.0099 344.446> 619.9 18<504 524> 904 96<-118.923 694.8>
LayerCount: 3
Fore
SplineSet
591.1 486.1 m 0
 607.9 486.1 616.9 492.7 627.8 533.4 c 1
 648.6 525.7 l 1
 638.7 469.6 616.8 436.6 581.2 436.6 c 0
 563.4 436.6 547.5 448.7 532.7 460.8 c 0
 517.9 471.8 503.1 482.8 489.2 482.8 c 0
 469.4 482.8 461.4 470.7 453.5 438.8 c 1
 433.7 445.4 l 1
 444.6 501.5 462.4 532.3 495.1 532.3 c 0
 518.9 532.3 535.8 519.1 550.6 505.9 c 0
 563.5 494.9 576.3 486.1 591.1 486.1 c 0
489 214 m 2
 489 270 487 313 481 346 c 1
 483 348 l 1
 513 350 559 359 578 367 c 1
 582 367 585 365 585 359 c 0
 579 313 577 282 577 226 c 2
 577 173 l 2
 577 115 579 80 585 37 c 1
 583 35 l 1
 583 35 558 37 533 37 c 0
 507 37 482 35 482 35 c 1
 481 37 l 1
 487 78 489 116 489 173 c 2
 489 214 l 2
249 718 m 2
 189 718 156 685 156 625 c 2
 156 -53 l 2
 156 -113 189 -136 249 -136 c 2
 821 -136 l 2
 881 -136 904 -113 904 -53 c 2
 904 625 l 2
 904 685 881 718 821 718 c 2
 249 718 l 2
1000 -84 m 2
 1000 -174 971 -212 881 -212 c 2
 249 -212 l 2
 159 -212 120 -174 120 -84 c 2
 120 625 l 2
 120 708 168 754 249 754 c 2
 851 754 l 2
 941 754 1000 715 1000 625 c 2
 1000 -84 l 2
EndSplineSet
Colour: ff00ff
EndChar

StartChar: Imacron
Encoding: 298 298 62
Width: 1100
VWidth: 999
Flags: HW
HStem: -212 76<179.2 885.174> 619 38<442.779 678.06> 718 36<188.821 875.472>
VStem: 120 36<-107.953 686.051> 442 237<619 657> 482 96<42.9753 522.025> 904 96<-118.923 694.8>
LayerCount: 3
Fore
SplineSet
659 619 m 2
 454 619 l 2
 445 619 442 626 442 633 c 0
 442 642 451 657 461 657 c 2
 668 657 l 2
 676 657 679 650 679 644 c 0
 679 634 670 619 659 619 c 2
482 374 m 2
 482 431 480 482 474 524 c 1
 476 527 l 1
 476 527 504 524 530 524 c 0
 556 524 585 527 585 527 c 1
 586 524 l 1
 580 485 578 431 578 374 c 2
 578 191 l 2
 578 134 580 83 586 41 c 1
 584 38 l 1
 584 38 556 41 530 41 c 0
 504 41 475 38 475 38 c 1
 474 41 l 1
 480 81 482 134 482 191 c 2
 482 374 l 2
249 718 m 2
 189 718 156 685 156 625 c 2
 156 -53 l 2
 156 -113 189 -136 249 -136 c 2
 821 -136 l 2
 881 -136 904 -113 904 -53 c 2
 904 625 l 2
 904 685 881 718 821 718 c 2
 249 718 l 2
1000 -84 m 2
 1000 -174 971 -212 881 -212 c 2
 249 -212 l 2
 159 -212 120 -174 120 -84 c 2
 120 625 l 2
 120 708 168 754 249 754 c 2
 851 754 l 2
 941 754 1000 715 1000 625 c 2
 1000 -84 l 2
EndSplineSet
Position2: "'cpsp' Versalabstaende 1" dx=2 dy=0 dh=4 dv=0
Colour: ff00ff
EndChar

StartChar: imacron
Encoding: 299 299 63
Width: 1120
VWidth: 999
Flags: HW
HStem: -212 76<179.2 885.174> 35 21<481 533 533 585> 37 330<489.765 580> 473 38<437.301 649.054> 718 36<188.821 875.472>
VStem: 120 36<-107.953 686.051> 436.6 213.3<473 511> 489 88<39.0099 344.446> 904 96<-118.923 694.8>
LayerCount: 3
Fore
SplineSet
631.9 473 m 2
 447.4 473 l 2
 439.3 473 436.6 480 436.6 487 c 0
 436.6 496 444.7 511 453.7 511 c 2
 640 511 l 2
 647.2 511 649.9 504 649.9 498 c 0
 649.9 488 641.8 473 631.9 473 c 2
489 214 m 2
 489 270 487 313 481 346 c 1
 483 348 l 1
 513 350 559 359 578 367 c 1
 582 367 585 365 585 359 c 0
 579 313 577 282 577 226 c 2
 577 173 l 2
 577 115 579 80 585 37 c 1
 583 35 l 1
 583 35 558 37 533 37 c 0
 507 37 482 35 482 35 c 1
 481 37 l 1
 487 78 489 116 489 173 c 2
 489 214 l 2
249 718 m 2
 189 718 156 685 156 625 c 2
 156 -53 l 2
 156 -113 189 -136 249 -136 c 2
 821 -136 l 2
 881 -136 904 -113 904 -53 c 2
 904 625 l 2
 904 685 881 718 821 718 c 2
 249 718 l 2
1000 -84 m 2
 1000 -174 971 -212 881 -212 c 2
 249 -212 l 2
 159 -212 120 -174 120 -84 c 2
 120 625 l 2
 120 708 168 754 249 754 c 2
 851 754 l 2
 941 754 1000 715 1000 625 c 2
 1000 -84 l 2
EndSplineSet
Colour: ff00ff
EndChar

StartChar: Ibreve
Encoding: 300 300 64
Width: 1100
VWidth: 999
Flags: HW
HStem: -212 76<179.2 885.174> 669 39<392 509> 718 36<188.821 875.472>
VStem: 120 36<-107.953 686.051> 349 21<724 752> 482 96<42.9753 522.025> 532 20<725 754> 904 96<-118.923 694.8>
LayerCount: 3
Fore
SplineSet
642 674 m 1
 631 605 590 579 541 579 c 0
 486 579 442 612 439 674 c 1
 464 674 l 1
 470 645 501 628 541 628 c 0
 578 628 613 645 618 674 c 1
 642 674 l 1
482 374 m 2
 482 431 480 482 474 524 c 1
 476 527 l 1
 476 527 504 524 530 524 c 0
 556 524 585 527 585 527 c 1
 586 524 l 1
 580 485 578 431 578 374 c 2
 578 191 l 2
 578 134 580 83 586 41 c 1
 584 38 l 1
 584 38 556 41 530 41 c 0
 504 41 475 38 475 38 c 1
 474 41 l 1
 480 81 482 134 482 191 c 2
 482 374 l 2
249 718 m 2
 189 718 156 685 156 625 c 2
 156 -53 l 2
 156 -113 189 -136 249 -136 c 2
 821 -136 l 2
 881 -136 904 -113 904 -53 c 2
 904 625 l 2
 904 685 881 718 821 718 c 2
 249 718 l 2
1000 -84 m 2
 1000 -174 971 -212 881 -212 c 2
 249 -212 l 2
 159 -212 120 -174 120 -84 c 2
 120 625 l 2
 120 708 168 754 249 754 c 2
 851 754 l 2
 941 754 1000 715 1000 625 c 2
 1000 -84 l 2
EndSplineSet
Position2: "'cpsp' Versalabstaende 1" dx=2 dy=0 dh=4 dv=0
Colour: ff00ff
EndChar

StartChar: ibreve
Encoding: 301 301 65
Width: 1120
VWidth: 999
Flags: HW
HStem: -212 76<179.2 885.174> 35 21<481 533 533 585> 37 330<489.765 580> 443 58<494.693 599.929> 718 36<188.821 875.472>
VStem: 120 36<-107.953 686.051> 452.6 22.5<533.265 555.88> 489 88<39.0099 344.446> 620 21.6<535.78 556.125> 904 96<-118.923 694.8>
LayerCount: 3
Fore
SplineSet
475.1 571 m 1
 476 531 504.8 501 548 501 c 0
 579.5 501 618.2 523 620 571 c 1
 641.6 550 l 1
 634.4 471 582.2 443 548 443 c 0
 493.1 443 457.1 489 452.6 550 c 1
 475.1 571 l 1
489 214 m 2
 489 270 487 313 481 346 c 1
 483 348 l 1
 513 350 559 359 578 367 c 1
 582 367 585 365 585 359 c 0
 579 313 577 282 577 226 c 2
 577 173 l 2
 577 115 579 80 585 37 c 1
 583 35 l 1
 583 35 558 37 533 37 c 0
 507 37 482 35 482 35 c 1
 481 37 l 1
 487 78 489 116 489 173 c 2
 489 214 l 2
249 718 m 2
 189 718 156 685 156 625 c 2
 156 -53 l 2
 156 -113 189 -136 249 -136 c 2
 821 -136 l 2
 881 -136 904 -113 904 -53 c 2
 904 625 l 2
 904 685 881 718 821 718 c 2
 249 718 l 2
1000 -84 m 2
 1000 -174 971 -212 881 -212 c 2
 249 -212 l 2
 159 -212 120 -174 120 -84 c 2
 120 625 l 2
 120 708 168 754 249 754 c 2
 851 754 l 2
 941 754 1000 715 1000 625 c 2
 1000 -84 l 2
EndSplineSet
Colour: ff00ff
EndChar

StartChar: Iogonek
Encoding: 302 302 66
Width: 1100
VWidth: 999
Flags: HW
HStem: -212 76<179.2 885.174> -126 29<463.715 525.945> 42 19<514.381 543.895> 718 36<188.821 875.472>
VStem: 120 36<-107.953 686.051> 407 45<-91.0825 -5.22363> 482 96<42.9753 522.025> 904 96<-118.923 694.8>
LayerCount: 3
Fore
SplineSet
477 -126 m 0
 437 -126 407 -103 407 -62 c 0
 407 -28.6 434.5 12.4 476.2 38.1 c 1
 475.4 38 475 38 475 38 c 2
 474 41 l 1
 480 81 482 134 482 191 c 2
 482 374 l 2
 482 431 480 482 474 524 c 1
 476 527 l 1
 476 527 504 524 530 524 c 0
 556 524 585 527 585 527 c 1
 586 524 l 1
 580 485 578 431 578 374 c 2
 578 191 l 2
 578 134 580 83 586 41 c 1
 584 38 l 1
 584 38 562.3 40.3 539.4 40.9 c 1
 487.3 32.8 452 -17.2 452 -52 c 0
 452 -76 469 -97 496 -97 c 0
 518 -97 534 -86 548 -70 c 1
 560 -76 l 1
 542 -111 504 -126 477 -126 c 0
249 718 m 2
 189 718 156 685 156 625 c 2
 156 -53 l 2
 156 -113 189 -136 249 -136 c 2
 821 -136 l 2
 881 -136 904 -113 904 -53 c 2
 904 625 l 2
 904 685 881 718 821 718 c 2
 249 718 l 2
1000 -84 m 2
 1000 -174 971 -212 881 -212 c 2
 249 -212 l 2
 159 -212 120 -174 120 -84 c 2
 120 625 l 2
 120 708 168 754 249 754 c 2
 851 754 l 2
 941 754 1000 715 1000 625 c 2
 1000 -84 l 2
EndSplineSet
Position2: "'cpsp' Versalabstaende 1" dx=2 dy=0 dh=4 dv=0
Colour: ff80cc
EndChar

StartChar: iogonek
Encoding: 303 303 67
Width: 1100
VWidth: 999
Flags: HW
HStem: -212 76<179.2 885.174> -112 29<453.993 515.945> 44 330<479.765 570> 56 19<504.154 533.526> 466 104<483.248 566.752> 718 36<188.821 875.472>
VStem: 120 36<-107.953 686.051> 398 45<-77.4493 8.6543> 479 88<46.0099 351.446> 904 96<-118.923 694.8>
LayerCount: 3
Fore
SplineSet
467 -112 m 0
 427 -112 398 -89 398 -48 c 0
 398 -12.9 427.5 30.9 472.7 56.1 c 1
 477.4 92.7 479 128.6 479 180 c 2
 479 221 l 2
 479 277 477 320 471 353 c 1
 473 355 l 1
 503 357 549 366 568 374 c 1
 572 374 575 372 575 366 c 0
 569 320 567 289 567 233 c 2
 567 180 l 2
 567 122 569 87 575 44 c 1
 573 42 l 1
 573 42 548 44 523 44 c 0
 513.4 44 504 43.7 495.9 43.4 c 1
 463 24.6 443 -11.4 443 -39 c 0
 443 -63 459 -83 486 -83 c 0
 508 -83 524 -72 538 -56 c 1
 550 -62 l 1
 532 -97 494 -112 467 -112 c 0
249 718 m 2
 189 718 156 685 156 625 c 2
 156 -53 l 2
 156 -113 189 -136 249 -136 c 2
 821 -136 l 2
 881 -136 904 -113 904 -53 c 2
 904 625 l 2
 904 685 881 718 821 718 c 2
 249 718 l 2
1000 -84 m 2
 1000 -174 971 -212 881 -212 c 2
 249 -212 l 2
 159 -212 120 -174 120 -84 c 2
 120 625 l 2
 120 708 168 754 249 754 c 2
 851 754 l 2
 941 754 1000 715 1000 625 c 2
 1000 -84 l 2
473 518 m 0
 473 546 496 570 525 570 c 0
 554 570 577 546 577 518 c 0
 577 490 554 466 525 466 c 0
 496 466 473 490 473 518 c 0
EndSplineSet
Colour: ff80cc
EndChar

StartChar: Idotaccent
Encoding: 304 304 68
Width: 1100
VWidth: 999
Flags: HW
HStem: -212 76<179.2 885.174> 571 104<491.248 574.752> 718 36<188.821 875.472>
VStem: 120 36<-107.953 686.051> 481 104<580.794 665.206> 482 96<42.9753 522.025> 904 96<-118.923 694.8>
LayerCount: 3
Fore
SplineSet
481 623 m 0
 481 651 504 675 533 675 c 0
 562 675 585 651 585 623 c 0
 585 595 562 571 533 571 c 0
 504 571 481 595 481 623 c 0
482 374 m 2
 482 431 480 482 474 524 c 1
 476 527 l 1
 476 527 504 524 530 524 c 0
 556 524 585 527 585 527 c 1
 586 524 l 1
 580 485 578 431 578 374 c 2
 578 191 l 2
 578 134 580 83 586 41 c 1
 584 38 l 1
 584 38 556 41 530 41 c 0
 504 41 475 38 475 38 c 1
 474 41 l 1
 480 81 482 134 482 191 c 2
 482 374 l 2
249 718 m 2
 189 718 156 685 156 625 c 2
 156 -53 l 2
 156 -113 189 -136 249 -136 c 2
 821 -136 l 2
 881 -136 904 -113 904 -53 c 2
 904 625 l 2
 904 685 881 718 821 718 c 2
 249 718 l 2
1000 -84 m 2
 1000 -174 971 -212 881 -212 c 2
 249 -212 l 2
 159 -212 120 -174 120 -84 c 2
 120 625 l 2
 120 708 168 754 249 754 c 2
 851 754 l 2
 941 754 1000 715 1000 625 c 2
 1000 -84 l 2
EndSplineSet
Substitution2: "'c2sc' Versale nach Kapitaelchen 1" idotaccent.sc
Position2: "'cpsp' Versalabstaende 1" dx=2 dy=0 dh=4 dv=0
Colour: ff00ff
EndChar

StartChar: ampersand
Encoding: 38 38 230
Width: 1100
Flags: HW
HStem: -212 76<179.2 885.174> 34 46<696.833 767.012> 34 31<444.421 536.931> 345 20G<691.5 698 762.5 773.5> 501 31<510.833 574.711> 718 36<188.821 875.472>
VStem: 120 36<-107.953 686.051> 321 88<93.6575 220.387> 419 75<371.989 485.783> 589 70<393.873 493.787> 904 96<-118.923 694.8>
LayerCount: 3
Fore
SplineSet
494 434 m 0
 494 418 505 385 525 357 c 1
 557 382 589 407 589 437 c 0
 589 477 573 501 544 501 c 0
 519 501 494 481 494 434 c 0
588 133 m 1
 552 182 498 256 481 283 c 1
 425 247 409 216 409 169 c 0
 409 103 445 65 483 65 c 0
 524 65 553 83 588 133 c 1
630 198 m 1
 674 267 689 320 694 365 c 1
 702 363 727 363 735 363 c 0
 742 363 770 363 777 365 c 1
 748 315 676 184 660 159 c 1
 681 125 704 80 727 80 c 0
 748 80 762 87 780 123 c 1
 804 106 l 1
 769 42 741 34 708 34 c 0
 672 34 651 46 615 100 c 1
 581 63 543 34 477 34 c 0
 387 34 321 68 321 154 c 0
 321 209 351 249 465 315 c 1
 435 361 419 397 419 432 c 0
 419 477 466 532 552 532 c 0
 621 532 659 501 659 444 c 0
 659 406 612 357 548 321 c 1
 560 299 584 262 630 198 c 1
249 718 m 2
 189 718 156 685 156 625 c 2
 156 -53 l 2
 156 -113 189 -136 249 -136 c 2
 821 -136 l 2
 881 -136 904 -113 904 -53 c 2
 904 625 l 2
 904 685 881 718 821 718 c 2
 249 718 l 2
1000 -84 m 2
 1000 -174 971 -212 881 -212 c 2
 249 -212 l 2
 159 -212 120 -174 120 -84 c 2
 120 625 l 2
 120 708 168 754 249 754 c 2
 851 754 l 2
 941 754 1000 715 1000 625 c 2
 1000 -84 l 2
EndSplineSet
Substitution2: "'salt' Stilistische Alternativformen 1" ampersand.alt
Substitution2: "'smcp' Gemeine nach Kapitaelchen 1" ampersand.alt
Substitution2: "'c2sc' Versale nach Kapitaelchen 1" ampersand.alt
AlternateSubs2: "'aalt' Alle Alternativen zeigen 1" ampersand.alt
EndChar

StartChar: quotesingle
Encoding: 39 39 231
Width: 1100
Flags: HW
HStem: -212 76<179.2 885.174> 547 20G<517.5 549.5> 547 20G<517.5 549.5> 718 36<188.821 875.472>
VStem: 120 36<-107.953 686.051> 485 82<428.153 560.133> 904 96<-118.923 694.8>
LayerCount: 3
Fore
SplineSet
520 399 m 1
 509 402 l 1
 509 402 485 522 485 526 c 0
 485 544 501 567 534 567 c 0
 565 567 567 553 567 539 c 0
 567 528 540 404 540 404 c 1
 520 399 l 1
249 718 m 2
 189 718 156 685 156 625 c 2
 156 -53 l 2
 156 -113 189 -136 249 -136 c 2
 821 -136 l 2
 881 -136 904 -113 904 -53 c 2
 904 625 l 2
 904 685 881 718 821 718 c 2
 249 718 l 2
1000 -84 m 2
 1000 -174 971 -212 881 -212 c 2
 249 -212 l 2
 159 -212 120 -174 120 -84 c 2
 120 625 l 2
 120 708 168 754 249 754 c 2
 851 754 l 2
 941 754 1000 715 1000 625 c 2
 1000 -84 l 2
EndSplineSet
EndChar

StartChar: comma
Encoding: 44 44 232
Width: 1100
VWidth: 999
Flags: HW
HStem: -212 76<179.2 885.174> -114 20<486.198 509.322> -6 86<501.861 556.322> 718 36<188.821 875.472>
VStem: 120 36<-107.953 686.051> 557 33<-59.4127 20.5> 904 96<-118.923 694.8>
LayerCount: 3
Fore
SplineSet
489 32 m 1
 489 36 l 1
 497 57 509 70 533 80 c 1
 537 80 l 1
 566 69 590 47 590 -6 c 0
 590 -64 540 -105 491 -114 c 1
 485 -109 484 -102 487 -94 c 1
 530 -82 557 -46 557 -28 c 0
 557 -8 544 -6 533 -6 c 1
 508 -1 496 5 489 32 c 1
249 718 m 2
 189 718 156 685 156 625 c 2
 156 -53 l 2
 156 -113 189 -136 249 -136 c 2
 821 -136 l 2
 881 -136 904 -113 904 -53 c 2
 904 625 l 2
 904 685 881 718 821 718 c 2
 249 718 l 2
1000 -84 m 2
 1000 -174 971 -212 881 -212 c 2
 249 -212 l 2
 159 -212 120 -174 120 -84 c 2
 120 625 l 2
 120 708 168 754 249 754 c 2
 851 754 l 2
 941 754 1000 715 1000 625 c 2
 1000 -84 l 2
EndSplineSet
EndChar

StartChar: hyphen
Encoding: 45 45 233
Width: 1100
VWidth: 999
Flags: HW
HStem: -212 76<179.2 885.174> 232 54<419.995 643.68> 718 36<188.821 875.472>
VStem: 120 36<-107.953 686.051> 904 96<-118.923 694.8>
LayerCount: 3
Fore
SplineSet
627 232 m 2
 428 232 l 2
 421 232 416 238 416 245 c 0
 416 257 426 286 435 286 c 2
 637 286 l 2
 644 286 648 276 648 270 c 0
 648 261 637 232 627 232 c 2
249 718 m 2
 189 718 156 685 156 625 c 2
 156 -53 l 2
 156 -113 189 -136 249 -136 c 2
 821 -136 l 2
 881 -136 904 -113 904 -53 c 2
 904 625 l 2
 904 685 881 718 821 718 c 2
 249 718 l 2
1000 -84 m 2
 1000 -174 971 -212 881 -212 c 2
 249 -212 l 2
 159 -212 120 -174 120 -84 c 2
 120 625 l 2
 120 708 168 754 249 754 c 2
 851 754 l 2
 941 754 1000 715 1000 625 c 2
 1000 -84 l 2
EndSplineSet
Substitution2: "'c2sc' Versale nach Kapitaelchen 1" hyphen.sc
AlternateSubs2: "'aalt' Alle Alternativen zeigen 1" hyphen.sc
Substitution2: "'smcp' Gemeine nach Kapitaelchen 1" hyphen.sc
Substitution2: "'case' Versalformen 1" hyphen.cap
EndChar

StartChar: period
Encoding: 46 46 234
Width: 1100
VWidth: 999
Flags: HW
HStem: -212 76<179.2 885.174> 34 93<473.932 540.77> 718 36<188.821 875.472>
VStem: 120 36<-107.953 686.051> 460 94<45.4731 112.925> 904 96<-118.923 694.8>
LayerCount: 3
Fore
SplineSet
460 79 m 1
 460 82 l 1
 469 104 481 117 506 127 c 1
 508 127 l 1
 532 118 545 106 554 82 c 1
 554 79 l 1
 544 52 532 40 508 34 c 1
 506 34 l 1
 479 40 468 52 460 79 c 1
249 718 m 2
 189 718 156 685 156 625 c 2
 156 -53 l 2
 156 -113 189 -136 249 -136 c 2
 821 -136 l 2
 881 -136 904 -113 904 -53 c 2
 904 625 l 2
 904 685 881 718 821 718 c 2
 249 718 l 2
1000 -84 m 2
 1000 -174 971 -212 881 -212 c 2
 249 -212 l 2
 159 -212 120 -174 120 -84 c 2
 120 625 l 2
 120 708 168 754 249 754 c 2
 851 754 l 2
 941 754 1000 715 1000 625 c 2
 1000 -84 l 2
EndSplineSet
EndChar

StartChar: zero
Encoding: 48 48 235
Width: 1100
VWidth: 487
Flags: HW
HStem: -212 76<179.2 885.174> 34 32<494.883 557.393> 464 32<494.013 562.367> 718 36<188.821 875.472>
VStem: 120 36<-107.953 686.051> 369 88<135.191 381.289> 596 88<136.117 386.939> 904 96<-118.923 694.8>
LayerCount: 3
Fore
SplineSet
249 718 m 2
 189 718 156 685 156 625 c 2
 156 -53 l 2
 156 -113 189 -136 249 -136 c 2
 821 -136 l 2
 881 -136 904 -113 904 -53 c 2
 904 625 l 2
 904 685 881 718 821 718 c 2
 249 718 l 2
1000 -84 m 2
 1000 -174 971 -212 881 -212 c 2
 249 -212 l 2
 159 -212 120 -174 120 -84 c 2
 120 625 l 2
 120 708 168 754 249 754 c 2
 851 754 l 2
 941 754 1000 715 1000 625 c 2
 1000 -84 l 2
528 464 m 0
 494 464 457 436 457 252 c 0
 457 187 465 66 526 66 c 0
 589 66 596 205 596 281 c 0
 596 362 591 464 528 464 c 0
525 34 m 0
 419 34 369 140 369 260 c 0
 369 407 448 496 528 496 c 0
 608 496 684 413 684 267 c 0
 684 92 600 34 525 34 c 0
EndSplineSet
AlternateSubs2: "'aalt' Alle Alternativen zeigen 1" zero.oldstyle zero.fitted zero.slash zero.slashfitted perthousandzero
Substitution2: "'zero' gestrichene Null 1" zero.slash
Substitution2: "'sups' Hochgestellte 1" zero.superior
Substitution2: "'sinf' Wissenschaftliche Indices 1" zero.inferior
Substitution2: "'pnum' Proportionalziffern 1" zero.fitted
Substitution2: "'onum' Minuskelziffern 1" zero.taboldstyle
EndChar

StartChar: I
Encoding: 73 73 236
Width: 1100
VWidth: 999
Flags: HW
HStem: -212 76<179.2 885.174> 718 36<188.821 875.472>
VStem: 120 36<-107.953 686.051> 482 96<42.9753 522.025> 904 96<-118.923 694.8>
LayerCount: 3
Fore
SplineSet
482 374 m 2
 482 431 480 482 474 524 c 1
 476 527 l 1
 476 527 504 524 530 524 c 0
 556 524 585 527 585 527 c 1
 586 524 l 1
 580 485 578 431 578 374 c 2
 578 191 l 2
 578 134 580 83 586 41 c 1
 584 38 l 1
 584 38 556 41 530 41 c 0
 504 41 475 38 475 38 c 1
 474 41 l 1
 480 81 482 134 482 191 c 2
 482 374 l 2
249 718 m 2
 189 718 156 685 156 625 c 2
 156 -53 l 2
 156 -113 189 -136 249 -136 c 2
 821 -136 l 2
 881 -136 904 -113 904 -53 c 2
 904 625 l 2
 904 685 881 718 821 718 c 2
 249 718 l 2
1000 -84 m 2
 1000 -174 971 -212 881 -212 c 2
 249 -212 l 2
 159 -212 120 -174 120 -84 c 2
 120 625 l 2
 120 708 168 754 249 754 c 2
 851 754 l 2
 941 754 1000 715 1000 625 c 2
 1000 -84 l 2
EndSplineSet
Position2: "'cpsp' Versalabstaende 1" dx=2 dy=0 dh=4 dv=0
Substitution2: "'c2sc' Versale nach Kapitaelchen 1" i.sc
EndChar

StartChar: J
Encoding: 74 74 237
Width: 1100
VWidth: 999
Flags: HW
HStem: -212 76<179.2 885.174> 34 51<414.536 493.013> 46 72<381.985 423.577> 718 36<188.821 875.472>
VStem: 120 36<-107.953 686.051> 513 96<103.25 521.979> 904 96<-118.923 694.8>
LayerCount: 3
Fore
SplineSet
513 221 m 2
 513 374 l 2
 513 430 512 481 506 524 c 1
 507 526 l 1
 507 526 536 524 561 524 c 0
 588 524 616 526 616 526 c 1
 617 524 l 1
 611 484 609 430 609 374 c 2
 609 237 l 2
 609 151 609 119 562 71 c 0
 529 37.3 484 34 444 34 c 0
 426.8 34 385.1 39 371 46 c 1
 370 49 l 1
 378 63 382 98 385 118 c 1
 407 119 l 1
 415 104 429 85 450 85 c 0
 510 85 513 155 513 221 c 2
249 718 m 2
 189 718 156 685 156 625 c 2
 156 -53 l 2
 156 -113 189 -136 249 -136 c 2
 821 -136 l 2
 881 -136 904 -113 904 -53 c 2
 904 625 l 2
 904 685 881 718 821 718 c 2
 249 718 l 2
1000 -84 m 2
 1000 -174 971 -212 881 -212 c 2
 249 -212 l 2
 159 -212 120 -174 120 -84 c 2
 120 625 l 2
 120 708 168 754 249 754 c 2
 851 754 l 2
 941 754 1000 715 1000 625 c 2
 1000 -84 l 2
EndSplineSet
Substitution2: "'ss02' Stilgruppe 2 1" J.alt
Position2: "'cpsp' Versalabstaende 1" dx=2 dy=0 dh=4 dv=0
Substitution2: "'c2sc' Versale nach Kapitaelchen 1" j.sc
EndChar

StartChar: K
Encoding: 75 75 238
Width: 1100
VWidth: 999
Flags: HW
HStem: -212 76<179.2 885.174> 39 21G<334 390 390 446 602.5 642.5 749.322 759.5> 285 18<428 431> 508 20G<334 390 390 446 613.5 651.5 726 753> 718 36<188.821 875.472>
VStem: 120 36<-107.953 686.051> 342 96<43.9753 285 303 523.025> 426 12<285 304> 904 96<-118.923 694.8>
LayerCount: 3
Fore
SplineSet
342 375 m 2
 342 432 340 483 334 525 c 1
 336 528 l 1
 336 528 364 525 390 525 c 0
 416 525 445 528 445 528 c 1
 446 525 l 1
 440 486 438 432 438 375 c 2
 438 304.7 l 1
 441.3 305.8 445 307.5 448 310 c 0
 514 368 580 451 647 528 c 1
 656 525 696 525 706 525 c 0
 717 525 747 525 759 528 c 1
 693 470 582 366 531 307 c 1
 531 306 l 1
 767 39 l 1
 752 42 719 42 705 42 c 0
 692 42 649 42 636 39 c 1
 569 123 476 249 446 279 c 0
 443.9 280.7 440.9 282 438 283 c 1
 438 192 l 2
 438 135 440 84 446 42 c 1
 444 39 l 1
 444 39 416 42 390 42 c 0
 364 42 335 39 335 39 c 1
 334 42 l 1
 340 82 342 135 342 192 c 2
 342 375 l 2
249 718 m 2
 189 718 156 685 156 625 c 2
 156 -53 l 2
 156 -113 189 -136 249 -136 c 2
 821 -136 l 2
 881 -136 904 -113 904 -53 c 2
 904 625 l 2
 904 685 881 718 821 718 c 2
 249 718 l 2
1000 -84 m 2
 1000 -174 971 -212 881 -212 c 2
 249 -212 l 2
 159 -212 120 -174 120 -84 c 2
 120 625 l 2
 120 708 168 754 249 754 c 2
 851 754 l 2
 941 754 1000 715 1000 625 c 2
 1000 -84 l 2
EndSplineSet
Position2: "'cpsp' Versalabstaende 1" dx=2 dy=0 dh=4 dv=0
AlternateSubs2: "'aalt' Alle Alternativen zeigen 1" K.alt k.sc
Substitution2: "'ss02' Stilgruppe 2 1" K.alt
Substitution2: "'c2sc' Versale nach Kapitaelchen 1" k.sc
Colour: ff80cc
EndChar

StartChar: L
Encoding: 76 76 239
Width: 1100
VWidth: 999
Flags: HW
HStem: -212 76<179.2 885.174> 41 47<492.953 707.433> 718 36<188.821 875.472>
VStem: 120 36<-107.953 686.051> 394 96<88.8829 522.025> 904 96<-118.923 694.8>
LayerCount: 3
Fore
SplineSet
490 191 m 2
 490 178 491 106 496 88 c 1
 597 88 708 97 708 97 c 1
 709 94 l 1
 708 88 708 77 708 69 c 0
 708 62 708 51 709 41 c 1
 708 38 l 1
 696 40 678 41 663 41 c 2
 442 41 l 2
 417 41 387 38 387 38 c 1
 387 41 l 1
 393 81 394 134 394 191 c 2
 394 374 l 2
 394 431 392 482 386 524 c 1
 387 527 l 1
 387 527 417 524 442 524 c 0
 468 524 497 527 497 527 c 1
 498 524 l 1
 492 485 490 431 490 374 c 2
 490 191 l 2
249 718 m 2
 189 718 156 685 156 625 c 2
 156 -53 l 2
 156 -113 189 -136 249 -136 c 2
 821 -136 l 2
 881 -136 904 -113 904 -53 c 2
 904 625 l 2
 904 685 881 718 821 718 c 2
 249 718 l 2
1000 -84 m 2
 1000 -174 971 -212 881 -212 c 2
 249 -212 l 2
 159 -212 120 -174 120 -84 c 2
 120 625 l 2
 120 708 168 754 249 754 c 2
 851 754 l 2
 941 754 1000 715 1000 625 c 2
 1000 -84 l 2
EndSplineSet
Position2: "'cpsp' Versalabstaende 1" dx=2 dy=0 dh=4 dv=0
Substitution2: "'c2sc' Versale nach Kapitaelchen 1" l.sc
EndChar

StartChar: M
Encoding: 77 77 240
Width: 1100
Flags: HW
HStem: -212 76<179.2 885.174> 39 21G<245 253 309 313.5 482 565.5 748 759 831.5 837.5> 518 20G<301.5 392.5 726.206 795.5> 718 36<188.821 875.472>
VStem: 120 36<-107.953 686.051> 753 90<39 205.406> 904 96<-118.923 694.8>
LayerCount: 3
Fore
SplineSet
309 538 m 1
 361 538 l 1
 419.3 416.9 479.3 300.9 544.1 180.5 c 1
 737 538 l 1
 785 538 l 1
 806 356 820 202 843 39 c 1
 832 41 809 41 798 41 c 0
 787 41 765 41 753 39 c 1
 743 163 734 278 719 396 c 1
 656 280 593 166 538 41 c 1
 508 41 l 1
 458.4 147.9 399.7 259.4 343.1 370.2 c 1
 329.6 256.2 313.9 111.6 313 39 c 1
 305 41 285 41 277 41 c 0
 268 41 249 41 241 39 c 1
 265 197 294 387 309 538 c 1
249 718 m 2
 189 718 156 685 156 625 c 2
 156 -53 l 2
 156 -113 189 -136 249 -136 c 2
 821 -136 l 2
 881 -136 904 -113 904 -53 c 2
 904 625 l 2
 904 685 881 718 821 718 c 2
 249 718 l 2
1000 -84 m 2
 1000 -174 971 -212 881 -212 c 2
 249 -212 l 2
 159 -212 120 -174 120 -84 c 2
 120 625 l 2
 120 708 168 754 249 754 c 2
 851 754 l 2
 941 754 1000 715 1000 625 c 2
 1000 -84 l 2
EndSplineSet
Position2: "'cpsp' Versalabstaende 1" dx=2 dy=0 dh=4 dv=0
Substitution2: "'c2sc' Versale nach Kapitaelchen 1" m.sc
EndChar

StartChar: N
Encoding: 78 78 241
Width: 1100
VWidth: 999
Flags: HW
HStem: -212 76<179.2 885.174> 525 2<670 717.148> 718 36<188.821 875.472>
VStem: 120 36<-107.953 686.051> 322 54<42.9761 372.719> 691 55<169.249 522.979> 904 96<-118.923 694.8>
DStem2: 394 526 390 382 0.61246 -0.790501<111.382 457.675>
LayerCount: 3
Fore
SplineSet
322 375 m 2
 322 431 320 482 314 525 c 1
 316 527 l 1
 316 527 344 525 369 525 c 0
 372 525 394 526 394 526 c 1
 652 193 l 2
 684 151 691 133 691 174 c 2
 691 375 l 2
 691 431 689 482 683 525 c 1
 670 527 l 1
 670 527 700 525 718 525 c 0
 735 525 738 527 738 527 c 1
 754 525 l 1
 748 485 746 431 746 375 c 2
 746 57 l 2
 746 42 726 33 716 33 c 0
 679 33 661 39 625 85 c 2
 390 382 l 2
 362 418 376 416 376 370 c 2
 376 191 l 2
 376 135 378 83 384 41 c 1
 382 39 l 1
 382 39 367 41 349 41 c 0
 332 41 315 39 315 39 c 1
 314 41 l 1
 320 81 322 135 322 191 c 2
 322 375 l 2
249 718 m 2
 189 718 156 685 156 625 c 2
 156 -53 l 2
 156 -113 189 -136 249 -136 c 2
 821 -136 l 2
 881 -136 904 -113 904 -53 c 2
 904 625 l 2
 904 685 881 718 821 718 c 2
 249 718 l 2
1000 -84 m 2
 1000 -174 971 -212 881 -212 c 2
 249 -212 l 2
 159 -212 120 -174 120 -84 c 2
 120 625 l 2
 120 708 168 754 249 754 c 2
 851 754 l 2
 941 754 1000 715 1000 625 c 2
 1000 -84 l 2
EndSplineSet
Position2: "'cpsp' Versalabstaende 1" dx=2 dy=0 dh=4 dv=0
Substitution2: "'c2sc' Versale nach Kapitaelchen 1" n.sc
EndChar

StartChar: O
Encoding: 79 79 242
Width: 1100
VWidth: 999
Flags: HW
HStem: -212 76<179.2 885.174> 34 40<478.703 621.891> 494 40<462.788 609.918> 718 36<188.821 875.472>
VStem: 120 36<-107.953 686.051> 283 109<172.095 383.595> 687 109<177.943 394.303> 904 96<-118.923 694.8>
LayerCount: 3
Fore
SplineSet
528 494 m 0
 456 494 392 444 392 286 c 0
 392 142 463 74 553 74 c 0
 639 74 687 139 687 274 c 0
 687 430 634 494 528 494 c 0
796 288 m 0
 796 138 699 34 538 34 c 0
 390 34 283 132 283 274 c 0
 283 420 385 534 538 534 c 0
 697 534 796 436 796 288 c 0
249 718 m 2
 189 718 156 685 156 625 c 2
 156 -53 l 2
 156 -113 189 -136 249 -136 c 2
 821 -136 l 2
 881 -136 904 -113 904 -53 c 2
 904 625 l 2
 904 685 881 718 821 718 c 2
 249 718 l 2
1000 -84 m 2
 1000 -174 971 -212 881 -212 c 2
 249 -212 l 2
 159 -212 120 -174 120 -84 c 2
 120 625 l 2
 120 708 168 754 249 754 c 2
 851 754 l 2
 941 754 1000 715 1000 625 c 2
 1000 -84 l 2
EndSplineSet
Position2: "'cpsp' Versalabstaende 1" dx=2 dy=0 dh=4 dv=0
Substitution2: "'c2sc' Versale nach Kapitaelchen 1" o.sc
EndChar

StartChar: P
Encoding: 80 80 243
Width: 1100
VWidth: 999
Flags: HW
HStem: -212 76<179.2 885.174> 253 32<463.636 578.1> 498 32<441.076 581.199> 718 36<188.821 875.472>
VStem: 120 36<-107.953 686.051> 369 94<43.0215 260 286.732 493.486> 606 105<335.916 464.917> 904 96<-118.923 694.8>
LayerCount: 3
Fore
SplineSet
463 465 m 2
 463 292 l 1
 473 287 496 285 515 285 c 0
 588 285 606 311 606 392 c 0
 606 487 575 498 523 498 c 0
 469 498 463 487 463 465 c 2
369 375 m 2
 369 431 367 482 361 525 c 1
 363 527 l 1
 363 527 390 525 415 525 c 0
 438 525 509 530 528 530 c 0
 667 530 711 450 711 406 c 0
 711 342 655 253 519 253 c 0
 492 253 480 255 463 260 c 1
 463 191 l 2
 463 135 465 84 471 41 c 1
 469 39 l 1
 469 39 441 41 415 41 c 0
 389 41 362 39 362 39 c 1
 361 41 l 1
 367 82 369 135 369 191 c 2
 369 375 l 2
249 718 m 2
 189 718 156 685 156 625 c 2
 156 -53 l 2
 156 -113 189 -136 249 -136 c 2
 821 -136 l 2
 881 -136 904 -113 904 -53 c 2
 904 625 l 2
 904 685 881 718 821 718 c 2
 249 718 l 2
1000 -84 m 2
 1000 -174 971 -212 881 -212 c 2
 249 -212 l 2
 159 -212 120 -174 120 -84 c 2
 120 625 l 2
 120 708 168 754 249 754 c 2
 851 754 l 2
 941 754 1000 715 1000 625 c 2
 1000 -84 l 2
EndSplineSet
Position2: "'cpsp' Versalabstaende 1" dx=2 dy=0 dh=4 dv=0
Substitution2: "'c2sc' Versale nach Kapitaelchen 1" p.sc
EndChar

StartChar: Q
Encoding: 81 81 244
Width: 1100
VWidth: 999
Flags: HW
HStem: -212 76<179.2 885.174> 34 39<458.784 607.971> 495 39<442.905 588.092> 718 36<188.821 875.472>
VStem: 120 36<-107.953 686.051> 266 106<171.979 383.673> 667 106<175.022 396.771> 904 96<-118.923 694.8>
LayerCount: 3
Fore
SplineSet
508 495 m 0
 436 495 372 444 372 286 c 0
 372 142 443 73 533 73 c 0
 619 73 667 139 667 274 c 0
 667 430 614 495 508 495 c 0
249 718 m 2
 189 718 156 685 156 625 c 2
 156 -53 l 2
 156 -113 189 -136 249 -136 c 2
 821 -136 l 2
 881 -136 904 -113 904 -53 c 2
 904 625 l 2
 904 685 881 718 821 718 c 2
 249 718 l 2
1000 -84 m 2
 1000 -174 971 -212 881 -212 c 2
 249 -212 l 2
 159 -212 120 -174 120 -84 c 2
 120 625 l 2
 120 708 168 754 249 754 c 2
 851 754 l 2
 941 754 1000 715 1000 625 c 2
 1000 -84 l 2
684.3 85.5 m 1
 726.1 60.7 782.8 24.7 856 0 c 1
 856 -5 l 1
 829 -19 800 -43 785 -54 c 1
 705.7 -8.7 708.4 4.5 622.3 51.3 c 1
 591.7 40 556.8 34 518 34 c 0
 370 34 266 132 266 274 c 0
 266 420 365 534 518 534 c 0
 677 534 773 436 773 288 c 0
 773 201.5 741.7 130.3 684.3 85.5 c 1
EndSplineSet
Position2: "'cpsp' Versalabstaende 1" dx=2 dy=0 dh=4 dv=0
Substitution2: "'c2sc' Versale nach Kapitaelchen 1" q.sc
Colour: ff80cc
EndChar

StartChar: R
Encoding: 82 82 245
Width: 1100
VWidth: 999
Flags: HW
HStem: -212 76<179.2 885.174> 256 39<454 567.238> 494 36<431.813 576.366> 718 36<188.821 875.472>
VStem: 120 36<-107.953 686.051> 358 96<43.0215 256 295 489.097> 597 104<325.315 471.072> 904 96<-118.923 694.8>
LayerCount: 3
Fore
SplineSet
516 494 m 0
 463 494 454 483 454 461 c 2
 454 295 l 1
 490 295 l 2
 563 295 597 306 597 400 c 0
 597 488 562 494 516 494 c 0
454 256 m 1
 454 191 l 2
 454 135 455 84 461 41 c 1
 460 39 l 1
 460 39 431 41 406 41 c 0
 380 41 351 39 351 39 c 1
 350 41 l 1
 356 82 358 135 358 191 c 2
 358 375 l 2
 358 431 356 482 350 525 c 1
 352 527 l 1
 352 527 380 525 406 525 c 0
 428 525 497 530 515 530 c 0
 608 530 701 504 701 400 c 0
 701 321.3 650.6 285.4 588.1 269.1 c 1
 636.1 206.2 716.7 84.1 755 41 c 1
 753 39 l 1
 738 41 713 41 698 41 c 0
 684 41 662 41 647 39 c 1
 639 64 605 119 567 173 c 0
 546.5 202.4 524.5 232.5 502.3 257.1 c 1
 485.7 256.2 469.4 256 454 256 c 1
249 718 m 2
 189 718 156 685 156 625 c 2
 156 -53 l 2
 156 -113 189 -136 249 -136 c 2
 821 -136 l 2
 881 -136 904 -113 904 -53 c 2
 904 625 l 2
 904 685 881 718 821 718 c 2
 249 718 l 2
1000 -84 m 2
 1000 -174 971 -212 881 -212 c 2
 249 -212 l 2
 159 -212 120 -174 120 -84 c 2
 120 625 l 2
 120 708 168 754 249 754 c 2
 851 754 l 2
 941 754 1000 715 1000 625 c 2
 1000 -84 l 2
EndSplineSet
Position2: "'cpsp' Versalabstaende 1" dx=2 dy=0 dh=4 dv=0
AlternateSubs2: "'aalt' Alle Alternativen zeigen 1" R.alt r.sc
Substitution2: "'ss02' Stilgruppe 2 1" R.alt
Substitution2: "'c2sc' Versale nach Kapitaelchen 1" r.sc
EndChar

StartChar: S
Encoding: 83 83 246
Width: 1100
VWidth: 999
Flags: HW
HStem: -212 76<179.2 885.174> 34 38<435.937 572.244> 498 36<467.758 582.723> 718 36<188.821 875.472>
VStem: 120 36<-107.953 686.051> 350 95<369.506 469.829> 597 106<109.572 225.141> 904 96<-118.923 694.8>
LayerCount: 3
Fore
SplineSet
511 72 m 0
 567 72 597 101 597 154 c 0
 597 214 577 237 526 255 c 0
 451 281 350 321 350 405 c 0
 350 484 430 534 524 534 c 0
 624 534 672 501 672 501 c 1
 673 498 l 1
 665 476 659 439 656 412 c 1
 649 412 l 1
 626 458 576 498 517 498 c 0
 472 498 445 471 445 425 c 0
 445 363 504 340 538 329 c 0
 607 306 703 268 703 180 c 0
 703 104 637 34 505 34 c 0
 404 34 338 67 338 67 c 1
 335 70 l 1
 342 92 349 130 353 157 c 1
 361 158 l 1
 384 112 452 72 511 72 c 0
249 718 m 2
 189 718 156 685 156 625 c 2
 156 -53 l 2
 156 -113 189 -136 249 -136 c 2
 821 -136 l 2
 881 -136 904 -113 904 -53 c 2
 904 625 l 2
 904 685 881 718 821 718 c 2
 249 718 l 2
1000 -84 m 2
 1000 -174 971 -212 881 -212 c 2
 249 -212 l 2
 159 -212 120 -174 120 -84 c 2
 120 625 l 2
 120 708 168 754 249 754 c 2
 851 754 l 2
 941 754 1000 715 1000 625 c 2
 1000 -84 l 2
EndSplineSet
Position2: "'cpsp' Versalabstaende 1" dx=2 dy=0 dh=4 dv=0
Substitution2: "'c2sc' Versale nach Kapitaelchen 1" s.sc
EndChar

StartChar: T
Encoding: 84 84 247
Width: 1100
VWidth: 999
Flags: HW
HStem: -212 76<179.2 885.174> 464 21G<314 467 575 728> 473 51<316.566 469.895 572.105 725.434> 718 36<188.821 875.472>
VStem: 120 36<-107.953 686.051> 473 96<42.9753 472.115> 904 96<-118.923 694.8>
LayerCount: 3
Fore
SplineSet
473 368 m 2
 473 380 472 455 467 473 c 1
 366 473 316 464 316 464 c 1
 314 467 l 1
 316 479 316 503 314 524 c 1
 316 527 l 1
 328 525 345 524 360 524 c 2
 682 524 l 2
 697 524 714 525 726 527 c 1
 728 524 l 1
 726 503 726 479 728 467 c 1
 726 464 l 1
 726 464 676 473 575 473 c 1
 570 455 569 380 569 368 c 2
 569 191 l 2
 569 134 570 83 576 41 c 1
 575 38 l 1
 575 38 546 41 521 41 c 0
 495 41 466 38 466 38 c 1
 466 41 l 1
 472 81 473 134 473 191 c 2
 473 368 l 2
249 718 m 2
 189 718 156 685 156 625 c 2
 156 -53 l 2
 156 -113 189 -136 249 -136 c 2
 821 -136 l 2
 881 -136 904 -113 904 -53 c 2
 904 625 l 2
 904 685 881 718 821 718 c 2
 249 718 l 2
1000 -84 m 2
 1000 -174 971 -212 881 -212 c 2
 249 -212 l 2
 159 -212 120 -174 120 -84 c 2
 120 625 l 2
 120 708 168 754 249 754 c 2
 851 754 l 2
 941 754 1000 715 1000 625 c 2
 1000 -84 l 2
EndSplineSet
Position2: "'cpsp' Versalabstaende 1" dx=2 dy=0 dh=4 dv=0
Substitution2: "'c2sc' Versale nach Kapitaelchen 1" t.sc
EndChar

StartChar: U
Encoding: 85 85 248
Width: 1100
VWidth: 999
Flags: HW
HStem: -212 76<179.2 885.174> 34 45<473.459 618.202> 718 36<188.821 875.472>
VStem: 120 36<-107.953 686.051> 332 96<130.216 523.979> 666 64<139.167 523.979> 904 96<-118.923 694.8>
LayerCount: 3
Fore
SplineSet
666 376 m 2
 666 432 664 483 658 526 c 1
 660 528 l 1
 660 528 680 526 698 526 c 0
 715 526 736 528 736 528 c 1
 737 526 l 1
 731 486 730 432 730 376 c 2
 730 263 l 2
 730 123 673 34 524 34 c 0
 446 34 332 66 332 219 c 2
 332 376 l 2
 332 432 331 483 325 526 c 1
 326 528 l 1
 326 528 355 526 380 526 c 0
 406 526 435 528 435 528 c 1
 436 526 l 1
 430 486 428 432 428 376 c 2
 428 244 l 2
 428 187 431 79 540 79 c 0
 655 79 666 166 666 250 c 2
 666 376 l 2
249 718 m 2
 189 718 156 685 156 625 c 2
 156 -53 l 2
 156 -113 189 -136 249 -136 c 2
 821 -136 l 2
 881 -136 904 -113 904 -53 c 2
 904 625 l 2
 904 685 881 718 821 718 c 2
 249 718 l 2
1000 -84 m 2
 1000 -174 971 -212 881 -212 c 2
 249 -212 l 2
 159 -212 120 -174 120 -84 c 2
 120 625 l 2
 120 708 168 754 249 754 c 2
 851 754 l 2
 941 754 1000 715 1000 625 c 2
 1000 -84 l 2
EndSplineSet
Position2: "'cpsp' Versalabstaende 1" dx=2 dy=0 dh=4 dv=0
Substitution2: "'c2sc' Versale nach Kapitaelchen 1" u.sc
EndChar

StartChar: V
Encoding: 86 86 249
Width: 1100
Flags: HW
HStem: -212 76<179.2 885.174> 39 21G<474.5 582> 513 20G<309.5 322 414.5 424.5 674 691.5 729 762.5> 718 36<188.821 875.472>
VStem: 120 36<-107.953 686.051> 904 96<-118.923 694.8>
LayerCount: 3
Fore
SplineSet
249 718 m 2
 189 718 156 685 156 625 c 2
 156 -53 l 2
 156 -113 189 -136 249 -136 c 2
 821 -136 l 2
 881 -136 904 -113 904 -53 c 2
 904 625 l 2
 904 685 881 718 821 718 c 2
 249 718 l 2
1000 -84 m 2
 1000 -174 971 -212 881 -212 c 2
 249 -212 l 2
 159 -212 120 -174 120 -84 c 2
 120 625 l 2
 120 708 168 754 249 754 c 2
 851 754 l 2
 941 754 1000 715 1000 625 c 2
 1000 -84 l 2
549.2 180.8 m 1
 600.9 299.6 663.4 444.8 687 533 c 1
 696 531 732 531 740 531 c 0
 749 531 758 531 767 533 c 1
 691 367 618 206 546 39 c 1
 509 39 l 1
 440 203 341 457 303 533 c 1
 316 531 351 531 364 531 c 0
 377 531 408 531 421 533 c 1
 427.6 508.4 462.2 387.5 549.2 180.8 c 1
EndSplineSet
Position2: "'cpsp' Versalabstaende 1" dx=2 dy=0 dh=4 dv=0
Substitution2: "'c2sc' Versale nach Kapitaelchen 1" v.sc
AlternateSubs2: "'aalt' Alle Alternativen zeigen 1" V.alt
EndChar

StartChar: W
Encoding: 87 87 250
Width: 1100
Flags: HW
HStem: -212 76<179.2 885.174> 718 36<188.821 875.472>
VStem: 120 36<-107.953 686.051> 191 109<485.441 533> 786 79<480.009 533> 904 96<-118.923 694.8>
LayerCount: 3
Fore
SplineSet
249 718 m 2
 189 718 156 685 156 625 c 2
 156 -53 l 2
 156 -113 189 -136 249 -136 c 2
 821 -136 l 2
 881 -136 904 -113 904 -53 c 2
 904 625 l 2
 904 685 881 718 821 718 c 2
 249 718 l 2
1000 -84 m 2
 1000 -174 971 -212 881 -212 c 2
 249 -212 l 2
 159 -212 120 -174 120 -84 c 2
 120 625 l 2
 120 708 168 754 249 754 c 2
 851 754 l 2
 941 754 1000 715 1000 625 c 2
 1000 -84 l 2
684.6 178.6 m 1
 723.5 291 765.1 438.4 786 533 c 1
 795 531 816 531 824 531 c 0
 832 531 856 531 865 533 c 1
 802 370 741 201 684 39 c 1
 652 39 l 1
 621 112.7 584 204.6 549.2 290.3 c 1
 432 39 l 1
 396 39 l 1
 327 203 228 457 191 533 c 1
 204 531 234 531 247 531 c 0
 259 531 287 531 300 533 c 1
 306.8 507.6 344.1 378.6 440.5 156.2 c 1
 466.8 216.6 497.1 285.9 524.1 351.8 c 1
 491.6 431.5 463.3 499.5 447 533 c 1
 459 531 490 531 502 531 c 0
 515 531 547 531 559 533 c 1
 566.4 508.9 627.9 319.3 684.6 178.6 c 1
EndSplineSet
Position2: "'cpsp' Versalabstaende 1" dx=2 dy=0 dh=4 dv=0
Substitution2: "'c2sc' Versale nach Kapitaelchen 1" w.sc
AlternateSubs2: "'aalt' Alle Alternativen zeigen 1" W.alt
EndChar

StartChar: X
Encoding: 88 88 251
Width: 1100
Flags: HW
HStem: -212 76<179.2 885.174> 718 36<188.821 875.472>
VStem: 120 36<-107.953 686.051> 904 96<-118.923 694.8>
DStem2: 406 527 282 527 0.602348 -0.798234<-13.3877 216.204 303.921 532.46> 479 274 513 227 0.613078 0.790023<-237.545 -16.2864 99.5503 313.551>
LayerCount: 3
Fore
SplineSet
1000 -84 m 2
 1000 -174 971 -212 881 -212 c 2
 249 -212 l 2
 159 -212 120 -174 120 -84 c 2
 120 625 l 2
 120 708 168 754 249 754 c 2
 851 754 l 2
 941 754 1000 715 1000 625 c 2
 1000 -84 l 2
249 718 m 2
 189 718 156 685 156 625 c 2
 156 -53 l 2
 156 -113 189 -136 249 -136 c 2
 821 -136 l 2
 881 -136 904 -113 904 -53 c 2
 904 625 l 2
 904 685 881 718 821 718 c 2
 249 718 l 2
775 38 m 1
 760 41 728 41 713 41 c 0
 699 41 663 41 648 38 c 1
 609 106 559 163 513 227 c 1
 471 168 418 104 378 38 c 1
 369 41 354 41 344 41 c 0
 334 41 301 41 291 38 c 1
 479 274 l 1
 282 527 l 1
 295 524 332 524 345 524 c 0
 359 524 391 524 406 527 c 1
 434 482 478 429 537 355 c 1
 572 394 630 466 670 527 c 1
 679 524 712 524 721 524 c 0
 730 524 746 524 755 527 c 1
 570 310 l 1
 775 38 l 1
EndSplineSet
Position2: "'cpsp' Versalabstaende 1" dx=2 dy=0 dh=4 dv=0
Substitution2: "'c2sc' Versale nach Kapitaelchen 1" x.sc
EndChar

StartChar: Y
Encoding: 89 89 252
Width: 1100
Flags: HW
HStem: -212 76<179.2 885.174> 38 21G<479.5 483 580 584> 507 20G<316 325 420.5 447.5 654.5 678 707 747> 718 36<188.821 875.472>
VStem: 120 36<-107.953 686.051> 482 98<40.3982 287> 904 96<-118.923 694.8>
LayerCount: 3
Fore
SplineSet
249 718 m 2
 189 718 156 685 156 625 c 2
 156 -53 l 2
 156 -113 189 -136 249 -136 c 2
 821 -136 l 2
 881 -136 904 -113 904 -53 c 2
 904 625 l 2
 904 685 881 718 821 718 c 2
 249 718 l 2
1000 -84 m 2
 1000 -174 971 -212 881 -212 c 2
 249 -212 l 2
 159 -212 120 -174 120 -84 c 2
 120 625 l 2
 120 708 168 754 249 754 c 2
 851 754 l 2
 941 754 1000 715 1000 625 c 2
 1000 -84 l 2
580.2 254.3 m 1
 580.8 180 582.7 73.9 586 38 c 1
 574 41 542 41 531 41 c 0
 520 41 489 41 477 38 c 1
 481.2 79.8 481.9 174 482 247 c 1
 454 296.1 340 482 310 527 c 1
 322 524 356 524 368 524 c 0
 381 524 414 524 427 527 c 1
 464.8 452.3 506 385.3 550.6 309.5 c 1
 592 374.6 638.1 453.3 674 527 c 1
 682 524 711 524 721 524 c 0
 730 524 742 524 752 527 c 1
 662.2 388.3 610.2 314.2 580.2 254.3 c 1
EndSplineSet
Position2: "'cpsp' Versalabstaende 1" dx=2 dy=0 dh=4 dv=0
Substitution2: "'c2sc' Versale nach Kapitaelchen 1" y.sc
EndChar

StartChar: Z
Encoding: 90 90 253
Width: 1100
VWidth: 999
Flags: HW
HStem: -212 76<179.2 885.174> 41 55<518.105 736> 41 47<436 645.632> 469 56<340 562.603> 476.8 48.2<396.333 609> 718 36<188.821 875.472>
VStem: 120 36<-107.953 686.051> 904 96<-118.923 694.8>
DStem2: 316 70 440 95 0.584227 0.811591<84.8633 501.342>
LayerCount: 3
Fore
SplineSet
609 476.8 m 1
 527 475.8 443.8 471.7 340 469 c 1
 338 472 l 1
 339 478 340 489 340 496 c 0
 340 504 339 514 338 525 c 1
 340 527 l 1
 352 526 369 525 386 525 c 2
 644 525 l 2
 668 525 727 528 739 529 c 0
 742 529 744 528 744 525 c 0
 744 516 736 505 721 484 c 2
 440 95 l 1
 440 95 436 92 436 88 c 1
 534 88 736 96 736 96 c 1
 738 94 l 1
 737 88 736 77 736 70 c 0
 736 62 737 52 738 41 c 1
 736 39 l 1
 724 40 710 41 683 41 c 2
 396 41 l 2
 373 41 299 39 299 39 c 1
 296 42 l 1
 305 52 312 64 316 70 c 2
 609 476.8 l 1
249 718 m 2
 189 718 156 685 156 625 c 2
 156 -53 l 2
 156 -113 189 -136 249 -136 c 2
 821 -136 l 2
 881 -136 904 -113 904 -53 c 2
 904 625 l 2
 904 685 881 718 821 718 c 2
 249 718 l 2
1000 -84 m 2
 1000 -174 971 -212 881 -212 c 2
 249 -212 l 2
 159 -212 120 -174 120 -84 c 2
 120 625 l 2
 120 708 168 754 249 754 c 2
 851 754 l 2
 941 754 1000 715 1000 625 c 2
 1000 -84 l 2
EndSplineSet
Layer: 2
SplineSet
-16 -134 m 6
 -16 628 l 6
 -16 672 21 707 63 707 c 6
 575 707 l 6
 617 707 654 672 654 628 c 6
 654 -134 l 6
 654 -178 616 -212 575 -212 c 6
 63 -212 l 6
 22 -212 -16 -178 -16 -134 c 6
575 661 m 6
 63 661 l 6
 49 661 30 650 30 628 c 6
 30 -133 l 6
 30 -152 46 -166 63 -166 c 6
 575 -166 l 6
 592 -166 608 -152 608 -133 c 6
 608 628 l 6
 608 650 589 661 575 661 c 6
EndSplineSet
Position2: "'cpsp' Versalabstaende 1" dx=2 dy=0 dh=4 dv=0
Substitution2: "'c2sc' Versale nach Kapitaelchen 1" z.sc
EndChar

StartChar: bracketleft
Encoding: 91 91 254
Width: 1100
VWidth: 999
Flags: HW
HStem: -212 76<179.2 885.174> -80 28<550.932 631> 562 29<549.373 631> 718 36<188.821 875.472>
VStem: 120 36<-107.953 686.051> 442 79<-33.6958 544.532> 904 96<-118.923 694.8>
LayerCount: 3
Fore
SplineSet
442 -80 m 1
 442 591 l 1
 631 591 l 1
 631 562 l 1
 529 554 521 543 521 478 c 2
 521 33 l 2
 521 -32 528 -43 631 -52 c 1
 631 -80 l 1
 442 -80 l 1
249 718 m 2
 189 718 156 685 156 625 c 2
 156 -53 l 2
 156 -113 189 -136 249 -136 c 2
 821 -136 l 2
 881 -136 904 -113 904 -53 c 2
 904 625 l 2
 904 685 881 718 821 718 c 2
 249 718 l 2
1000 -84 m 2
 1000 -174 971 -212 881 -212 c 2
 249 -212 l 2
 159 -212 120 -174 120 -84 c 2
 120 625 l 2
 120 708 168 754 249 754 c 2
 851 754 l 2
 941 754 1000 715 1000 625 c 2
 1000 -84 l 2
EndSplineSet
Substitution2: "'c2sc' Versale nach Kapitaelchen 1" bracketleft.sc
AlternateSubs2: "'aalt' Alle Alternativen zeigen 1" bracketleft.sc
Substitution2: "'case' Versalformen 1" bracketleft.sc
EndChar

StartChar: backslash
Encoding: 92 92 255
Width: 1100
VWidth: 999
Flags: HMW
HStem: 597 8G<438 474>
DStem2: 472 605 438 605 0.294569 -0.95563<0 575.841>
LayerCount: 3
Fore
SplineSet
491 565 m 1
 664 5 l 1
 611 5 l 1
 438 565 l 1
 491 565 l 1
249 718 m 2
 189 718 156 685 156 625 c 2
 156 -53 l 2
 156 -113 189 -136 249 -136 c 2
 821 -136 l 2
 881 -136 904 -113 904 -53 c 2
 904 625 l 2
 904 685 881 718 821 718 c 2
 249 718 l 2
1000 -84 m 2
 1000 -174 971 -212 881 -212 c 2
 249 -212 l 2
 159 -212 120 -174 120 -84 c 2
 120 625 l 2
 120 708 168 754 249 754 c 2
 851 754 l 2
 941 754 1000 715 1000 625 c 2
 1000 -84 l 2
EndSplineSet
EndChar

StartChar: bracketright
Encoding: 93 93 256
Width: 1100
VWidth: 999
Flags: HW
HStem: -212 76<179.2 885.174> -80 28<469 549.068> 562 29<469 550.627> 718 36<188.821 875.472>
VStem: 120 36<-107.953 686.051> 579 79<-33.6958 544.532> 904 96<-118.923 694.8>
LayerCount: 3
Fore
SplineSet
658 -80 m 1
 469 -80 l 1
 469 -52 l 1
 572 -43 579 -32 579 33 c 2
 579 478 l 2
 579 543 571 554 469 562 c 1
 469 591 l 1
 658 591 l 1
 658 -80 l 1
249 718 m 2
 189 718 156 685 156 625 c 2
 156 -53 l 2
 156 -113 189 -136 249 -136 c 2
 821 -136 l 2
 881 -136 904 -113 904 -53 c 2
 904 625 l 2
 904 685 881 718 821 718 c 2
 249 718 l 2
1000 -84 m 2
 1000 -174 971 -212 881 -212 c 2
 249 -212 l 2
 159 -212 120 -174 120 -84 c 2
 120 625 l 2
 120 708 168 754 249 754 c 2
 851 754 l 2
 941 754 1000 715 1000 625 c 2
 1000 -84 l 2
EndSplineSet
Substitution2: "'c2sc' Versale nach Kapitaelchen 1" bracketright.sc
AlternateSubs2: "'aalt' Alle Alternativen zeigen 1" bracketright.sc
Substitution2: "'case' Versalformen 1" bracketright.sc
Colour: ff00ff
EndChar

StartChar: uni02C4
Encoding: 708 708 257
Width: 518
VWidth: 999
Flags: HW
LayerCount: 3
Fore
SplineSet
319 362 m 1
 252 195 l 1
 209 195 l 1
 304 423 l 1
 336 423 l 1
 430 195 l 1
 387 195 l 1
 319 362 l 1
EndSplineSet
Colour: ff00ff
EndChar

StartChar: underscore
Encoding: 95 95 258
Width: 1100
VWidth: 999
Flags: HW
HStem: -212 76<179.2 885.174> -18 39<375 732> 718 36<188.821 875.472>
VStem: 120 36<-107.953 686.051> 904 96<-118.923 694.8>
LayerCount: 3
Fore
SplineSet
732 21 m 1
 732 -18 l 1
 375 -18 l 1
 375 21 l 1
 732 21 l 1
249 718 m 2
 189 718 156 685 156 625 c 2
 156 -53 l 2
 156 -113 189 -136 249 -136 c 2
 821 -136 l 2
 881 -136 904 -113 904 -53 c 2
 904 625 l 2
 904 685 881 718 821 718 c 2
 249 718 l 2
1000 -84 m 2
 1000 -174 971 -212 881 -212 c 2
 249 -212 l 2
 159 -212 120 -174 120 -84 c 2
 120 625 l 2
 120 708 168 754 249 754 c 2
 851 754 l 2
 941 754 1000 715 1000 625 c 2
 1000 -84 l 2
EndSplineSet
EndChar

StartChar: a
Encoding: 97 97 259
Width: 1100
VWidth: 999
Flags: HW
HStem: -212 76<179.2 885.174> 36 48<467.504 544.014 618.5 698.581> 332 41<465.184 562.304> 718 36<188.821 875.472>
VStem: 120 36<-107.953 686.051> 374 90<84.5338 168.541> 576 83<106.606 208 245.002 319.583> 904 96<-118.923 694.8>
DStem2: 506 229 516 192 0.97185 0.2356<-47.2497 63.0819>
AnchorPoint: "ogonek" 693 66 basechar 0
AnchorPoint: "unten_anhang" 482 50 basechar 0
AnchorPoint: "unten_punkt" 504 -27 basechar 0
AnchorPoint: "top_punkt" 515 466 basechar 0
AnchorPoint: "top_akzent" 514 537 basechar 0
LayerCount: 3
Fore
SplineSet
576 208 m 1
 516 192 l 2
 474 181 464 155 464 124 c 0
 464 104 476 81 499 81 c 0
 520 81 544 98 563 113 c 0
 569 118 576 123 576 133 c 2
 576 208 l 1
656 107 m 0
 656 92 665 84 674 84 c 0
 684 84 694 95 701 100 c 1
 703 98 l 1
 711 94 715 86 719 78 c 1
 695 48 664 36 635 36 c 0
 602 36 581 56 575 80 c 1
 574 80 l 1
 536 46 499 36 470 36 c 0
 417 36 374 62 374 117 c 0
 374 168 434 212 506 229 c 2
 572 245 l 2
 574 245 576 248 576 254 c 0
 576 311 557 332 517 332 c 0
 483 332 452 307 432 273 c 1
 415 274 l 1
 395 323 l 1
 398 326 l 1
 416 342 470 373 524 373 c 0
 591 373 659 348 659 251 c 0
 659 243 656 129 656 107 c 0
249 718 m 2
 189 718 156 685 156 625 c 2
 156 -53 l 2
 156 -113 189 -136 249 -136 c 2
 821 -136 l 2
 881 -136 904 -113 904 -53 c 2
 904 625 l 2
 904 685 881 718 821 718 c 2
 249 718 l 2
1000 -84 m 2
 1000 -174 971 -212 881 -212 c 2
 249 -212 l 2
 159 -212 120 -174 120 -84 c 2
 120 625 l 2
 120 708 168 754 249 754 c 2
 851 754 l 2
 941 754 1000 715 1000 625 c 2
 1000 -84 l 2
EndSplineSet
Substitution2: "'sups' Hochgestellte 1" a.superior
AlternateSubs2: "'aalt' Alle Alternativen zeigen 1" a.sc
Substitution2: "'sinf' Wissenschaftliche Indices 1" a.inferior
Substitution2: "'smcp' Gemeine nach Kapitaelchen 1" a.sc
EndChar

StartChar: b
Encoding: 98 98 260
Width: 1100
VWidth: 999
Flags: HW
HStem: -212 76<179.2 885.174> 38 40<481.259 582.134> 327 47<488.149 592.778> 549 20G<458.5 470.5> 549 20G<458.5 470.5> 718 36<188.821 875.472>
VStem: 120 36<-107.953 686.051> 372 103<423.567 550> 379 89<90.2292 312.675 334 546.485> 618 92<138.666 301.432> 904 96<-118.923 694.8>
AnchorPoint: "unten_punkt" 545 5 basechar 0
AnchorPoint: "top_punkt" 558 500 basechar 0
LayerCount: 3
Fore
SplineSet
468 113 m 1
 482 94 500 78 524 78 c 0
 595 78 618 128 618 214 c 0
 618 286 592 327 546 327 c 0
 538 327 497 326 468 296 c 1
 468 113 l 1
468 421 m 2
 468 334 l 1
 493 362 525 374 561 374 c 0
 626 374 710 319 710 227 c 0
 710 108 605 38 528 38 c 0
 496 38 474 47 452 66 c 1
 441 56 423 47 416 37 c 1
 409 37 380 38 375 40 c 1
 378 57 379 70 379 99 c 2
 379 407 l 2
 379 464 377 516 372 548 c 1
 373 550 l 1
 403 553 449 562 468 569 c 1
 473 569 475 567 475 562 c 0
 469 516 468 476 468 421 c 2
249 718 m 2
 189 718 156 685 156 625 c 2
 156 -53 l 2
 156 -113 189 -136 249 -136 c 2
 821 -136 l 2
 881 -136 904 -113 904 -53 c 2
 904 625 l 2
 904 685 881 718 821 718 c 2
 249 718 l 2
1000 -84 m 2
 1000 -174 971 -212 881 -212 c 2
 249 -212 l 2
 159 -212 120 -174 120 -84 c 2
 120 625 l 2
 120 708 168 754 249 754 c 2
 851 754 l 2
 941 754 1000 715 1000 625 c 2
 1000 -84 l 2
EndSplineSet
Substitution2: "'sinf' Wissenschaftliche Indices 1" b.inferior
Substitution2: "'sups' Hochgestellte 1" b.superior
AlternateSubs2: "'aalt' Alle Alternativen zeigen 1" b.sc
Substitution2: "'smcp' Gemeine nach Kapitaelchen 1" b.sc
EndChar

StartChar: c
Encoding: 99 99 261
Width: 1100
VWidth: 999
Flags: HW
HStem: -212 76<179.2 885.174> 36 49<491.126 604.454> 270 79<603.685 631> 332 41<483.459 583.665> 718 36<188.821 875.472>
VStem: 120 36<-107.953 686.051> 356 92<133.805 284.862> 904 96<-118.923 694.8>
AnchorPoint: "ogonek" 620 92 basechar 0
AnchorPoint: "unten_anhang" 540 56 basechar 0
AnchorPoint: "unten_punkt" 528 -31 basechar 0
AnchorPoint: "top_punkt" 535 466 basechar 0
AnchorPoint: "top_akzent" 533 537 basechar 0
LayerCount: 3
Fore
SplineSet
538 332 m 0
 488 332 448 296 448 219 c 0
 448 140 491 85 548 85 c 0
 578 85 607 95 636 131 c 1
 638 131 l 1
 648 125 653 119 654 112 c 1
 635 71 587 36 530 36 c 0
 420 36 356 103 356 200 c 0
 356 306 438 373 539 373 c 0
 576 373 624 361 647 349 c 1
 648 347 l 1
 631 271 l 1
 618 270 l 1
 598 304 567 332 538 332 c 0
249 718 m 2
 189 718 156 685 156 625 c 2
 156 -53 l 2
 156 -113 189 -136 249 -136 c 2
 821 -136 l 2
 881 -136 904 -113 904 -53 c 2
 904 625 l 2
 904 685 881 718 821 718 c 2
 249 718 l 2
1000 -84 m 2
 1000 -174 971 -212 881 -212 c 2
 249 -212 l 2
 159 -212 120 -174 120 -84 c 2
 120 625 l 2
 120 708 168 754 249 754 c 2
 851 754 l 2
 941 754 1000 715 1000 625 c 2
 1000 -84 l 2
EndSplineSet
Substitution2: "'sinf' Wissenschaftliche Indices 1" c.inferior
Substitution2: "'sups' Hochgestellte 1" c.superior
Substitution2: "'smcp' Gemeine nach Kapitaelchen 1" c.sc
AlternateSubs2: "'aalt' Alle Alternativen zeigen 1" c.sc
EndChar

StartChar: d
Encoding: 100 100 262
Width: 1100
VWidth: 999
Flags: HW
HStem: -212 76<179.2 885.174> 33 50<438.938 530.338> 332 40<442.706 548.358> 547 20G<645.5 657.5> 547 20G<645.5 657.5> 718 36<188.821 875.472>
VStem: 120 36<-107.953 686.051> 318 92<112.938 274.528> 558 104<356.766 548> 566 88<107.399 316.537 356 543.485> 904 96<-118.923 694.8>
AnchorPoint: "top_akzent" 482 570 basechar 0
AnchorPoint: "top_punkt" 482 498 basechar 0
AnchorPoint: "ogonek" 552 99 basechar 0
AnchorPoint: "unten_punkt" 512 6 basechar 0
LayerCount: 3
Fore
SplineSet
566 129 m 1
 566 287 l 1
 548 316 537 332 502 332 c 0
 466 332 410 321 410 209 c 0
 410 115 445 83 485 83 c 0
 516 83 538 95 566 129 c 1
566 89 m 1
 539 54 502 33 466 33 c 0
 385 33 318 103 318 195 c 0
 318 297 412 372 510 372 c 0
 525 372 548 365 566 356 c 1
 566 405 l 2
 566 461 564 513 558 545 c 1
 560 548 l 1
 590 550 636 559 655 567 c 1
 660 567 662 564 662 559 c 0
 656 513 654 473 654 418 c 2
 654 187 l 2
 654 131 661 73 667 41 c 1
 665 39 l 1
 656 40 627 41 618 41 c 0
 607 41 588 40 578 39 c 0
 573 39 571 39 571 41 c 2
 567 89 l 1
 566 89 l 1
249 718 m 2
 189 718 156 685 156 625 c 2
 156 -53 l 2
 156 -113 189 -136 249 -136 c 2
 821 -136 l 2
 881 -136 904 -113 904 -53 c 2
 904 625 l 2
 904 685 881 718 821 718 c 2
 249 718 l 2
1000 -84 m 2
 1000 -174 971 -212 881 -212 c 2
 249 -212 l 2
 159 -212 120 -174 120 -84 c 2
 120 625 l 2
 120 708 168 754 249 754 c 2
 851 754 l 2
 941 754 1000 715 1000 625 c 2
 1000 -84 l 2
EndSplineSet
Substitution2: "'sinf' Wissenschaftliche Indices 1" d.inferior
Substitution2: "'sups' Hochgestellte 1" d.superior
AlternateSubs2: "'aalt' Alle Alternativen zeigen 1" d.sc
Substitution2: "'smcp' Gemeine nach Kapitaelchen 1" d.sc
EndChar

StartChar: e
Encoding: 101 101 263
Width: 1100
VWidth: 999
Flags: HW
HStem: -212 76<179.2 885.174> 36 51<502.912 627.15> 226 33<463 580.998> 336 37<491.543 570.209> 718 36<188.821 875.472>
VStem: 120 36<-107.953 686.051> 366 95<132.814 226 259 277.396> 581 95<234.5 314.188> 904 96<-118.923 694.8>
AnchorPoint: "ogonek" 657 84 basechar 0
AnchorPoint: "top_akzent" 534 537 basechar 0
AnchorPoint: "top_punkt" 539 466 basechar 0
AnchorPoint: "unten_punkt" 533 -27 basechar 0
LayerCount: 3
Fore
SplineSet
463 259 m 1
 570 259 l 2
 578 259 581 263 581 269 c 0
 581 323 562 336 534 336 c 0
 517 336 474 326 463 259 c 1
666 129 m 1
 677 123 682 114 682 103 c 1
 653 64 597 36 543 36 c 0
 431 36 366 107 366 193 c 0
 366 307 463 373 534 373 c 0
 634 373 676 302 676 239 c 0
 676 230 671 226 663 226 c 2
 461 226 l 1
 461 120 515 87 558 87 c 0
 599 87 640 101 666 129 c 1
249 718 m 2
 189 718 156 685 156 625 c 2
 156 -53 l 2
 156 -113 189 -136 249 -136 c 2
 821 -136 l 2
 881 -136 904 -113 904 -53 c 2
 904 625 l 2
 904 685 881 718 821 718 c 2
 249 718 l 2
1000 -84 m 2
 1000 -174 971 -212 881 -212 c 2
 249 -212 l 2
 159 -212 120 -174 120 -84 c 2
 120 625 l 2
 120 708 168 754 249 754 c 2
 851 754 l 2
 941 754 1000 715 1000 625 c 2
 1000 -84 l 2
EndSplineSet
Substitution2: "'sups' Hochgestellte 1" e.superior
AlternateSubs2: "'aalt' Alle Alternativen zeigen 1" e.sc
Substitution2: "'sinf' Wissenschaftliche Indices 1" e.inferior
Substitution2: "'smcp' Gemeine nach Kapitaelchen 1" e.sc
EndChar

StartChar: f
Encoding: 102 102 264
Width: 1100
VWidth: 999
Flags: HW
HStem: -212 76<179.2 885.174> 39 21G<423 475 475 527> 327 40<378 431 519 606> 517 51<532.039 629.138> 718 36<188.821 875.472>
VStem: 120 36<-107.953 686.051> 431 88<43.0215 327 367 474.657> 904 96<-118.923 694.8>
AnchorPoint: "unten_anhang" 475 90 basechar 0
AnchorPoint: "unten_punkt" 474 4 basechar 0
LayerCount: 3
Fore
SplineSet
482 511 m 0
 514 544 569 568 616 568 c 0
 630 568 644 565 650 562 c 1
 650 559 l 1
 642 545 635 504 630 484 c 1
 621 483 l 1
 613 498 600 517 578 517 c 0
 537 517 516 488 516 446 c 0
 516 430 519 393 519 374 c 2
 519 367 l 1
 600 367 l 2
 604 367 606 365 606 362 c 2
 606 337 l 2
 606 330 596 327 589 327 c 2
 519 327 l 1
 519 191 l 2
 519 135 520 84 527 41 c 1
 525 39 l 1
 525 39 501 41 475 41 c 0
 449 41 424 39 424 39 c 1
 423 41 l 1
 430 81 431 135 431 191 c 2
 431 327 l 1
 381 327 l 2
 378 327 378 328 378 331 c 2
 378 352 l 2
 378 358 381 367 395 367 c 2
 431 367 l 1
 431 389 l 2
 431 448 450 477 482 511 c 0
249 718 m 2
 189 718 156 685 156 625 c 2
 156 -53 l 2
 156 -113 189 -136 249 -136 c 2
 821 -136 l 2
 881 -136 904 -113 904 -53 c 2
 904 625 l 2
 904 685 881 718 821 718 c 2
 249 718 l 2
1000 -84 m 2
 1000 -174 971 -212 881 -212 c 2
 249 -212 l 2
 159 -212 120 -174 120 -84 c 2
 120 625 l 2
 120 708 168 754 249 754 c 2
 851 754 l 2
 941 754 1000 715 1000 625 c 2
 1000 -84 l 2
EndSplineSet
Substitution2: "'sinf' Wissenschaftliche Indices 1" f.inferior
Substitution2: "'sups' Hochgestellte 1" f.superior
Substitution2: "'smcp' Gemeine nach Kapitaelchen 1" f.sc
AlternateSubs2: "'aalt' Alle Alternativen zeigen 1" f.sc
EndChar

StartChar: g
Encoding: 103 103 265
Width: 1100
VWidth: 999
Flags: HW
HStem: -212 76<179.2 885.174> -109 31<467.437 579.875> 57 60<457.178 475.823 477.03 616.503> 175 32<479.917 556.258> 366 33<475.704 554.01> 718 36<188.821 875.472>
VStem: 120 36<-107.953 686.051> 360 81<-58.8228 28.3205> 380 81<220.21 347.133> 384 58<112.953 188.27> 573 80<221.795 345.025> 630 77<-36.8608 41.4526> 904 96<-118.923 694.8>
AnchorPoint: "unten_punkt" 475 -40 basechar 0
AnchorPoint: "top_akzent" 471 510 basechar 0
AnchorPoint: "top_punkt" 471 438 basechar 0
LayerCount: 3
Fore
SplineSet
653 286 m 0
 653 225 605 175 518 175 c 0
 493 175 475 177 460 186 c 0
 458 187 456 188 454 189 c 1
 446 176 442 159 442 144 c 0
 442 111 464 111 485 111 c 0
 489 111 496 112 507 113 c 0
 524 115 541 117 554 117 c 0
 623 117 707 95 707 18 c 0
 707 -63 586 -109 490 -109 c 0
 435 -109 360 -89 360 -24 c 0
 360 9 388 43 426 67 c 1
 404 73 384 93 384 125 c 0
 384 150 395 184 415 202 c 1
 411 207 l 1
 394 220 380 247 380 285 c 0
 380 349 438 399 519 399 c 0
 535 399 550 396 563 392 c 1
 619 395 661 403 697 406 c 1
 700 404 l 1
 698 397 697 387 697 380 c 0
 697 373 698 365 700 358 c 1
 697 356 l 1
 669.9 358.6 636.1 361.2 612.6 363.2 c 1
 636.3 345.8 653 315 653 286 c 0
573 279 m 0
 573 335 556 366 511 366 c 0
 472 366 461 330 461 296 c 0
 461 248 471 207 520 207 c 0
 547 207 573 225 573 279 c 0
249 718 m 2
 189 718 156 685 156 625 c 2
 156 -53 l 2
 156 -113 189 -136 249 -136 c 2
 821 -136 l 2
 881 -136 904 -113 904 -53 c 2
 904 625 l 2
 904 685 881 718 821 718 c 2
 249 718 l 2
1000 -84 m 2
 1000 -174 971 -212 881 -212 c 2
 249 -212 l 2
 159 -212 120 -174 120 -84 c 2
 120 625 l 2
 120 708 168 754 249 754 c 2
 851 754 l 2
 941 754 1000 715 1000 625 c 2
 1000 -84 l 2
476.7 54 m 1
 449.7 32.5 441 15.6 441 -9 c 0
 441 -60 485 -78 511 -78 c 0
 575 -78 630 -45 630 1 c 0
 630 53 570 57 528 57 c 0
 518.1 57 498.4 54.1 476.7 54 c 1
477.4 54.5 m 1
 479 54.8 480.5 55 478 55 c 0
 477.8 54.8 477.6 54.7 477.4 54.5 c 1
EndSplineSet
Substitution2: "'sinf' Wissenschaftliche Indices 1" g.inferior
Substitution2: "'sups' Hochgestellte 1" g.superior
AlternateSubs2: "'aalt' Alle Alternativen zeigen 1" g.sc
Substitution2: "'smcp' Gemeine nach Kapitaelchen 1" g.sc
EndChar

StartChar: h
Encoding: 104 104 266
Width: 1100
VWidth: 999
Flags: HMW
HStem: -212 76<179.2 885.174> 39 21G<367 419 419 470 587 638 638 690> 325 49<506.518 585.72> 548 20G<454.5 466> 548 20G<454.5 466> 718 36<188.821 875.472>
VStem: 120 36<-107.953 686.051> 374 89<43.0128 290.763 315 545.485> 594 89<43.0128 318.633> 904 96<-118.923 694.8>
AnchorPoint: "ogonek" 659 94 basechar 0
AnchorPoint: "top_punkt" 566 499 basechar 0
AnchorPoint: "top_akzent" 565 571 basechar 0
AnchorPoint: "unten_punkt" 535 4 basechar 0
LayerCount: 3
Fore
SplineSet
594 180 m 2
 594 252 l 2
 594 313 580 325 538 325 c 0
 516 325 499 305 463 270 c 1
 463 180 l 2
 463 123 464 84 470 41 c 1
 469 39 l 1
 469 39 444 41 419 41 c 0
 392 41 368 39 368 39 c 1
 367 41 l 1
 373 81 374 124 374 180 c 2
 374 406 l 2
 374 463 373 515 367 547 c 1
 368 550 l 1
 399 552 445 561 464 568 c 1
 468 568 470 566 470 561 c 0
 465 515 463 476 463 421 c 2
 463 315 l 1
 513 365 542 374 572 374 c 0
 626 374 683 335 683 258 c 2
 683 180 l 2
 683 123 684 84 690 41 c 1
 689 39 l 1
 689 39 664 41 638 41 c 0
 612 41 587 39 587 39 c 1
 587 41 l 1
 593 81 594 124 594 180 c 2
249 718 m 2
 189 718 156 685 156 625 c 2
 156 -53 l 2
 156 -113 189 -136 249 -136 c 2
 821 -136 l 2
 881 -136 904 -113 904 -53 c 2
 904 625 l 2
 904 685 881 718 821 718 c 2
 249 718 l 2
1000 -84 m 2
 1000 -174 971 -212 881 -212 c 2
 249 -212 l 2
 159 -212 120 -174 120 -84 c 2
 120 625 l 2
 120 708 168 754 249 754 c 2
 851 754 l 2
 941 754 1000 715 1000 625 c 2
 1000 -84 l 2
EndSplineSet
Substitution2: "'sinf' Wissenschaftliche Indices 1" h.inferior
Substitution2: "'salt' Stilistische Alternativformen 1" h.alt
Substitution2: "'sups' Hochgestellte 1" h.superior
AlternateSubs2: "'aalt' Alle Alternativen zeigen 1" h.sc h.alt
Substitution2: "'smcp' Gemeine nach Kapitaelchen 1" h.sc
EndChar

StartChar: i
Encoding: 105 105 267
Width: 1100
VWidth: 999
Flags: HMW
HStem: -212 76<179.2 885.174> 44 330<479.765 570> 466 104<483.248 566.752> 718 36<188.821 875.472>
VStem: 120 36<-107.953 686.051> 479 88<46.0099 351.446> 904 96<-118.923 694.8>
AnchorPoint: "unten_anhang" 531 92 basechar 0
AnchorPoint: "ogonek" 585 91 basechar 0
AnchorPoint: "unten_punkt" 530 3 basechar 0
LayerCount: 3
Fore
SplineSet
249 718 m 2
 189 718 156 685 156 625 c 2
 156 -53 l 2
 156 -113 189 -136 249 -136 c 2
 821 -136 l 2
 881 -136 904 -113 904 -53 c 2
 904 625 l 2
 904 685 881 718 821 718 c 2
 249 718 l 2
1000 -84 m 2
 1000 -174 971 -212 881 -212 c 2
 249 -212 l 2
 159 -212 120 -174 120 -84 c 2
 120 625 l 2
 120 708 168 754 249 754 c 2
 851 754 l 2
 941 754 1000 715 1000 625 c 2
 1000 -84 l 2
473 518 m 0
 473 546 496 570 525 570 c 0
 554 570 577 546 577 518 c 0
 577 490 554 466 525 466 c 0
 496 466 473 490 473 518 c 0
479 221 m 2
 479 277 477 320 471 353 c 1
 473 355 l 1
 503 357 549 366 568 374 c 1
 572 374 575 372 575 366 c 0
 569 320 567 289 567 233 c 2
 567 180 l 2
 567 122 569 87 575 44 c 1
 573 42 l 1
 573 42 548 44 523 44 c 0
 497 44 472 42 472 42 c 1
 471 44 l 1
 477 85 479 123 479 180 c 2
 479 221 l 2
EndSplineSet
Substitution2: "'smcp' Gemeine nach Kapitaelchen i > i.sc 1" i.sc
Substitution2: "'smcp' Gemeine nach Kapitaelchen i > idotaccent.sc" idotaccent.sc
Substitution2: "'sinf' Wissenschaftliche Indices 1" i.inferior
Substitution2: "'sups' Hochgestellte 1" i.superior
AlternateSubs2: "'aalt' Alle Alternativen zeigen 1" i.sc
Colour: ff00ff
EndChar

StartChar: j
Encoding: 106 106 268
Width: 1100
VWidth: 999
Flags: HW
HStem: -212 76<179.2 885.174> -102 55<421.536 492.617> 476 104<504.248 587.752> 718 36<188.821 875.472>
VStem: 120 36<-107.953 686.051> 494 104<110.156 369 485.794 570.206> 500 88<-29.0625 364.492> 904 96<-118.923 694.8>
LayerCount: 3
Fore
SplineSet
249 718 m 2
 189 718 156 685 156 625 c 2
 156 -53 l 2
 156 -113 189 -136 249 -136 c 2
 821 -136 l 2
 881 -136 904 -113 904 -53 c 2
 904 625 l 2
 904 685 881 718 821 718 c 2
 249 718 l 2
1000 -84 m 2
 1000 -174 971 -212 881 -212 c 2
 249 -212 l 2
 159 -212 120 -174 120 -84 c 2
 120 625 l 2
 120 708 168 754 249 754 c 2
 851 754 l 2
 941 754 1000 715 1000 625 c 2
 1000 -84 l 2
494 528 m 0
 494 556 517 580 546 580 c 0
 575 580 598 556 598 528 c 0
 598 500 575 476 546 476 c 0
 517 476 494 500 494 528 c 0
502 18 m 0
 502 30 500 48 500 130 c 2
 500 234 l 2
 500 291 498 334 492 366 c 1
 494 369 l 1
 524 371 570 380 589 388 c 1
 593 388 596 385 596 380 c 0
 590 334 588 303 588 246 c 2
 588 57 l 2
 588 3 575 -18 550 -54 c 0
 525 -89 473 -102 429 -102 c 0
 416 -102 395 -98 390 -96 c 1
 389 -93 l 1
 397 -80 396 -35 401 -16 c 1
 416 -15 l 1
 424 -29 429 -47 449 -47 c 0
 489 -47 502 -21 502 18 c 0
EndSplineSet
Substitution2: "'sinf' Wissenschaftliche Indices 1" j.inferior
Substitution2: "'sups' Hochgestellte 1" j.superior
Substitution2: "'smcp' Gemeine nach Kapitaelchen 1" j.sc
AlternateSubs2: "'aalt' Alle Alternativen zeigen 1" j.sc idotaccent.sc
Colour: ff00ff
EndChar

StartChar: k
Encoding: 107 107 269
Width: 1100
VWidth: 999
Flags: HW
HStem: -212 76<179.2 885.174> 202 26<464 485.67> 351 20G<702 710> 550 20G<460.5 472.5> 718 36<188.821 875.472>
VStem: 120 36<-107.953 686.051> 373 104<295.438 552> 381 88<49.0208 202 228 547.485> 464 5<202 228> 904 96<-118.923 694.8>
AnchorPoint: "unten_anhang" 431 94 basechar 0
AnchorPoint: "top_punkt" 537 500 basechar 0
AnchorPoint: "top_akzent" 536 571 basechar 0
AnchorPoint: "unten_punkt" 527 7 basechar 0
LayerCount: 3
Fore
SplineSet
249 718 m 2
 189 718 156 685 156 625 c 2
 156 -53 l 2
 156 -113 189 -136 249 -136 c 2
 821 -136 l 2
 881 -136 904 -113 904 -53 c 2
 904 625 l 2
 904 685 881 718 821 718 c 2
 249 718 l 2
1000 -84 m 2
 1000 -174 971 -212 881 -212 c 2
 249 -212 l 2
 159 -212 120 -174 120 -84 c 2
 120 625 l 2
 120 708 168 754 249 754 c 2
 851 754 l 2
 941 754 1000 715 1000 625 c 2
 1000 -84 l 2
381 197 m 2
 381 408 l 2
 381 465 379 517 373 549 c 1
 375 552 l 1
 405 554 451 563 470 570 c 1
 475 570 477 568 477 563 c 0
 471 517 469 478 469 422 c 2
 469 228.4 l 1
 475.1 229.5 480.9 232.7 488 239 c 0
 518 262 572 322 605 369 c 1
 625 369 695 369 709 371 c 1
 710 369 l 1
 662 327 600 256 570 225 c 1
 642 139 670 106 726 47 c 1
 725 45 l 1
 718 46 674 47 662 47 c 0
 649 47 613 46 602 45 c 1
 549 119 534 144 486 195 c 0
 480.9 199.4 474.2 201.1 469 201.7 c 1
 469 197 l 2
 469 140 470 90 477 47 c 1
 475 45 l 1
 475 45 451 47 425 47 c 0
 399 47 374 45 374 45 c 1
 373 47 l 1
 380 87 381 141 381 197 c 2
EndSplineSet
Substitution2: "'sinf' Wissenschaftliche Indices 1" k.inferior
Substitution2: "'sups' Hochgestellte 1" k.superior
AlternateSubs2: "'aalt' Alle Alternativen zeigen 1" k.sc
Substitution2: "'smcp' Gemeine nach Kapitaelchen 1" k.sc
Colour: ff80cc
EndChar

StartChar: l.superior
Encoding: 737 737 270
Width: 161
VWidth: 917
Flags: HW
HStem: 411 17<32 42 116 126> 664 15<27.0015 46>
VStem: 60 37<429.094 662.996>
LayerCount: 3
Fore
SplineSet
60 626 m 2
 60 658 56 663 46 663 c 2
 30 664 l 2
 29 664 27 664 27 666 c 2
 26 679 l 1
 46 681 80 687 92 692 c 1
 97 692 98 691 98 687 c 2
 98 687 97 667 97 636 c 2
 97 449 l 2
 97 434 103 430 116 429 c 1
 122 428 l 2
 123 428 126 427 126 424 c 2
 126 411 l 1
 126 411 97 412 78 412 c 0
 60 412 32 411 32 411 c 1
 32 424 l 2
 32 426 33 428 36 428 c 2
 42 429 l 2
 60 431 60 433 60 449 c 2
 60 626 l 2
EndSplineSet
Colour: ff00ff
EndChar

StartChar: m
Encoding: 109 109 271
Width: 1100
VWidth: 999
Flags: HW
HStem: -212 76<179.2 885.174> 39 21G<277 329 329 381 487 539 539 591 698 750 750 802> 41 333<285.748 374.5 451.5 547.513 664.5 756.599> 324 50<412.343 485.338 618.57 700.001> 718 36<188.821 875.472>
VStem: 120 36<-107.953 686.051> 277 102<85.9457 298.92 314.022 355> 285 88<43.0121 291.84> 495 88<43.0121 294.856> 706 88<43.0121 319> 904 96<-118.923 694.8>
AnchorPoint: "unten_anhang" 329 58 basechar 0
AnchorPoint: "top_punkt" 550 467 basechar 0
AnchorPoint: "top_akzent" 549 538 basechar 0
AnchorPoint: "unten_punkt" 545 -24 basechar 0
LayerCount: 3
Fore
SplineSet
706 180 m 2
 706 257 l 2
 706 307 698 324 658 324 c 0
 628 324 619 311 583 271 c 1
 583 262 583 259 583 248 c 2
 583 180 l 2
 583 122 584 84 591 41 c 1
 589 39 l 1
 589 39 565 41 539 41 c 0
 513 41 488 39 488 39 c 1
 487 41 l 1
 494 82 495 123 495 180 c 2
 495 255 l 2
 495 306 476 324 448 324 c 0
 421 324 409 307 373 270 c 1
 373 180 l 2
 373 122 374 84 381 41 c 1
 379 39 l 1
 379 39 355 41 329 41 c 0
 303 41 278 39 278 39 c 1
 277 41 l 1
 284 82 285 123 285 180 c 2
 285 221 l 2
 285 277 283 321 277 353 c 1
 279 355 l 1
 309 357 353 366 372 374 c 1
 377 374 379 372 379 366 c 1
 375 344 372 314 372 314 c 1
 373 314 l 1
 409 352 428 374 475 374 c 0
 517 374 573 348 578 314 c 1
 621 360 644 374 685 374 c 0
 766 374 794 321 794 254 c 2
 794 180 l 2
 794 122 795 84 802 41 c 1
 800 39 l 1
 800 39 776 41 750 41 c 0
 724 41 699 39 699 39 c 1
 698 41 l 1
 704 82 706 123 706 180 c 2
249 718 m 2
 189 718 156 685 156 625 c 2
 156 -53 l 2
 156 -113 189 -136 249 -136 c 2
 821 -136 l 2
 881 -136 904 -113 904 -53 c 2
 904 625 l 2
 904 685 881 718 821 718 c 2
 249 718 l 2
1000 -84 m 2
 1000 -174 971 -212 881 -212 c 2
 249 -212 l 2
 159 -212 120 -174 120 -84 c 2
 120 625 l 2
 120 708 168 754 249 754 c 2
 851 754 l 2
 941 754 1000 715 1000 625 c 2
 1000 -84 l 2
EndSplineSet
Substitution2: "'sinf' Wissenschaftliche Indices 1" m.inferior
Substitution2: "'sups' Hochgestellte 1" m.superior
AlternateSubs2: "'aalt' Alle Alternativen zeigen 1" m.sc
Substitution2: "'smcp' Gemeine nach Kapitaelchen 1" m.sc
EndChar

StartChar: n
Encoding: 110 110 272
Width: 1100
VWidth: 999
Flags: HW
HStem: -212 76<179.2 885.174> 39 21G<378 430 430 481 597 648 648 700> 324 50<513.814 596.007> 718 36<188.821 875.472>
VStem: 120 36<-107.953 686.051> 378 101<223.616 298.412 312.023 355> 385 89<43.0121 291.84> 604 89<43.0121 317.273> 904 96<-118.923 694.8>
AnchorPoint: "unten_anhang" 430 58 basechar 0
AnchorPoint: "top_punkt" 546 467 basechar 0
AnchorPoint: "unten_punkt" 546 -29 basechar 0
AnchorPoint: "top_akzent" 546 539 basechar 0
LayerCount: 3
Fore
SplineSet
693 180 m 2
 693 122 694 84 700 41 c 1
 699 39 l 1
 699 39 674 41 648 41 c 0
 622 41 598 39 598 39 c 1
 597 41 l 1
 604 82 604 123 604 180 c 2
 604 246 l 2
 604 299 597 324 557 324 c 0
 524 324 512 313 474 268 c 1
 474 180 l 2
 474 122 475 84 481 41 c 1
 480 39 l 1
 480 39 455 41 430 41 c 0
 403 41 378 39 378 39 c 1
 378 41 l 1
 384 82 385 123 385 180 c 2
 385 221 l 2
 385 277 384 321 378 353 c 1
 379 355 l 1
 410 357 453 366 472 374 c 1
 477 374 479 372 479 366 c 1
 475 344 472 312 472 312 c 1
 474 312 l 1
 522 368 541 374 580 374 c 0
 647 374 693 322 693 255 c 2
 693 180 l 2
249 718 m 2
 189 718 156 685 156 625 c 2
 156 -53 l 2
 156 -113 189 -136 249 -136 c 2
 821 -136 l 2
 881 -136 904 -113 904 -53 c 2
 904 625 l 2
 904 685 881 718 821 718 c 2
 249 718 l 2
1000 -84 m 2
 1000 -174 971 -212 881 -212 c 2
 249 -212 l 2
 159 -212 120 -174 120 -84 c 2
 120 625 l 2
 120 708 168 754 249 754 c 2
 851 754 l 2
 941 754 1000 715 1000 625 c 2
 1000 -84 l 2
EndSplineSet
Substitution2: "'sinf' Wissenschaftliche Indices 1" n.inferior
AlternateSubs2: "'aalt' Alle Alternativen zeigen 1" n.sc
Substitution2: "'sups' Hochgestellte 1" n.superior
Substitution2: "'smcp' Gemeine nach Kapitaelchen 1" n.sc
EndChar

StartChar: o
Encoding: 111 111 273
Width: 1100
VWidth: 999
Flags: HW
HStem: -212 76<179.2 885.174> 36 38<494.054 584.681> 335 38<483.205 580.515> 718 36<188.821 875.472>
VStem: 120 36<-107.953 686.051> 363 96<115.833 287.865> 609 96<119.743 292.728> 904 96<-118.923 694.8>
AnchorPoint: "unten_anhang" 538 51 basechar 0
AnchorPoint: "ogonek" 648 87 basechar 0
AnchorPoint: "unten_punkt" 544 -27 basechar 0
AnchorPoint: "top_punkt" 543 466 basechar 0
AnchorPoint: "top_akzent" 535 537 basechar 0
LayerCount: 3
Fore
SplineSet
363 197 m 0
 363 300 428 373 536 373 c 0
 662 373 705 282 705 204 c 0
 705 124 649 36 534 36 c 0
 422 36 363 115 363 197 c 0
530 335 m 0
 466 335 459 280 459 215 c 0
 459 157 466 74 544 74 c 0
 578 74 609 98 609 184 c 0
 609 288 594 335 530 335 c 0
249 718 m 2
 189 718 156 685 156 625 c 2
 156 -53 l 2
 156 -113 189 -136 249 -136 c 2
 821 -136 l 2
 881 -136 904 -113 904 -53 c 2
 904 625 l 2
 904 685 881 718 821 718 c 2
 249 718 l 2
1000 -84 m 2
 1000 -174 971 -212 881 -212 c 2
 249 -212 l 2
 159 -212 120 -174 120 -84 c 2
 120 625 l 2
 120 708 168 754 249 754 c 2
 851 754 l 2
 941 754 1000 715 1000 625 c 2
 1000 -84 l 2
EndSplineSet
Substitution2: "'sups' Hochgestellte 1" o.superior
AlternateSubs2: "'aalt' Alle Alternativen zeigen 1" o.sc
Substitution2: "'sinf' Wissenschaftliche Indices 1" o.inferior
Substitution2: "'smcp' Gemeine nach Kapitaelchen 1" o.sc
EndChar

StartChar: p
Encoding: 112 112 274
Width: 1100
VWidth: 999
Flags: HW
HStem: -212 76<179.2 885.174> 48 40<470.125 578.462> 336 49<493.244 580.964> 718 36<188.821 875.472>
VStem: 120 36<-107.953 686.051> 362 102<97.625 312.397 326.02 366> 370 88<-116.025 64 100.318 307.42 326 362.491> 605 101<145.912 303.996> 904 96<-118.923 694.8>
AnchorPoint: "top_punkt" 518 439 basechar 0
AnchorPoint: "top_akzent" 517 510 basechar 0
LayerCount: 3
Fore
SplineSet
458 274 m 1
 458 120 l 1
 484 89 508 88 520 88 c 0
 601 88 605 150 605 212 c 0
 605 296 582 336 536 336 c 0
 511 336 475 314 458 274 c 1
370 32 m 2
 370 232 l 2
 370 288 368 332 362 364 c 1
 364 366 l 1
 394 368 439 377 458 385 c 1
 462 385 464 382 464 377 c 0
 460 354 457 326 457 326 c 1
 459 326 l 1
 494 378 532 385 556 385 c 0
 629 385 706 311 706 232 c 0
 706 126 622 48 525 48 c 0
 498 48 478 54 458 64 c 1
 458 32 l 2
 458 -25 459 -76 466 -118 c 1
 464 -121 l 1
 464 -121 440 -118 414 -118 c 0
 388 -118 363 -121 363 -121 c 1
 362 -118 l 1
 369 -78 370 -24 370 32 c 2
249 718 m 2
 189 718 156 685 156 625 c 2
 156 -53 l 2
 156 -113 189 -136 249 -136 c 2
 821 -136 l 2
 881 -136 904 -113 904 -53 c 2
 904 625 l 2
 904 685 881 718 821 718 c 2
 249 718 l 2
1000 -84 m 2
 1000 -174 971 -212 881 -212 c 2
 249 -212 l 2
 159 -212 120 -174 120 -84 c 2
 120 625 l 2
 120 708 168 754 249 754 c 2
 851 754 l 2
 941 754 1000 715 1000 625 c 2
 1000 -84 l 2
EndSplineSet
Substitution2: "'sinf' Wissenschaftliche Indices 1" p.inferior
Substitution2: "'sups' Hochgestellte 1" p.superior
AlternateSubs2: "'aalt' Alle Alternativen zeigen 1" p.sc
Substitution2: "'smcp' Gemeine nach Kapitaelchen 1" p.sc
EndChar

StartChar: q
Encoding: 113 113 275
Width: 1100
VWidth: 999
Flags: HW
HStem: -212 76<179.2 885.174> 48 48<475.834 587.964> 345 40<465.817 565.687> 718 36<188.821 875.472>
VStem: 120 36<-107.953 686.051> 343 101<138.232 292.325> 592 88<-115.979 73 100.966 321.533> 904 96<-118.923 694.8>
AnchorPoint: "top_punkt" 502 438 basechar 0
AnchorPoint: "top_akzent" 501 510 basechar 0
LayerCount: 3
Fore
SplineSet
592 294 m 1
 571 327 548 345 517 345 c 0
 457 345 444 304 444 226 c 0
 444 113 490 96 534 96 c 0
 548 96 572 97 592 112 c 1
 592 294 l 1
592 32 m 2
 592 73 l 1
 580 63 559 48 516 48 c 0
 408 48 343 141 343 211 c 0
 343 310 428 385 520 385 c 0
 556 385 603 377 628 355 c 1
 639 373 l 2
 644 382 658 387 664 387 c 0
 672 387 680 379 680 369 c 2
 680 32 l 2
 680 -25 681 -75 688 -118 c 1
 686 -120 l 1
 686 -120 662 -118 636 -118 c 0
 610 -118 585 -120 585 -120 c 1
 584 -118 l 1
 590 -78 592 -24 592 32 c 2
249 718 m 2
 189 718 156 685 156 625 c 2
 156 -53 l 2
 156 -113 189 -136 249 -136 c 2
 821 -136 l 2
 881 -136 904 -113 904 -53 c 2
 904 625 l 2
 904 685 881 718 821 718 c 2
 249 718 l 2
1000 -84 m 2
 1000 -174 971 -212 881 -212 c 2
 249 -212 l 2
 159 -212 120 -174 120 -84 c 2
 120 625 l 2
 120 708 168 754 249 754 c 2
 851 754 l 2
 941 754 1000 715 1000 625 c 2
 1000 -84 l 2
EndSplineSet
Substitution2: "'sinf' Wissenschaftliche Indices 1" q.inferior
Substitution2: "'sups' Hochgestellte 1" q.superior
AlternateSubs2: "'aalt' Alle Alternativen zeigen 1" q.sc
Substitution2: "'smcp' Gemeine nach Kapitaelchen 1" q.sc
EndChar

StartChar: r
Encoding: 114 114 276
Width: 1100
VWidth: 999
Flags: HW
HStem: -212 76<179.2 885.174> 39 21G<421 469 469 524> 41 333<428.481 514.84> 305 69<557.478 628.941> 718 36<188.821 875.472>
VStem: 120 36<-107.953 686.051> 417 100<87.0195 291.711 310.025 355> 428 89<43.0099 291.49> 904 96<-118.923 694.8>
AnchorPoint: "unten_anhang" 469 57 basechar 0
AnchorPoint: "top_punkt" 530 468 basechar 0
AnchorPoint: "top_akzent" 529 539 basechar 0
AnchorPoint: "unten_punkt" 487 -26 basechar 0
LayerCount: 3
Fore
SplineSet
517 310 m 1
 536 339 575 374 610 374 c 0
 624 374 628 372 641 368 c 1
 644 366 l 1
 629 296 l 1
 623 294 l 1
 610 305 594 305 580 305 c 0
 568 305 517 300 517 242 c 2
 517 177 l 2
 517 119 518 84 524 41 c 1
 523 39 l 1
 523 39 494 41 469 41 c 0
 442 41 421 39 421 39 c 1
 421 41 l 1
 427 82 428 120 428 177 c 2
 428 221 l 2
 428 277 423 320 417 353 c 1
 418 355 l 1
 449 357 491 366 510 374 c 1
 514 374 517 372 517 366 c 0
 516 344 515 310 515 310 c 1
 517 310 l 1
249 718 m 2
 189 718 156 685 156 625 c 2
 156 -53 l 2
 156 -113 189 -136 249 -136 c 2
 821 -136 l 2
 881 -136 904 -113 904 -53 c 2
 904 625 l 2
 904 685 881 718 821 718 c 2
 249 718 l 2
1000 -84 m 2
 1000 -174 971 -212 881 -212 c 2
 249 -212 l 2
 159 -212 120 -174 120 -84 c 2
 120 625 l 2
 120 708 168 754 249 754 c 2
 851 754 l 2
 941 754 1000 715 1000 625 c 2
 1000 -84 l 2
EndSplineSet
Substitution2: "'sinf' Wissenschaftliche Indices 1" r.inferior
Substitution2: "'sups' Hochgestellte 1" r.superior
AlternateSubs2: "'aalt' Alle Alternativen zeigen 1" r.sc
Substitution2: "'smcp' Gemeine nach Kapitaelchen 1" r.sc
EndChar

StartChar: s.superior
Encoding: 738 738 277
Width: 253
VWidth: 625
Flags: HW
HStem: 393 19<92.1151 150.641> 448 20G<52 69.5> 532 21G<173 196> 583 19<101.945 154.553>
VStem: 52 17<437.358 468> 58 36<525.19 580.081> 159 41<414.471 474.626> 178 18<532.611 555.878>
LayerCount: 3
Fore
SplineSet
52 468 m 1
 69 468 l 1
 70 457 74 437 86 425 c 1
 92 421 106 412 123 412 c 0
 141 412 159 420 159 440 c 0
 159 456 153 471 116 487 c 1
 81 501 58 513 58 547 c 0
 58 578 92 602 128 602 c 0
 152 602 181 595 189 589 c 1
 196 533 l 1
 178 532 l 1
 168 576 142 583 128 583 c 0
 110 583 94 574 94 553 c 0
 94 535 101 529 127 518 c 0
 165 502 200 488 200 451 c 0
 200 405 150 393 124 393 c 0
 102 393 86 403 70 403 c 0
 68 403 61 403 56 402 c 1
 56 420 55 444 52 468 c 1
EndSplineSet
Colour: ff00ff
EndChar

StartChar: t
Encoding: 116 116 278
Width: 1100
VWidth: 999
Flags: HMW
HStem: 64 52<483 577> 353 40<387 437 525 612> 490 15G<513 525>
VStem: 437 88<117 353 393 482>
AnchorPoint: "unten_anhang" 510 69 basechar 0
AnchorPoint: "ogonek" 578 82 basechar 0
AnchorPoint: "unten_punkt" 526 -9 basechar 0
LayerCount: 3
Fore
SplineSet
390 323 m 2
 384 323 380 328 380 334 c 0
 380 344 388 363 396 363 c 2
 437 363 l 1
 437 406 437 414 432 446 c 1
 433 448 l 1
 463 450 504 467 522 474 c 1
 527 474 529 472 529 467 c 0
 526 424 525 419 525 363 c 1
 606 363 l 2
 609 363 612 361 612 358 c 2
 612 333 l 2
 612 326 601 323 594 323 c 2
 525 323 l 1
 525 245 l 2
 525 200 523 162 523 139 c 0
 523 108 528 85 548 85 c 0
 567 85 579 87 599 99 c 1
 607 94 613 84 613 72 c 1
 584 46 539 34 507 34 c 0
 459 34 435 72 435 107 c 0
 435 130 437 192 437 237 c 2
 437 323 l 1
 390 323 l 2
249 718 m 2
 189 718 156 685 156 625 c 2
 156 -53 l 2
 156 -113 189 -136 249 -136 c 2
 821 -136 l 2
 881 -136 904 -113 904 -53 c 2
 904 625 l 2
 904 685 881 718 821 718 c 2
 249 718 l 2
1000 -84 m 2
 1000 -174 971 -212 881 -212 c 2
 249 -212 l 2
 159 -212 120 -174 120 -84 c 2
 120 625 l 2
 120 708 168 754 249 754 c 2
 851 754 l 2
 941 754 1000 715 1000 625 c 2
 1000 -84 l 2
EndSplineSet
Substitution2: "'sinf' Wissenschaftliche Indices 1" t.inferior
Substitution2: "'sups' Hochgestellte 1" t.superior
AlternateSubs2: "'aalt' Alle Alternativen zeigen 1" t.sc
Substitution2: "'smcp' Gemeine nach Kapitaelchen 1" t.sc
EndChar

StartChar: u
Encoding: 117 117 279
Width: 1100
VWidth: 999
Flags: HW
HStem: -212 76<179.2 885.174> 35 48<474.899 551.764> 718 36<188.821 875.472>
VStem: 120 36<-107.953 686.051> 375 89<92.9125 362.036> 588 89<115.094 362.036> 904 96<-118.923 694.8>
AnchorPoint: "unten_anhang" 500 53 basechar 0
AnchorPoint: "ogonek" 555 58 basechar 0
AnchorPoint: "unten_punkt" 519 -30 basechar 0
AnchorPoint: "top_punkt" 560 465 basechar 0
AnchorPoint: "top_akzent" 560 537 basechar 0
LayerCount: 3
Fore
SplineSet
588 91 m 1
 546 46 523 35 492 35 c 0
 418 35 375 86 375 137 c 2
 375 230 l 2
 375 286 374 322 368 364 c 1
 369 367 l 1
 369 367 394 364 419 364 c 0
 446 364 470 367 470 367 c 1
 471 364 l 1
 464 325 464 286 464 230 c 2
 464 162 l 2
 464 95 489 83 512 83 c 0
 545 83 569 116 588 139 c 1
 588 230 l 2
 588 286 587 322 581 364 c 1
 582 367 l 1
 582 367 607 364 632 364 c 0
 659 364 683 367 683 367 c 1
 684 364 l 1
 677 325 677 286 677 230 c 2
 677 187 l 2
 677 130 683 75 689 43 c 1
 688 40 l 1
 678 42 650 43 640 43 c 0
 629 43 610 42 600 40 c 0
 596 40 593 41 593 43 c 2
 590 91 l 1
 588 91 l 1
249 718 m 2
 189 718 156 685 156 625 c 2
 156 -53 l 2
 156 -113 189 -136 249 -136 c 2
 821 -136 l 2
 881 -136 904 -113 904 -53 c 2
 904 625 l 2
 904 685 881 718 821 718 c 2
 249 718 l 2
1000 -84 m 2
 1000 -174 971 -212 881 -212 c 2
 249 -212 l 2
 159 -212 120 -174 120 -84 c 2
 120 625 l 2
 120 708 168 754 249 754 c 2
 851 754 l 2
 941 754 1000 715 1000 625 c 2
 1000 -84 l 2
EndSplineSet
Substitution2: "'sinf' Wissenschaftliche Indices 1" u.inferior
Substitution2: "'sups' Hochgestellte 1" u.superior
Substitution2: "'smcp' Gemeine nach Kapitaelchen 1" u.sc
AlternateSubs2: "'aalt' Alle Alternativen zeigen 1" u.sc
EndChar

StartChar: v
Encoding: 118 118 280
Width: 1100
Flags: HMW
HStem: 51 16G<433 458 508 531> 363 15G<324 343 390 409 576 595 625 646>
AnchorPoint: "unten_punkt" 525 -31 basechar 0
AnchorPoint: "top_akzent" 541 538 basechar 0
AnchorPoint: "top_punkt" 542 467 basechar 0
LayerCount: 3
Fore
SplineSet
454 38 m 1
 412 148 368 257 318 368 c 1
 330 365 356 365 368 365 c 0
 379 365 414 365 424 368 c 1
 451 282 483 194 520 108 c 1
 522 108 l 1
 556 182 590 283 620 368 c 1
 627 365 652 365 660 365 c 0
 667 365 688 365 695 368 c 1
 646 257 596 148 557 38 c 1
 550 41 518 41 511 41 c 0
 503 41 462 41 454 38 c 1
249 718 m 2
 189 718 156 685 156 625 c 2
 156 -53 l 2
 156 -113 189 -136 249 -136 c 2
 821 -136 l 2
 881 -136 904 -113 904 -53 c 2
 904 625 l 2
 904 685 881 718 821 718 c 2
 249 718 l 2
1000 -84 m 2
 1000 -174 971 -212 881 -212 c 2
 249 -212 l 2
 159 -212 120 -174 120 -84 c 2
 120 625 l 2
 120 708 168 754 249 754 c 2
 851 754 l 2
 941 754 1000 715 1000 625 c 2
 1000 -84 l 2
EndSplineSet
Substitution2: "'sinf' Wissenschaftliche Indices 1" v.inferior
Substitution2: "'sups' Hochgestellte 1" v.superior
Substitution2: "'smcp' Gemeine nach Kapitaelchen 1" v.sc
AlternateSubs2: "'aalt' Alle Alternativen zeigen 1" v.sc
EndChar

StartChar: w
Encoding: 119 119 281
Width: 1100
Flags: HW
HStem: -212 76<179.2 885.174> 42 67<425.471 448.028 649.454 673.741> 348 20G<241 260 335.5 354 464 483 559 577.5 745 763.5 808.5 829.5> 718 36<188.821 875.472>
VStem: 120 36<-107.953 686.051> 904 96<-118.923 694.8>
AnchorPoint: "top_punkt" 472 468 basechar 0
AnchorPoint: "top_akzent" 471 538 basechar 0
AnchorPoint: "unten_punkt" 476 -30 basechar 0
LayerCount: 3
Fore
SplineSet
370 38 m 1
 328 148 285 256 235 367 c 1
 247 364 277 364 289 364 c 0
 299 364 331 364 340 367 c 1
 368 281 397 194 434 108 c 1
 439 108 l 1
 459.5 153.8 481.9 209.4 502.7 264.8 c 1
 488.4 299 473.6 333.4 458 368 c 1
 470 365 500 365 512 365 c 0
 523 365 554 365 564 368 c 1
 591 281 621 195 658 109 c 1
 664 109 l 1
 699 183 730 283 760 368 c 1
 767 365 794 365 801 365 c 0
 808 365 826 365 833 368 c 1
 784 257 732 149 693 39 c 1
 686 42 640 42 633 42 c 0
 626 42 599 42 592 39 c 1
 571.7 92.3 551.4 145.1 530.1 198 c 1
 508.9 144.7 489.4 89.1 471 38 c 1
 464 41 417 41 410 41 c 0
 402 41 378 41 370 38 c 1
249 718 m 2
 189 718 156 685 156 625 c 2
 156 -53 l 2
 156 -113 189 -136 249 -136 c 2
 821 -136 l 2
 881 -136 904 -113 904 -53 c 2
 904 625 l 2
 904 685 881 718 821 718 c 2
 249 718 l 2
1000 -84 m 2
 1000 -174 971 -212 881 -212 c 2
 249 -212 l 2
 159 -212 120 -174 120 -84 c 2
 120 625 l 2
 120 708 168 754 249 754 c 2
 851 754 l 2
 941 754 1000 715 1000 625 c 2
 1000 -84 l 2
EndSplineSet
Substitution2: "'sinf' Wissenschaftliche Indices 1" w.inferior
Substitution2: "'sups' Hochgestellte 1" w.superior
Substitution2: "'smcp' Gemeine nach Kapitaelchen 1" w.sc
AlternateSubs2: "'aalt' Alle Alternativen zeigen 1" w.sc
EndChar

StartChar: x.superior
Encoding: 739 739 282
Width: 307
VWidth: 608
Flags: HW
HStem: 279 18<51 83.1719 115.004 134 170 187.996 233.19 265> 463 16<53 80.5012 130.001 147 181 201.997 230.931 261>
VStem: 50 216
LayerCount: 3
Fore
SplineSet
50 291 m 2
 50 296 53 297 58 297 c 0
 72 297 78 299 93 316 c 2
 93 316 138 370 140 372 c 1
 87 448 l 2
 80 457 72 463 63 463 c 0
 54 463 52 465 52 468 c 2
 52 478 l 1
 53 479 l 1
 68 479 80 479 98 479 c 0
 113 479 129 479 147 479 c 1
 148 477 l 1
 148 468 l 2
 148 465 144 463 137 463 c 0
 132 463 130 460 130 457 c 0
 130 453 132 448 135 443 c 2
 163 401 l 1
 193 443 198 451 198 451 c 1
 201 453 202 455 202 457 c 0
 202 461 198 463 188 463 c 0
 184 463 180 464 180 468 c 2
 180 478 l 1
 181 479 l 1
 195 479 207 478 220 478 c 0
 234 478 245 479 261 479 c 1
 262 477 l 1
 262 469 l 2
 262 465 262 463 252 463 c 0
 237 463 233 459 218 440 c 1
 176 382 l 1
 223 317 l 2
 231 307 240 297 256 297 c 0
 265 297 266 293 266 291 c 2
 266 281 l 1
 265 279 l 1
 251 280 238 280 223 280 c 0
 206 280 180 279 170 279 c 1
 169 280 l 1
 169 287 l 2
 169 292 171 297 178 297 c 0
 183 297 188 297 188 301 c 0
 188 303 186 305 184 309 c 2
 184 309 156 346 153 352 c 1
 141 336 120 310 120 310 c 2
 117 305 115 303 115 300 c 0
 115 297 120 297 128 297 c 0
 134 297 135 294 135 291 c 2
 135 281 l 1
 134 279 l 1
 119 280 107 280 95 280 c 0
 78 280 64 279 51 279 c 1
 50 281 l 1
 50 291 l 2
EndSplineSet
Colour: ff00ff
EndChar

StartChar: y
Encoding: 121 121 283
Width: 1100
Flags: HW
HStem: -212 76<179.2 885.174> 718 36<188.821 875.472>
VStem: 120 36<-107.953 686.051> 413 77<-113 -80.3286> 904 96<-118.923 694.8>
AnchorPoint: "top_akzent" 534 507 basechar 0
AnchorPoint: "top_punkt" 541 437 basechar 0
LayerCount: 3
Fore
SplineSet
356 388 m 1
 366 386 399 386 409 386 c 0
 419 386 450 386 460 388 c 1
 484.3 313.2 515.2 239.2 547.4 161.6 c 1
 578.3 233 607.9 314.9 632 388 c 1
 639 386 668 386 675 386 c 0
 683 386 700 386 707 388 c 1
 683 338 518 -20 490 -113 c 1
 482 -111 461 -110 453 -110 c 0
 446 -110 420 -111 413 -113 c 1
 447 -57 473 -6 497 50 c 1
 494 55 l 1
 466 131 385 323 356 388 c 1
249 718 m 2
 189 718 156 685 156 625 c 2
 156 -53 l 2
 156 -113 189 -136 249 -136 c 2
 821 -136 l 2
 881 -136 904 -113 904 -53 c 2
 904 625 l 2
 904 685 881 718 821 718 c 2
 249 718 l 2
1000 -84 m 2
 1000 -174 971 -212 881 -212 c 2
 249 -212 l 2
 159 -212 120 -174 120 -84 c 2
 120 625 l 2
 120 708 168 754 249 754 c 2
 851 754 l 2
 941 754 1000 715 1000 625 c 2
 1000 -84 l 2
EndSplineSet
Substitution2: "'sinf' Wissenschaftliche Indices 1" y.inferior
Substitution2: "'sups' Hochgestellte 1" y.superior
Substitution2: "'smcp' Gemeine nach Kapitaelchen 1" y.sc
AlternateSubs2: "'aalt' Alle Alternativen zeigen 1" y.sc
EndChar

StartChar: z
Encoding: 122 122 284
Width: 1100
VWidth: 999
Flags: HW
HStem: -212 76<179.2 885.174> 41 44<462 644.435> 321 45<363.565 530> 718 36<188.821 875.472>
VStem: 120 36<-107.953 686.051> 904 96<-118.923 694.8>
DStem2: 358 65 462 85 0.558103 0.829772<74.6381 308.415>
AnchorPoint: "top_akzent" 492 539 basechar 0
AnchorPoint: "top_punkt" 492 467 basechar 0
AnchorPoint: "unten_anhang" 483 54 basechar 0
AnchorPoint: "unten_punkt" 482 -29 basechar 0
LayerCount: 3
Fore
SplineSet
530 321 m 1
 445 320 363 313 363 313 c 1
 362 316 l 1
 363 322 363 335 363 342 c 0
 363 349 363 356 362 366 c 1
 363 368 l 1
 375 367 390 366 405 366 c 2
 587 366 l 2
 609 366 644 371 647 371 c 0
 650 371 651 369 651 366 c 1
 647 361 642 353 629 334 c 2
 462 85 l 1
 551 86 645 94 645 94 c 1
 646 91 l 1
 645 85 645 72 645 65 c 0
 645 58 645 51 646 41 c 1
 645 39 l 1
 633 40 618 41 603 41 c 2
 433 41 l 2
 412 41 344 39 344 39 c 1
 342 42 l 1
 348 49 352 56 358 65 c 2
 530 321 l 1
249 718 m 2
 189 718 156 685 156 625 c 2
 156 -53 l 2
 156 -113 189 -136 249 -136 c 2
 821 -136 l 2
 881 -136 904 -113 904 -53 c 2
 904 625 l 2
 904 685 881 718 821 718 c 2
 249 718 l 2
1000 -84 m 2
 1000 -174 971 -212 881 -212 c 2
 249 -212 l 2
 159 -212 120 -174 120 -84 c 2
 120 625 l 2
 120 708 168 754 249 754 c 2
 851 754 l 2
 941 754 1000 715 1000 625 c 2
 1000 -84 l 2
EndSplineSet
Substitution2: "'sinf' Wissenschaftliche Indices 1" z.inferior
Substitution2: "'sups' Hochgestellte 1" z.superior
Substitution2: "'smcp' Gemeine nach Kapitaelchen 1" z.sc
AlternateSubs2: "'aalt' Alle Alternativen zeigen 1" z.sc
EndChar

StartChar: braceleft
Encoding: 123 123 285
Width: 1100
VWidth: 999
Flags: HW
HStem: -212 76<179.2 885.174> -67 23<580.728 605> 599 23<580.988 605> 718 36<188.821 875.472>
VStem: 120 36<-107.953 686.051> 470 83<-23.6149 247.33 304.257 578.88> 904 96<-118.923 694.8>
LayerCount: 3
Fore
SplineSet
553 507 m 2
 553 381 l 2
 553 313 528 293 491 277 c 1
 535 258 553 227 553 163 c 2
 553 51 l 2
 553 -3 572 -44 605 -44 c 1
 605 -67 l 1
 529 -66 470 -42 470 55 c 2
 470 179 l 2
 470 225 456 258 416 267 c 1
 416 285 l 1
 458 297 470 335 470 372 c 2
 470 507 l 2
 470 594 530 620 605 622 c 1
 605 599 l 1
 577 591 553 575 553 507 c 2
249 718 m 2
 189 718 156 685 156 625 c 2
 156 -53 l 2
 156 -113 189 -136 249 -136 c 2
 821 -136 l 2
 881 -136 904 -113 904 -53 c 2
 904 625 l 2
 904 685 881 718 821 718 c 2
 249 718 l 2
1000 -84 m 2
 1000 -174 971 -212 881 -212 c 2
 249 -212 l 2
 159 -212 120 -174 120 -84 c 2
 120 625 l 2
 120 708 168 754 249 754 c 2
 851 754 l 2
 941 754 1000 715 1000 625 c 2
 1000 -84 l 2
EndSplineSet
Substitution2: "'c2sc' Versale nach Kapitaelchen 1" braceleft.sc
Substitution2: "'case' Versalformen 1" braceleft.sc
AlternateSubs2: "'aalt' Alle Alternativen zeigen 1" braceleft.sc
EndChar

StartChar: bar
Encoding: 124 124 286
Width: 1100
VWidth: 999
Flags: HW
HStem: -212 76<179.2 885.174> 718 36<188.821 875.472>
VStem: 120 36<-107.953 686.051> 518 44<-106 592> 904 96<-118.923 694.8>
LayerCount: 3
Fore
SplineSet
562 -106 m 1
 518 -106 l 1
 518 592 l 1
 562 592 l 1
 562 -106 l 1
249 718 m 2
 189 718 156 685 156 625 c 2
 156 -53 l 2
 156 -113 189 -136 249 -136 c 2
 821 -136 l 2
 881 -136 904 -113 904 -53 c 2
 904 625 l 2
 904 685 881 718 821 718 c 2
 249 718 l 2
1000 -84 m 2
 1000 -174 971 -212 881 -212 c 2
 249 -212 l 2
 159 -212 120 -174 120 -84 c 2
 120 625 l 2
 120 708 168 754 249 754 c 2
 851 754 l 2
 941 754 1000 715 1000 625 c 2
 1000 -84 l 2
EndSplineSet
EndChar

StartChar: braceright
Encoding: 125 125 287
Width: 1100
VWidth: 999
Flags: HW
HStem: -212 76<179.2 885.174> -87 23<485 509.272> 579 23<485 509.012> 718 36<188.821 875.472>
VStem: 120 36<-107.953 686.051> 537 83<-43.6149 227.33 284.257 558.88> 904 96<-118.923 694.8>
LayerCount: 3
Fore
SplineSet
537 487 m 2
 537 555 513 571 485 579 c 1
 485 602 l 1
 560 600 620 574 620 487 c 2
 620 352 l 2
 620 315 632 277 674 265 c 1
 674 247 l 1
 634 238 620 205 620 159 c 2
 620 35 l 2
 620 -62 561 -86 485 -87 c 1
 485 -64 l 1
 518 -64 537 -23 537 31 c 2
 537 143 l 2
 537 207 555 238 599 257 c 1
 562 273 537 293 537 361 c 2
 537 487 l 2
249 718 m 2
 189 718 156 685 156 625 c 2
 156 -53 l 2
 156 -113 189 -136 249 -136 c 2
 821 -136 l 2
 881 -136 904 -113 904 -53 c 2
 904 625 l 2
 904 685 881 718 821 718 c 2
 249 718 l 2
1000 -84 m 2
 1000 -174 971 -212 881 -212 c 2
 249 -212 l 2
 159 -212 120 -174 120 -84 c 2
 120 625 l 2
 120 708 168 754 249 754 c 2
 851 754 l 2
 941 754 1000 715 1000 625 c 2
 1000 -84 l 2
EndSplineSet
Substitution2: "'c2sc' Versale nach Kapitaelchen 1" braceright.sc
Substitution2: "'case' Versalformen 1" braceright.sc
AlternateSubs2: "'aalt' Alle Alternativen zeigen 1" braceright.sc
Colour: ff00ff
EndChar

StartChar: asciitilde
Encoding: 126 126 288
Width: 1100
VWidth: 999
Flags: HW
HStem: -212 76<179.2 885.174> 235 60<552.689 653.398> 285 62<437.895 537.449> 718 36<188.821 875.472>
VStem: 120 36<-107.953 686.051> 388 16<233.625 240.396> 675 20<325.116 332.85> 904 96<-118.923 694.8>
LayerCount: 3
Fore
SplineSet
388 238 m 1
 398 289 440 347 488 347 c 0
 506 347 526 334 546 321 c 0
 566 308 587 295 604 295 c 0
 626 295 657 301 675 340 c 1
 695 329 l 1
 671 245 620 235 601 235 c 0
 581 235 561 247 542 260 c 0
 522 274 503 285 483 285 c 0
 456 285 423 264 404 228 c 1
 388 238 l 1
249 718 m 2
 189 718 156 685 156 625 c 2
 156 -53 l 2
 156 -113 189 -136 249 -136 c 2
 821 -136 l 2
 881 -136 904 -113 904 -53 c 2
 904 625 l 2
 904 685 881 718 821 718 c 2
 249 718 l 2
1000 -84 m 2
 1000 -174 971 -212 881 -212 c 2
 249 -212 l 2
 159 -212 120 -174 120 -84 c 2
 120 625 l 2
 120 708 168 754 249 754 c 2
 851 754 l 2
 941 754 1000 715 1000 625 c 2
 1000 -84 l 2
EndSplineSet
EndChar

StartChar: exclamdown
Encoding: 161 161 290
Width: 1100
VWidth: 999
Flags: HW
HStem: -212 76<179.2 885.174> 374 93<487.23 554.068> 718 36<188.821 875.472>
VStem: 120 36<-107.953 686.051> 473 91<-24.2638 170.771 388.075 454.926> 904 96<-118.923 694.8>
LayerCount: 3
Fore
SplineSet
519 -32 m 0
 497 -32 473 -15 473 22 c 0
 473 71 486 103 494 167 c 0
 505 248 506 293 507 304 c 0
 508 312 511 319 519 319 c 0
 528 319 530 313 530 309 c 0
 532 293 536 226 543 167 c 0
 551 101 564 75 564 22 c 0
 564 -18 537 -32 519 -32 c 0
568 422 m 1
 568 419 l 1
 559 397 547 384 522 374 c 1
 520 374 l 1
 496 383 483 395 474 419 c 1
 474 422 l 1
 484 449 496 461 520 467 c 1
 522 467 l 1
 549 461 560 449 568 422 c 1
249 718 m 2
 189 718 156 685 156 625 c 2
 156 -53 l 2
 156 -113 189 -136 249 -136 c 2
 821 -136 l 2
 881 -136 904 -113 904 -53 c 2
 904 625 l 2
 904 685 881 718 821 718 c 2
 249 718 l 2
1000 -84 m 2
 1000 -174 971 -212 881 -212 c 2
 249 -212 l 2
 159 -212 120 -174 120 -84 c 2
 120 625 l 2
 120 708 168 754 249 754 c 2
 851 754 l 2
 941 754 1000 715 1000 625 c 2
 1000 -84 l 2
EndSplineSet
Substitution2: "'c2sc' Versale nach Kapitaelchen 1" exclamdown.sc
Substitution2: "'case' Versalformen 1" exclamdown.sc
AlternateSubs2: "'aalt' Alle Alternativen zeigen 1" exclamdown.sc
Colour: ff00ff
EndChar

StartChar: cent
Encoding: 162 162 291
Width: 1100
VWidth: 999
Flags: HW
HStem: -212 76<179.2 885.174> 42 21G<530 555> 101.4 44.1<505.127 611.665> 367.8 36.9<499.113 589.299> 718 36<188.821 875.472>
VStem: 120 36<-107.953 686.051> 384.4 82.8<185.561 330.685> 530 25<42 484> 904 96<-118.923 694.8>
LayerCount: 3
Fore
SplineSet
530 484 m 1
 555 484 l 1
 555 404.6 l 1
 587.3 403.5 626.8 393.3 646.3 383.1 c 1
 647.2 381.3 l 1
 631.9 312.9 l 1
 620.2 312 l 1
 603.8 340 579 363.4 555 367.2 c 1
 555 145.5 l 2
 555.7 145.5 556.5 145.5 557.2 145.5 c 0
 584.2 145.5 610.3 154.5 636.4 186.9 c 1
 638.2 186.9 l 1
 647.2 181.5 651.7 176.1 652.6 169.8 c 1
 637.1 136.3 600.1 107.3 555 102.2 c 1
 555 42 l 1
 530 42 l 1
 530 101.7 l 1
 437.7 106 384.4 165 384.4 249 c 0
 384.4 337.6 448.1 396 530 403.8 c 1
 530 484 l 1
249 718 m 2
 189 718 156 685 156 625 c 2
 156 -53 l 2
 156 -113 189 -136 249 -136 c 2
 821 -136 l 2
 881 -136 904 -113 904 -53 c 2
 904 625 l 2
 904 685 881 718 821 718 c 2
 249 718 l 2
1000 -84 m 2
 1000 -174 971 -212 881 -212 c 2
 249 -212 l 2
 159 -212 120 -174 120 -84 c 2
 120 625 l 2
 120 708 168 754 249 754 c 2
 851 754 l 2
 941 754 1000 715 1000 625 c 2
 1000 -84 l 2
530 150.5 m 1
 530 365.9 l 1
 493.9 358.1 467.2 325.8 467.2 266.1 c 0
 467.2 208.3 492.8 164.7 530 150.5 c 1
EndSplineSet
Colour: ff80cc
EndChar

StartChar: sterling
Encoding: 163 163 292
Width: 1100
VWidth: 438
Flags: HW
HStem: -212 76<179.2 885.174> 34 52<529.015 657.221> 85 39<439 485.104> 284 39<354 415 510 614> 452 71<639.749 664.316> 484 46<536.334 647> 718 36<188.821 875.472>
VStem: 120 36<-107.953 686.051> 313 71<32.6991 83.1887> 415 95<184.54 284 323 374> 904 96<-118.923 694.8>
LayerCount: 3
Fore
SplineSet
249 718 m 2
 189 718 156 685 156 625 c 2
 156 -53 l 2
 156 -113 189 -136 249 -136 c 2
 821 -136 l 2
 881 -136 904 -113 904 -53 c 2
 904 625 l 2
 904 685 881 718 821 718 c 2
 249 718 l 2
1000 -84 m 2
 1000 -174 971 -212 881 -212 c 2
 249 -212 l 2
 159 -212 120 -174 120 -84 c 2
 120 625 l 2
 120 708 168 754 249 754 c 2
 851 754 l 2
 941 754 1000 715 1000 625 c 2
 1000 -84 l 2
506 374 m 1
 510 323 l 1
 607 323 l 2
 612 323 614 321 614 318 c 2
 614 294 l 2
 614 287 602 284 592 284 c 2
 510 284 l 1
 509 187 469 150 439 124 c 1
 440 124 441 124 443 124 c 0
 545 124 534 86 593 86 c 0
 619 86 662 90 686 119 c 1
 702 104 l 1
 680 62 635 34 577 34 c 0
 496 34 496 85 418 85 c 0
 387 85 384 72 384 62 c 0
 384 41 367 30 345 30 c 0
 327 30 313 41 313 55 c 0
 313 72 336 86 363 99 c 1
 412 135 415 196 415 270 c 2
 415 284 l 1
 359 284 l 2
 354 284 354 284 354 288 c 2
 354 306 l 2
 354 313 359 323 375 323 c 2
 415 323 l 1
 415 333 l 2
 415 402 438 437 485 479 c 0
 533 521 586 530 639 530 c 0
 655 530 670 526 677 523 c 1
 678 520 l 1
 668 506 665 476 661 453 c 1
 643 452 l 1
 633 466 624 484 600 484 c 0
 552 484 501 455 506 374 c 1
EndSplineSet
EndChar

StartChar: currency
Encoding: 164 164 293
Width: 1100
Flags: HW
HStem: -212 76<179.2 885.174> 167 41<465.636 575.361> 392 41<466.591 574.246> 439 20G<630 653.13> 718 36<188.821 875.472>
VStem: 120 36<-107.953 686.051> 373 60<238.709 360.236> 607 61<237.296 359.853> 904 96<-118.923 694.8>
LayerCount: 3
Fore
SplineSet
433 300 m 0
 433 248 471 208 520 208 c 0
 571 208 607 248 607 299 c 0
 607 353 565 392 522 392 c 0
 473 392 433 352 433 300 c 0
520 167 m 0
 492 167 467 173 445 185 c 1
 435 172 419 152 411 142 c 1
 365 186 l 1
 405 218 l 1
 384 245 373 271 373 299 c 0
 373 329 384 356 406 382 c 1
 394 391 378 403 367 413 c 1
 408 455 l 1
 445 414 l 1
 468 426 493 433 522 433 c 0
 552 433 574 425 596 413 c 1
 608 428 626 449 634 459 c 1
 678 413 l 1
 637 380 l 1
 658 354 668 328 668 299 c 0
 668 272 657 246 637 220 c 1
 649 210 665 197 676 187 c 1
 636 143 l 1
 598 187 l 1
 575 174 550 167 520 167 c 0
249 718 m 2
 189 718 156 685 156 625 c 2
 156 -53 l 2
 156 -113 189 -136 249 -136 c 2
 821 -136 l 2
 881 -136 904 -113 904 -53 c 2
 904 625 l 2
 904 685 881 718 821 718 c 2
 249 718 l 2
1000 -84 m 2
 1000 -174 971 -212 881 -212 c 2
 249 -212 l 2
 159 -212 120 -174 120 -84 c 2
 120 625 l 2
 120 708 168 754 249 754 c 2
 851 754 l 2
 941 754 1000 715 1000 625 c 2
 1000 -84 l 2
EndSplineSet
EndChar

StartChar: yen
Encoding: 165 165 294
Width: 1100
Flags: HW
HStem: -212 76<179.2 885.174> 167 29<356.012 623.658> 243 30<357.58 623.747> 718 36<188.821 875.472>
VStem: 120 36<-107.953 686.051> 904 96<-118.923 694.8>
LayerCount: 3
Fore
SplineSet
360 243 m 2
 356 243 356 244 356 248 c 2
 356 258 l 2
 356 264 360 273 372 273 c 2
 447.3 273 l 1
 415 332.5 350.9 462.2 327 503 c 1
 338 500 354 500 366 500 c 0
 377 500 392 500 403 503 c 1
 431.3 428.9 455.7 370.1 496.7 297.7 c 1
 534.7 357.9 558.5 423.2 591 503 c 1
 599 500 610 500 619 500 c 0
 627 500 638 500 647 503 c 1
 583.1 390.9 549.2 324.3 522.3 273 c 1
 619 273 l 2
 622 273 624 272 624 269 c 2
 624 253 l 2
 624 246 614 243 607 243 c 2
 516.3 243 l 1
 516.5 228 516.8 212 517.1 196 c 1
 619 196 l 2
 622 196 624 194 624 192 c 2
 624 176 l 2
 624 170 614 167 607 167 c 2
 517.7 167 l 1
 518.7 125.5 520.1 87.4 522 69 c 1
 511 72 497 72 487 72 c 0
 477 72 464 72 453 69 c 1
 455.4 90.7 456.7 127.4 457.3 167 c 1
 360 167 l 2
 356 167 356 168 356 171 c 2
 356 181 l 2
 356 187 360 196 372 196 c 2
 457.7 196 l 1
 457.9 211.9 458 227.8 458 243 c 1
 360 243 l 2
249 718 m 2
 189 718 156 685 156 625 c 2
 156 -53 l 2
 156 -113 189 -136 249 -136 c 2
 821 -136 l 2
 881 -136 904 -113 904 -53 c 2
 904 625 l 2
 904 685 881 718 821 718 c 2
 249 718 l 2
1000 -84 m 2
 1000 -174 971 -212 881 -212 c 2
 249 -212 l 2
 159 -212 120 -174 120 -84 c 2
 120 625 l 2
 120 708 168 754 249 754 c 2
 851 754 l 2
 941 754 1000 715 1000 625 c 2
 1000 -84 l 2
EndSplineSet
Substitution2: "'pnum' Proportionalziffern 1" Yen.fitted
EndChar

StartChar: brokenbar
Encoding: 166 166 295
Width: 1100
VWidth: 999
Flags: HW
HStem: -212 76<179.2 885.174> 718 36<188.821 875.472>
VStem: 120 36<-107.953 686.051> 488 44<-72 195 278 545> 904 96<-118.923 694.8>
LayerCount: 3
Fore
SplineSet
532 545 m 1
 532 278 l 1
 488 278 l 1
 488 545 l 1
 532 545 l 1
532 195 m 1
 532 -72 l 1
 488 -72 l 1
 488 195 l 1
 532 195 l 1
249 718 m 2
 189 718 156 685 156 625 c 2
 156 -53 l 2
 156 -113 189 -136 249 -136 c 2
 821 -136 l 2
 881 -136 904 -113 904 -53 c 2
 904 625 l 2
 904 685 881 718 821 718 c 2
 249 718 l 2
1000 -84 m 2
 1000 -174 971 -212 881 -212 c 2
 249 -212 l 2
 159 -212 120 -174 120 -84 c 2
 120 625 l 2
 120 708 168 754 249 754 c 2
 851 754 l 2
 941 754 1000 715 1000 625 c 2
 1000 -84 l 2
EndSplineSet
EndChar

StartChar: section
Encoding: 167 167 296
Width: 1100
VWidth: 999
Flags: HW
HStem: -212 76<179.2 885.174> -68 36<477.012 571.475> 354 20G<412 457> 518 36<473.525 567.988> 718 36<188.821 875.472>
VStem: 120 36<-107.953 686.051> 363 74<228.445 327.89> 386 76<412.048 499.524> 583 76<-13.5239 79.5099> 608 74<158.11 257.684> 904 96<-118.923 694.8>
LayerCount: 3
Fore
SplineSet
249 718 m 2
 189 718 156 685 156 625 c 2
 156 -53 l 2
 156 -113 189 -136 249 -136 c 2
 821 -136 l 2
 881 -136 904 -113 904 -53 c 2
 904 625 l 2
 904 685 881 718 821 718 c 2
 249 718 l 2
1000 -84 m 2
 1000 -174 971 -212 881 -212 c 2
 249 -212 l 2
 159 -212 120 -174 120 -84 c 2
 120 625 l 2
 120 708 168 754 249 754 c 2
 851 754 l 2
 941 754 1000 715 1000 625 c 2
 1000 -84 l 2
451.5 350.2 m 1
 439.3 334.8 437 312 437 290 c 0
 437 219 504 184 561 155 c 0
 572.7 149 583.6 142.6 593.5 135.8 c 1
 605.7 151.2 608 174 608 196 c 0
 608 267 541 302 484 331 c 0
 472.3 337 461.4 343.4 451.5 350.2 c 1
424.9 371.7 m 1
 399.9 395.6 386 422.2 386 448 c 0
 386 497 449 554 524 554 c 0
 576 554 624 524 644 507 c 1
 647 503 l 1
 634 442 l 1
 623 440 l 1
 602 478 559 518 518 518 c 0
 482 518 462 499 462 463 c 0
 462 428 476 411 514 395 c 0
 575 370 682 317 682 225 c 0
 682 180.5 651.1 137.8 620.1 114.3 c 1
 645.1 90.4 659 63.8 659 38 c 0
 659 -11 596 -68 521 -68 c 0
 469 -68 421 -38 401 -21 c 1
 398 -17 l 1
 411 44 l 1
 422 46 l 1
 443 8 486 -32 527 -32 c 0
 563 -32 583 -13 583 23 c 0
 583 58 569 82 531 98 c 0
 470 122 363 169 363 261 c 0
 363 305.5 393.9 348.2 424.9 371.7 c 1
EndSplineSet
EndChar

StartChar: dieresis
Encoding: 168 168 297
Width: 399
VWidth: 999
Flags: HW
HStem: 459 89.1<89.8443 165.857 239.143 315.156>
VStem: 83.2 89.1<465.907 541.042> 232.8 89.1<465.907 541.042>
LayerCount: 3
Fore
SplineSet
232.8 503 m 0
 232.8 528.3 252.6 548.1 276.8 548.1 c 0
 301 548.1 321.9 528.3 321.9 503 c 0
 321.9 478.8 301 459 276.8 459 c 0
 252.6 459 232.8 478.8 232.8 503 c 0
83.2 503 m 0
 83.2 528.3 104 548.1 128.2 548.1 c 0
 152.4 548.1 172.3 528.3 172.3 503 c 0
 172.3 478.8 152.4 459 128.2 459 c 0
 104 459 83.2 478.8 83.2 503 c 0
EndSplineSet
EndChar

StartChar: guillemotleft
Encoding: 171 171 299
Width: 1100
VWidth: 999
Flags: HW
HStem: -212 76<179.2 885.174> 36 21G<480.5 519.902 655 693.902> 718 36<188.821 875.472>
VStem: 120 36<-107.953 686.051> 904 96<-118.923 694.8>
LayerCount: 3
Fore
SplineSet
249 718 m 2
 189 718 156 685 156 625 c 2
 156 -53 l 2
 156 -113 189 -136 249 -136 c 2
 821 -136 l 2
 881 -136 904 -113 904 -53 c 2
 904 625 l 2
 904 685 881 718 821 718 c 2
 249 718 l 2
1000 -84 m 2
 1000 -174 971 -212 881 -212 c 2
 249 -212 l 2
 159 -212 120 -174 120 -84 c 2
 120 625 l 2
 120 708 168 754 249 754 c 2
 851 754 l 2
 941 754 1000 715 1000 625 c 2
 1000 -84 l 2
690 378 m 1
 698 337 l 1
 660 284 617 241 572 207 c 1
 615 177 656 135 698 77 c 1
 690 36 l 1
 620 110 548 162 490 192 c 1
 490 222 l 1
 552 262 624 314 690 378 c 1
516 378 m 1
 524 337 l 1
 484 284 449 241 404 207 c 1
 446 177 482 135 524 77 c 1
 516 36 l 1
 445 110 380 162 322 192 c 1
 322 222 l 1
 384 262 449 314 516 378 c 1
EndSplineSet
Substitution2: "'c2sc' Versale nach Kapitaelchen 1" guillemotleft.sc
AlternateSubs2: "'aalt' Alle Alternativen zeigen 1" guillemotleft.sc
Substitution2: "'case' Versalformen 1" guillemotleft.sc
EndChar

StartChar: uni00AD
Encoding: 173 173 300
Width: 1100
VWidth: 999
Flags: HW
HStem: -212 76<179.2 885.174> 232 54<419.995 643.68> 718 36<188.821 875.472>
VStem: 120 36<-107.953 686.051> 904 96<-118.923 694.8>
LayerCount: 3
Fore
SplineSet
627 232 m 2
 428 232 l 2
 421 232 416 238 416 245 c 0
 416 257 426 286 435 286 c 2
 637 286 l 2
 644 286 648 276 648 270 c 0
 648 261 637 232 627 232 c 2
249 718 m 2
 189 718 156 685 156 625 c 2
 156 -53 l 2
 156 -113 189 -136 249 -136 c 2
 821 -136 l 2
 881 -136 904 -113 904 -53 c 2
 904 625 l 2
 904 685 881 718 821 718 c 2
 249 718 l 2
1000 -84 m 2
 1000 -174 971 -212 881 -212 c 2
 249 -212 l 2
 159 -212 120 -174 120 -84 c 2
 120 625 l 2
 120 708 168 754 249 754 c 2
 851 754 l 2
 941 754 1000 715 1000 625 c 2
 1000 -84 l 2
EndSplineSet
Colour: ff00ff
EndChar

StartChar: degree
Encoding: 176 176 302
Width: 1100
VWidth: 999
Flags: HW
HStem: -212 76<179.2 885.174> 424 35<480.003 547.115> 552 35<480.686 546.362> 718 36<188.821 875.472>
VStem: 120 36<-107.953 686.051> 432 39<466.187 544.436> 556 39<466.266 544.867> 904 96<-118.923 694.8>
LayerCount: 3
Fore
SplineSet
556 504 m 0
 556 526.7 543.1 552 514 552 c 0
 486.7 552 471 528.2 471 504 c 0
 471 479.1 488.2 459 514 459 c 0
 540.4 459 556 482 556 504 c 0
514 587 m 0
 558.9 587 595 550.7 595 505 c 0
 595 460.2 558.8 424 514 424 c 0
 469.2 424 432 460 432 505 c 0
 432 550.9 469.2 587 514 587 c 0
249 718 m 2
 189 718 156 685 156 625 c 2
 156 -53 l 2
 156 -113 189 -136 249 -136 c 2
 821 -136 l 2
 881 -136 904 -113 904 -53 c 2
 904 625 l 2
 904 685 881 718 821 718 c 2
 249 718 l 2
1000 -84 m 2
 1000 -174 971 -212 881 -212 c 2
 249 -212 l 2
 159 -212 120 -174 120 -84 c 2
 120 625 l 2
 120 708 168 754 249 754 c 2
 851 754 l 2
 941 754 1000 715 1000 625 c 2
 1000 -84 l 2
EndSplineSet
EndChar

StartChar: plusminus
Encoding: 177 177 303
Width: 1100
VWidth: 999
Flags: HW
HStem: -212 76<179.2 885.174> -12 56<395 692> 204 56<385 513 569 697> 718 36<188.821 875.472>
VStem: 120 36<-107.953 686.051> 513 56<82 204 260 383> 904 96<-118.923 694.8>
LayerCount: 3
Fore
SplineSet
692 44 m 1
 692 -12 l 1
 395 -12 l 1
 395 44 l 1
 692 44 l 1
569 260 m 1
 697 260 l 1
 697 204 l 1
 569 204 l 1
 569 82 l 1
 513 82 l 1
 513 204 l 1
 385 204 l 1
 385 260 l 1
 513 260 l 1
 513 383 l 1
 569 383 l 1
 569 260 l 1
249 718 m 2
 189 718 156 685 156 625 c 2
 156 -53 l 2
 156 -113 189 -136 249 -136 c 2
 821 -136 l 2
 881 -136 904 -113 904 -53 c 2
 904 625 l 2
 904 685 881 718 821 718 c 2
 249 718 l 2
1000 -84 m 2
 1000 -174 971 -212 881 -212 c 2
 249 -212 l 2
 159 -212 120 -174 120 -84 c 2
 120 625 l 2
 120 708 168 754 249 754 c 2
 851 754 l 2
 941 754 1000 715 1000 625 c 2
 1000 -84 l 2
EndSplineSet
Colour: ff00ff
EndChar

StartChar: acute
Encoding: 180 180 304
Width: 1100
VWidth: 999
Flags: HMW
HStem: 562 120
LayerCount: 3
Fore
SplineSet
249 718 m 2
 189 718 156 685 156 625 c 2
 156 -53 l 2
 156 -113 189 -136 249 -136 c 2
 821 -136 l 2
 881 -136 904 -113 904 -53 c 2
 904 625 l 2
 904 685 881 718 821 718 c 2
 249 718 l 2
1000 -84 m 2
 1000 -174 971 -212 881 -212 c 2
 249 -212 l 2
 159 -212 120 -174 120 -84 c 2
 120 625 l 2
 120 708 168 754 249 754 c 2
 851 754 l 2
 941 754 1000 715 1000 625 c 2
 1000 -84 l 2
534.3 592.2 m 1
 536.5 593.3 543.1 594.5 547.5 594.5 c 0
 572.8 594.5 588.2 582.4 594.8 574.7 c 1
 602.5 554.8 l 1
 503.5 465.8 l 2
 492.5 455.9 480.4 452.5 472.7 452.5 c 0
 466.1 452.5 459.5 459.2 459.5 464.7 c 0
 459.5 469.1 460.6 476.8 466.1 484.5 c 2
 534.3 592.2 l 1
EndSplineSet
Substitution2: "'case' Versalformen 1" acute.cap
Colour: ff00ff
EndChar

StartChar: uni00B5
Encoding: 181 181 305
Width: 1100
Flags: HW
HStem: -212 76<179.2 885.174> -147 11<407 446> 18 40<468.668 548.266 635.5 709.863> 342 20G<366 455.513 582 665> 718 36<188.821 875.472>
VStem: 120 36<-107.953 686.051> 374 88<-135.738 22.7402 61.4541 351.954> 387 62<-94.2947 62> 582 83<80.2575 352> 904 96<-118.923 694.8>
LayerCount: 3
Fore
SplineSet
583 63 m 1
 552 38 524 18 483 18 c 0
 471 18 459 20 449 25 c 1
 450 1 448 -23 452 -45 c 1
 457 -64 462 -86 462 -99 c 0
 462 -115.7 457.7 -128 450.1 -136 c 1
 821 -136 l 2
 881 -136 904 -113 904 -53 c 2
 904 625 l 2
 904 685 881 718 821 718 c 2
 249 718 l 2
 189 718 156 685 156 625 c 2
 156 -53 l 2
 156 -113 189 -136 249 -136 c 2
 395.6 -136 l 1
 384.1 -127.2 374 -113.2 374 -95 c 0
 374 -80 377 -62 380 -42 c 0
 383 -22 387 -3 387 24 c 0
 387 34 386 46 385 62 c 0
 383 81 374 111 374 130 c 2
 374 269 l 2
 374 288 366 352 366 352 c 1
 455 362 l 1
 455 362 457 308 457 284 c 2
 457 140 l 2
 457 92 470 58 497 58 c 0
 528 58 566 78 582 100 c 1
 582 352 l 1
 665 363 l 1
 665 122 l 2
 665 87 666 58 695 58 c 0
 713 58 714 70 718 70 c 0
 721 70 728 61 728 56 c 0
 728 52 699 20 658 20 c 0
 613 20 594 34 584 63 c 1
 583 63 l 1
1000 -84 m 2
 1000 -174 971 -212 881 -212 c 2
 249 -212 l 2
 159 -212 120 -174 120 -84 c 2
 120 625 l 2
 120 708 168 754 249 754 c 2
 851 754 l 2
 941 754 1000 715 1000 625 c 2
 1000 -84 l 2
EndSplineSet
EndChar

StartChar: periodcentered
Encoding: 183 183 306
Width: 1100
VWidth: 1184
Flags: HW
HStem: -212 76<179.2 885.174> 208 101<480.181 561.707> 718 36<188.821 875.472>
VStem: 120 36<-107.953 686.051> 470 102<217.396 298.986> 904 96<-118.923 694.8>
LayerCount: 3
Fore
SplineSet
521 208 m 0
 490 208 470 232 470 258 c 0
 470 284 493 309 521 309 c 0
 546 309 572 287 572 258 c 0
 572 231 550 208 521 208 c 0
249 718 m 2
 189 718 156 685 156 625 c 2
 156 -53 l 2
 156 -113 189 -136 249 -136 c 2
 821 -136 l 2
 881 -136 904 -113 904 -53 c 2
 904 625 l 2
 904 685 881 718 821 718 c 2
 249 718 l 2
1000 -84 m 2
 1000 -174 971 -212 881 -212 c 2
 249 -212 l 2
 159 -212 120 -174 120 -84 c 2
 120 625 l 2
 120 708 168 754 249 754 c 2
 851 754 l 2
 941 754 1000 715 1000 625 c 2
 1000 -84 l 2
EndSplineSet
EndChar

StartChar: cedilla
Encoding: 184 184 307
Width: 1100
VWidth: 999
Flags: HW
HStem: -212 76<179.2 885.174> 43 33<466.093 551.842> 123 35.9<538.206 552.588> 181 20<509.273 555.427> 718 36<188.821 875.472>
VStem: 120 36<-107.953 686.051> 555 53<78.6673 122.525> 904 96<-118.923 694.8>
AnchorPoint: "unten_anhang" 627 -16 mark 0
LayerCount: 3
Fore
SplineSet
249 718 m 2
 189 718 156 685 156 625 c 2
 156 -53 l 2
 156 -113 189 -136 249 -136 c 2
 821 -136 l 2
 881 -136 904 -113 904 -53 c 2
 904 625 l 2
 904 685 881 718 821 718 c 2
 249 718 l 2
1000 -84 m 2
 1000 -174 971 -212 881 -212 c 2
 249 -212 l 2
 159 -212 120 -174 120 -84 c 2
 120 625 l 2
 120 708 168 754 249 754 c 2
 851 754 l 2
 941 754 1000 715 1000 625 c 2
 1000 -84 l 2
496.1 119 m 1
 485.7 129.4 l 1
 518.4 201 l 1
 555.4 201 l 1
 538.2 158.9 l 1
 593 158.9 608 127.2 608 106 c 0
 608 69.4 572.2 43 523 43 c 0
 498.2 43 486.3 45.2 458.9 57.4 c 1
 471.2 87.1 l 1
 488.6 80.1 500.7 76 519 76 c 0
 539.4 76 555 87.6 555 102 c 0
 555 113 546.6 123 532 123 c 0
 518.8 123 505 122 496.1 119 c 1
EndSplineSet
Colour: ff00ff
EndChar

StartChar: guillemotright
Encoding: 187 187 308
Width: 1100
VWidth: 999
Flags: HW
HStem: -212 76<179.2 885.174> 36 21G<356.098 393 530.098 567.5> 718 36<188.821 875.472>
VStem: 120 36<-107.953 686.051> 904 96<-118.923 694.8>
LayerCount: 3
Fore
SplineSet
249 718 m 2
 189 718 156 685 156 625 c 2
 156 -53 l 2
 156 -113 189 -136 249 -136 c 2
 821 -136 l 2
 881 -136 904 -113 904 -53 c 2
 904 625 l 2
 904 685 881 718 821 718 c 2
 249 718 l 2
1000 -84 m 2
 1000 -174 971 -212 881 -212 c 2
 249 -212 l 2
 159 -212 120 -174 120 -84 c 2
 120 625 l 2
 120 708 168 754 249 754 c 2
 851 754 l 2
 941 754 1000 715 1000 625 c 2
 1000 -84 l 2
360 36 m 1
 352 77 l 1
 390 130 433 173 478 207 c 1
 435 237 394 279 352 337 c 1
 360 378 l 1
 430 304 502 252 560 222 c 1
 560 192 l 1
 498 152 426 100 360 36 c 1
534 36 m 1
 526 77 l 1
 566 130 601 173 646 207 c 1
 604 237 568 279 526 337 c 1
 534 378 l 1
 605 304 670 252 728 222 c 1
 728 192 l 1
 666 152 601 100 534 36 c 1
EndSplineSet
Substitution2: "'c2sc' Versale nach Kapitaelchen 1" guillemotright.sc
AlternateSubs2: "'aalt' Alle Alternativen zeigen 1" guillemotright.sc
Substitution2: "'case' Versalformen 1" guillemotright.sc
Colour: ff00ff
EndChar

StartChar: Agrave
Encoding: 192 192 313
Width: 1100
Flags: HW
HStem: -212 76<179.2 885.174> 207 39<431.391 608> 412 20<493 505 520 556> 557 110 718 36<188.821 875.472>
VStem: 120 36<-107.953 686.051> 421 171 653 114<39 86.3662> 904 96<-118.923 694.8>
LayerCount: 3
Fore
SplineSet
249 718 m 2
 189 718 156 685 156 625 c 2
 156 -53 l 2
 156 -113 189 -136 249 -136 c 2
 821 -136 l 2
 881 -136 904 -113 904 -53 c 2
 904 625 l 2
 904 685 881 718 821 718 c 2
 249 718 l 2
1000 -84 m 2
 1000 -174 971 -212 881 -212 c 2
 249 -212 l 2
 159 -212 120 -174 120 -84 c 2
 120 625 l 2
 120 708 168 754 249 754 c 2
 851 754 l 2
 941 754 1000 715 1000 625 c 2
 1000 -84 l 2
467 667 m 1
 580 588 l 2
 591 581 592 575 592 569 c 0
 592 562 586 557 580 557 c 0
 574 557 566 559 548 564 c 2
 427 599 l 1
 421 611 l 1
 428 634 445 652 467 667 c 1
512.5 414.7 m 1
 490.1 363 464.7 304.9 440.9 248 c 1
 464.7 247.7 497.2 246 519 246 c 0
 536.3 246 560 246.5 581.5 247.1 c 1
 562.9 295.1 540.1 351 512.5 414.7 c 1
423.2 205.1 m 1
 397.7 142.2 375.7 83.3 364 39 c 1
 355 41 338 41 330 41 c 0
 322 41 297 41 288 39 c 1
 364 204 437 368 509 534 c 1
 562 534 l 1
 631 370 730 114 767 39 c 1
 754 41 719 41 706 41 c 0
 694 41 666 41 653 39 c 1
 648.7 54.9 632.5 111.1 597.2 205.6 c 1
 572.6 206.3 546.6 207 523 207 c 0
 496 207 452.3 206.1 423.2 205.1 c 1
EndSplineSet
Position2: "'cpsp' Versalabstaende 1" dx=2 dy=0 dh=4 dv=0
Substitution2: "'c2sc' Versale nach Kapitaelchen 1" agrave.sc
AlternateSubs2: "'aalt' Alle Alternativen zeigen 1" agrave.sc
Colour: ff00ff
EndChar

StartChar: Aacute
Encoding: 193 193 314
Width: 1100
Flags: HW
HStem: -212 76<179.2 885.174> 207 39<431.391 608> 412 20<493 505 520 556> 557 110 718 36<188.821 875.472>
VStem: 120 36<-107.953 686.051> 463 171 653 114<39 86.3662> 904 96<-118.923 694.8>
LayerCount: 3
Fore
SplineSet
249 718 m 2
 189 718 156 685 156 625 c 2
 156 -53 l 2
 156 -113 189 -136 249 -136 c 2
 821 -136 l 2
 881 -136 904 -113 904 -53 c 2
 904 625 l 2
 904 685 881 718 821 718 c 2
 249 718 l 2
1000 -84 m 2
 1000 -174 971 -212 881 -212 c 2
 249 -212 l 2
 159 -212 120 -174 120 -84 c 2
 120 625 l 2
 120 708 168 754 249 754 c 2
 851 754 l 2
 941 754 1000 715 1000 625 c 2
 1000 -84 l 2
588 667 m 1
 610 652 627 634 634 611 c 1
 628 599 l 1
 507 564 l 2
 489 559 482 557 476 557 c 0
 470 557 463 562 463 569 c 0
 463 575 464 581 475 588 c 2
 588 667 l 1
512.5 414.7 m 1
 490.1 363 464.7 304.9 440.9 248 c 1
 464.7 247.7 497.2 246 519 246 c 0
 536.3 246 560 246.5 581.5 247.1 c 1
 562.9 295.1 540.1 351 512.5 414.7 c 1
423.2 205.1 m 1
 397.7 142.2 375.7 83.3 364 39 c 1
 355 41 338 41 330 41 c 0
 322 41 297 41 288 39 c 1
 364 204 437 368 509 534 c 1
 562 534 l 1
 631 370 730 114 767 39 c 1
 754 41 719 41 706 41 c 0
 694 41 666 41 653 39 c 1
 648.7 54.9 632.5 111.1 597.2 205.6 c 1
 572.6 206.3 546.6 207 523 207 c 0
 496 207 452.3 206.1 423.2 205.1 c 1
EndSplineSet
Position2: "'cpsp' Versalabstaende 1" dx=2 dy=0 dh=4 dv=0
Substitution2: "'c2sc' Versale nach Kapitaelchen 1" aacute.sc
AlternateSubs2: "'aalt' Alle Alternativen zeigen 1" aacute.sc
Colour: ff00ff
EndChar

